<svg id="fc4aad4a-848e-4a8a-94e8-d92d990d6e96" data-name="Livello 1" xmlns="http://www.w3.org/2000/svg" viewBox="0 0 161.8 49"><defs><style>.abfb91ff-b53a-4201-a8c3-c82ffb688cf5,.fd957e29-ce0a-4031-b832-c0193c05d221{fill:#039;}.a1a76bf4-26a8-4adb-941e-1d8f5451dcc4{fill:#009245;}.ace1c54b-d5bd-44a4-b76f-7e7ea3629b8f{fill:#c1272d;}.fd957e29-ce0a-4031-b832-c0193c05d221{fill-rule:evenodd;}</style></defs><path class="abfb91ff-b53a-4201-a8c3-c82ffb688cf5" d="M117.79,36.41h8.71l1.09-15.93a52.17,52.17,0,0,0,0-5.94h.1s1.18,3.72,2,5.94l3.71,10.24h7.42l3.71-10.24c.79-2.22,2-5.94,2-5.94h.1a52.17,52.17,0,0,0,0,5.94l1.09,15.93h8.66L153.47,1h-9.41L138.92,16c-.79,2.28-1.78,5.84-1.78,5.84H137s-1-3.56-1.78-5.84L130.11,1h-9.4Z"/><path class="abfb91ff-b53a-4201-a8c3-c82ffb688cf5" d="M71.93,1H62.82l-12,35.37h8.9L61.83,29h11L75,36.41H84Zm-8.07,21,2-6.88C66.53,13,67.32,9.1,67.32,9.1h.1s.79,3.86,1.44,6.09l2,6.88Z"/><path class="abfb91ff-b53a-4201-a8c3-c82ffb688cf5" d="M98,1H85.43V36.41H98c11.13,0,18.26-6.63,18.26-17.76S109.13,1,98,1m-.35,28H94.09V8.46h3.56c5.84,0,9.65,3.46,9.65,10.19S103.64,29,97.65,29"/><path class="abfb91ff-b53a-4201-a8c3-c82ffb688cf5" d="M40.55,4.88l0,0v-.1l0,0a.66.66,0,0,0,.19,0,.1.1,0,0,0,.08,0A2,2,0,0,0,41,4.41l.21-.47.56-1.26c.1-.25.21-.5.31-.74h.14L43.05,4l.12.27a1.87,1.87,0,0,0,.12.25.57.57,0,0,0,.09.17l.06,0a.54.54,0,0,0,.17,0l0,0v.1l0,0-.39,0-.68,0,0,0v-.1l0,0a1.48,1.48,0,0,0,.29,0,.07.07,0,0,0,.05-.07.35.35,0,0,0,0-.12l-.25-.62H41.42l-.23.52a.57.57,0,0,0-.06.21.07.07,0,0,0,.06.07.74.74,0,0,0,.28,0v.14l-.47,0-.45,0m.93-1.15h1L42,2.49Z"/><path class="abfb91ff-b53a-4201-a8c3-c82ffb688cf5" d="M43.56,8.79v.08l-.1.06,0,0a.55.55,0,0,0,0,.12,2.1,2.1,0,0,0,0,.27,2.62,2.62,0,0,0,0,.38v0a3.1,3.1,0,0,1-1.16.22,2,2,0,0,1-.82-.17,1.37,1.37,0,0,1-.58-.51,1.45,1.45,0,0,1-.22-.81,1.41,1.41,0,0,1,.49-1.13A1.89,1.89,0,0,1,42.37,7a2.56,2.56,0,0,1,1,.19l0,0a5.17,5.17,0,0,0-.09.58h-.12V7.52a.7.7,0,0,0,0-.13l0,0L43,7.25a1.81,1.81,0,0,0-.31-.09,1.69,1.69,0,0,0-.33,0,1.4,1.4,0,0,0-.66.15,1,1,0,0,0-.44.46,1.45,1.45,0,0,0-.15.66,1.63,1.63,0,0,0,.16.7,1.2,1.2,0,0,0,.46.51,1.25,1.25,0,0,0,.68.18,2.07,2.07,0,0,0,.35,0A.9.9,0,0,0,43,9.67a1.47,1.47,0,0,0,0-.27V9.17A.69.69,0,0,0,43,9s0,0-.1-.06l-.35,0h0V8.79l0,0h1Z"/><path class="abfb91ff-b53a-4201-a8c3-c82ffb688cf5" d="M41,12.06h2.12a3.43,3.43,0,0,0-.07.62h-.13v0a1.84,1.84,0,0,0,0-.33,1,1,0,0,0-.36-.07l-.34,0-.41,0v1.12h.72l.15,0a.16.16,0,0,0,0-.06.35.35,0,0,0,0-.13V13h.13c0,.15,0,.3,0,.45v.46l0,0h-.09l0,0v-.12a1.19,1.19,0,0,1,0-.17l0-.05-.15,0h-.7c0,.11,0,.3,0,.57s0,.5,0,.63h1a1.05,1.05,0,0,0,.24-.06l.06-.22c0-.11,0-.18,0-.21h.14a2.7,2.7,0,0,0,0,.31c0,.14,0,.27,0,.37l0,0H41.55l-.41,0v-.11l.14-.07a1.89,1.89,0,0,0,0-.36c0-.23,0-.4,0-.53V12.68a1.78,1.78,0,0,0,0-.25.53.53,0,0,0,0-.14s0,0,0,0,0,0-.05,0l-.1,0H41l0,0Z"/><path class="abfb91ff-b53a-4201-a8c3-c82ffb688cf5" d="M40.48,20l0,0v-.1h0l.2,0a.12.12,0,0,0,.1,0l0-.09s0-.14,0-.29,0-.25,0-.32V17.46a.24.24,0,0,0,0-.16.17.17,0,0,0-.1-.06l-.23,0h0v-.12h.72l.65.85,1,1.21.36.41V18s0-.15,0-.31,0-.26,0-.31a.12.12,0,0,0,0-.08.19.19,0,0,0-.1,0H42.8l0,0v-.09l0,0h.88l0,0v.09l0,0-.21,0a.1.1,0,0,0-.09,0,.2.2,0,0,0,0,.09s0,.13,0,.28,0,.26,0,.32v2.1L43,20l-.15-.17-.43-.53L41,17.54v1.91a2.8,2.8,0,0,0,0,.29.15.15,0,0,0,0,.07s0,0,.07,0a.88.88,0,0,0,.22,0h0V20l0,0L41,20l-.54,0"/><path class="abfb91ff-b53a-4201-a8c3-c82ffb688cf5" d="M40.77,25v-.1l.49-.61,1.17-1.51c.18-.22.3-.39.36-.48h-.41l-.7,0-.36,0a.25.25,0,0,0-.1,0,.49.49,0,0,0,0,.13l0,.27,0,0H41v0c0-.11,0-.19,0-.25s0-.3,0-.4v0c.49,0,.83,0,1,0s.74,0,1.27,0l0,0v.11l-.32.38-1.71,2.2h1.34l.33,0a.23.23,0,0,0,.11,0,.1.1,0,0,0,0-.05,1.2,1.2,0,0,1,0-.14l0-.27,0,0h.1l0,0c0,.09,0,.32,0,.71l0,0-1.37,0-1.16,0Z"/><path class="abfb91ff-b53a-4201-a8c3-c82ffb688cf5" d="M41.51,27.16h.58l.59,0,0,0v.1l0,0h-.22a.16.16,0,0,0-.11,0,.12.12,0,0,0,0,.1,1.44,1.44,0,0,0,0,.24V29.5c0,.15,0,.25,0,.3l0,.09.08,0,.27,0h0v.1l0,0h-.59l-.58,0,0,0V30h0l.25,0,.09,0,0-.09s0-.13,0-.28V27.75a2,2,0,0,0,0-.3q0-.07,0-.09s0,0-.07,0a1.31,1.31,0,0,0-.27,0l0,0v-.1Z"/><path class="abfb91ff-b53a-4201-a8c3-c82ffb688cf5" d="M40.55,35.12l0,0V35l0,0a.66.66,0,0,0,.19,0,.14.14,0,0,0,.08-.05,2,2,0,0,0,.14-.26l.21-.47.56-1.26c.1-.25.21-.5.31-.74h.14l.87,2,.12.28a1.87,1.87,0,0,0,.12.25.57.57,0,0,0,.09.17l.06,0a.54.54,0,0,0,.17,0l0,0v.1l0,0-.39,0-.68,0,0,0V35l0,0a1.48,1.48,0,0,0,.29,0,.07.07,0,0,0,.05-.07.35.35,0,0,0,0-.12l-.25-.63H41.42l-.23.53a.57.57,0,0,0-.06.21.07.07,0,0,0,.06.07.74.74,0,0,0,.28,0v.14l-.47,0-.45,0M41.48,34h1L42,32.73Z"/><rect class="a1a76bf4-26a8-4adb-941e-1d8f5451dcc4" x="39.33" y="0.79" width="0.33" height="35.79"/><rect class="ace1c54b-d5bd-44a4-b76f-7e7ea3629b8f" x="44.59" y="0.84" width="0.33" height="35.79"/><path class="abfb91ff-b53a-4201-a8c3-c82ffb688cf5" d="M10.6,7.8l.24-.11.05.11h0l.39.86-.15.13c-.2.17-.4.36-.59.55l-.27.29-.12.13L10,9.59h0L10,9.12h0L10.16,9l.19-.19a3.45,3.45,0,0,1,.28-.26l-.06-.14-.13-.28Z"/><path class="abfb91ff-b53a-4201-a8c3-c82ffb688cf5" d="M7.34,13.76l-.23-.13v0L7,13.87v0l-.12.2h0l.3.16.11.07a9.69,9.69,0,0,0-.17,1.11l-.82.17L6,15.68H6v.21c0,.07,0,.19,0,.34,0,.37,0,.9,0,1.07v.21l1.08.23a9.69,9.69,0,0,0,.17,1.11l-1,.55.06.21c0,.11.12.38.21.66l0,.16,0,.11h0l.21-.07.16-.37h0c0-.09-.06-.19-.08-.27H7c0-.06,0-.11,0-.15l.17-.1.33-.19h0l.36-.57h0c0-.09,0-.17,0-.25-.07-.38-.12-.72-.15-1.05v-.2l-1.06-.22v-.95L7.6,15.9v-.2a10,10,0,0,1,.23-1.44l0-.2-.25-.14-.22-.12Z"/><path class="abfb91ff-b53a-4201-a8c3-c82ffb688cf5" d="M29.09,20.45l-.17-.06L28.76,20l0-.13a.31.31,0,0,0,0-.08l.05-.15-.59-.34-.18-.1.17-.33h0l.08-.14.14.08,1,.56,0,.19-.13.43v0c0,.07,0,.15-.07.23Z"/><path class="abfb91ff-b53a-4201-a8c3-c82ffb688cf5" d="M17.91,28.5H17l-.22-1.08c-.36,0-.73-.1-1.12-.18l-.54,1-.2-.05-1.35-.44-.2-.08.12-1.09c-.34-.16-.68-.33-1-.52l-.81.74-.17-.11c-.19-.12-1-.68-1.15-.83l-.16-.13.45-1a10.06,10.06,0,0,1-.8-.8l-1,.46-.13-.16L8.55,24,8.5,23.9c-.08-.11-.17-.24-.27-.36l.44-.32.26.37.06.07H9l1-.44.13.15a14.51,14.51,0,0,0,1,1l.15.13-.44,1,.77.55.79-.72.17.1a10.7,10.7,0,0,0,1.31.66l.18.08-.12,1.07.91.3.53-.94.19.05a11.47,11.47,0,0,0,1.44.22l.2,0L17.43,28h1l.21-1,.19,0a11,11,0,0,0,1.45-.23l.19-.05.53.94.92-.3-.12-1.06.18-.08a11.37,11.37,0,0,0,1.3-.67l.17-.1.8.72c.22-.15.55-.39.77-.56l-.45-1,.15-.13a9.14,9.14,0,0,0,1-1l.13-.15,1,.45.45-.62.13-.19.44.31-.13.19-.6.81-.13.16-1-.45c-.24.26-.51.53-.81.8l.47,1-.17.13c-.18.13-.94.7-1.15.83l-.18.11L23.34,26a10.65,10.65,0,0,1-1,.52l.13,1.09-.2.08-1.35.44-.2.05-.55-1a9,9,0,0,1-1.12.18l-.21,1.08h-.92Z"/><path class="abfb91ff-b53a-4201-a8c3-c82ffb688cf5" d="M17.25,4.7h0Zm9.28,5-.21.1-.46.22-.14-.15a11.23,11.23,0,0,0-1-1l-.15-.13.44-1-.52-.38-.25-.18-.79.72-.17-.1a10.7,10.7,0,0,0-1.31-.66L21.76,7l.12-1.07c-.25-.09-.66-.22-.91-.29l-.53.94-.19,0a9.55,9.55,0,0,0-1.44-.23l-.2,0-.22-1c-.27,0-.69,0-1,0l-.21,1-.2,0a8.55,8.55,0,0,0-1.43.23l-.2,0-.54-.94c-.26.08-.66.2-.91.29L14.06,7l-.18.08a8.83,8.83,0,0,0-1.3.66l-.17.1-.8-.72-.13.09-.43.32h0l-.06,0-.16-.21.24-.51.1-.08.32-.22.07,0h0l.1-.06.82.74a10.57,10.57,0,0,1,1-.52l-.12-1.08.19-.08c.24-.09,1.13-.38,1.36-.44l.19,0,.55,1a9.7,9.7,0,0,1,1.12-.18L17,4.72l.19,0h1.45l.2,0,.22,1.06A11.32,11.32,0,0,1,20.17,6l.53-1,.2,0c.24.06,1.14.35,1.37.45l.19.07-.13,1.08c.35.16.69.33,1,.52l.79-.74h0l.15.09.07,0,.4.27h0l.32.23h0l0,0,.33.25.16.13-.12.27-.33.73c.28.26.55.52.8.8l.33-.15.11-.05.11.24Z"/><path class="abfb91ff-b53a-4201-a8c3-c82ffb688cf5" d="M28.22,17.32h0v0l.21,0h0l.83-.18c0-.26,0-.68,0-.95l-1.06-.21v-.2A9.65,9.65,0,0,0,28,14.27l-.05-.2.41-.23.39-.22.2,0,.07.13-.06.34h0l-.27.16-.13.07a9,9,0,0,1,.18,1.12l.56.11.34.07.19.32a.13.13,0,0,1,0,.06v.43c0,.34,0,.72,0,.86v.21l-1.08.22q0,.32-.09.66h0l-.23,0Z"/><path class="abfb91ff-b53a-4201-a8c3-c82ffb688cf5" d="M12.72,23.75l1.8-6.06-5-3.82,6.31-.16,2.08-6,2.11,6,6.3.15-5,3.83,1.81,6.05-5.19-3.59Zm5.19-4.24,4.24,2.93L20.67,17.5l4.1-3.13-5.15-.12L17.91,9.38,16.2,14.24l-5.15.13,4.1,3.12-1.48,5Z"/><path class="abfb91ff-b53a-4201-a8c3-c82ffb688cf5" d="M12.46,24.1l1.9-6.36-5.26-4,6.62-.16L17.9,7.33l2.21,6.25,6.61.15-5.26,4,1.9,6.34-5.45-3.77ZM9.92,14l4.77,3.63L13,23.4,17.91,20l4.94,3.42-1.72-5.75L25.9,14l-6-.14-2-5.66-2,5.66ZM22.4,22.79l-4.49-3.11-4.49,3.11L15,17.54l-4.34-3.31,5.46-.13L17.91,9l1.82,5.16,5.45.12-4.34,3.33Zm-4.49-3.46,4,2.76-1.38-4.64,3.85-2.95-4.84-.11L17.91,9.81l-1.6,4.57-4.85.12,3.85,2.93-1.39,4.66Z"/><path class="abfb91ff-b53a-4201-a8c3-c82ffb688cf5" d="M20.21,14h-.45l-.11-.31-.16-5.65.2,0a8.67,8.67,0,0,1,5.79,4.26l.1.18ZM20,13.72h.18l4.92-1.37a8.33,8.33,0,0,0-5.27-3.88L20,13.66Z"/><path class="abfb91ff-b53a-4201-a8c3-c82ffb688cf5" d="M15.64,14l-5.35-1.58.1-.18A8.63,8.63,0,0,1,16.22,8.1l.2,0-.24,5.64-.11.33Zm-4.86-1.77,4.91,1.44h.15l0-.07.23-5.19A8.33,8.33,0,0,0,10.78,12.27Z"/><path class="abfb91ff-b53a-4201-a8c3-c82ffb688cf5" d="M11.62,22.57l-.14-.15a9.05,9.05,0,0,1-1.6-2.55l0-.05,0-.05A7.53,7.53,0,0,0,10.11,18l0-.16h0l-.56.42.42-.83a.45.45,0,0,0,0-.11.94.94,0,0,0-.46.11l-.22.11v-.24a8.58,8.58,0,0,1,0-1.68l0-.21,5.41,2,.19.14-.11.38ZM10.2,19.79a8.5,8.5,0,0,0,1.39,2.26l2.93-4.29,0-.11-5-1.84a8,8,0,0,0,0,1.2.8.8,0,0,1,.61,0h0c.12.1.14.26.05.49a.58.58,0,0,1,.19.4A7,7,0,0,1,10.2,19.79Z"/><path class="abfb91ff-b53a-4201-a8c3-c82ffb688cf5" d="M17.9,25.27a8.68,8.68,0,0,1-3.63-.8l-.19-.08,3.6-4.54.22-.15.22.15,0,0,3.51,4.55-.19.08A8.68,8.68,0,0,1,17.9,25.27Zm-3.31-1a8.37,8.37,0,0,0,6.55,0l-3.24-4.2Z"/><path class="abfb91ff-b53a-4201-a8c3-c82ffb688cf5" d="M24.13,22.64,21,17.92l-.11-.38.17-.14h0l5.41-1.94,0,.21A8.89,8.89,0,0,1,26.46,18l0,.16-.15,0a.2.2,0,0,0-.14,0,.21.21,0,0,0,0,.17,2.49,2.49,0,0,0,.15.43l0,.05v.06a8.8,8.8,0,0,1-2,3.59ZM21.3,17.79l2.87,4.33a8.39,8.39,0,0,0,1.77-3.25,1.68,1.68,0,0,1-.16-.48.53.53,0,0,1,.13-.43.53.53,0,0,1,.25-.12,8.32,8.32,0,0,0,.07-1.93l-5,1.76Z"/><path class="fd957e29-ce0a-4031-b832-c0193c05d221" d="M33.44,19a1.13,1.13,0,0,0,.13-1.37c.1-.67,0-1.09-.2-1.26s-.55-.12-.91.17c-.21-.11-.49,0-.85.31a.56.56,0,0,0,0-.42,1.26,1.26,0,0,0,.62-.5,1.93,1.93,0,0,0,.14-.84A4.46,4.46,0,0,1,33,13.81c.28-.6.09-.81-.57-.62a1.28,1.28,0,0,0,.54-.84,1.5,1.5,0,0,0-.28-.85c-.09-.19-.22-.23-.39-.11a1,1,0,0,0,.1-.44,3.2,3.2,0,0,0-.34-1.09c0-.73-.21-1-.52-.91a2.88,2.88,0,0,0-.37-1.09c-.29-.45-.53-.56-.7-.35-.48-.72-.93-1-1.35-.89a1.39,1.39,0,0,0-.31-.83,2.48,2.48,0,0,0-.41-1c-.22-.09-.38,0-.46.37a3.18,3.18,0,0,0-.26-.85.73.73,0,0,0-.65-.47.54.54,0,0,0-.31.06,1,1,0,0,0-.5-.19c-.42-.44-.81-.48-1.15-.11L25,3.23c-.12-.45-.37-.55-.74-.29A5.63,5.63,0,0,0,22.75,1.7c-.36-.12-.59-.09-.7.09a1.36,1.36,0,0,0-.59-.35,5.25,5.25,0,0,1-.6-.17c-.28,0-.4.15-.37.47a1.65,1.65,0,0,0-.91.23.44.44,0,0,0-.13.54,1,1,0,0,0,.54.58.57.57,0,0,0-.09.4c0,.19.21.34.59.47a1.71,1.71,0,0,0,.84,0,.39.39,0,0,0,.29.54A1.18,1.18,0,0,0,23,4.79l-.05.35.72.3a.85.85,0,0,0,.48.74l.28.12a1,1,0,0,0-.33.26.36.36,0,0,0,0,.37.32.32,0,0,0,.21.11l.4,0a4.61,4.61,0,0,0,.52,0,1,1,0,0,0,.13.34,2.42,2.42,0,0,0,.39.51,2.89,2.89,0,0,0,.9.57,4.53,4.53,0,0,0-.19.48,1.46,1.46,0,0,0-.08.48.72.72,0,0,0,.12.47s-.22.1-.28.2c-.23.35.27.86.35,1a.79.79,0,0,0-.25.12c-.17.12-.11.73.37.84a4.36,4.36,0,0,1,1,.67c.05,0,.21.35.43.64s.25.42.54.43l0,.12a9.06,9.06,0,0,0,.88,1.87l.09.15.22.36a4.39,4.39,0,0,1,.66,1,2.75,2.75,0,0,0-.05.58,9.73,9.73,0,0,1-.32,1.64c-.53-.26-.61.09-.69.42,0,0-.25,0-.28.07a.21.21,0,0,0,0-.13c-.09-.14-.32-.23-.44-.14l-.27.19s-.06-.17-.07-.31a1.46,1.46,0,0,1,0-.58l.05-.07c0-.06.11-.15.16-.24a2.53,2.53,0,0,0,0-1.31c0-.16-.08-.32-.12-.46a.47.47,0,0,0-.29-.31s-.32,0-.37.21c0-.12-.21-.19-.35-.22-.41-.1-.84.68-.79,1.4A.71.71,0,0,0,26.3,18c-.21,0-.39.09-.36.38a1.74,1.74,0,0,0,.17.48,7.39,7.39,0,0,1,.78,1.54c-.26-.23-.83-.23-.84.32a1.67,1.67,0,0,0,.2.57c-.12.59.56,1,1.11,1.58,0,.23.06.26.14.33l0,0-.73,1.15s-.46-.23-.6-.1a2,2,0,0,0-.34.42l.07.68a1.15,1.15,0,0,1-.45,1,2.83,2.83,0,0,0-.69,1,1.59,1.59,0,0,1-.73.72,1.11,1.11,0,0,0-.29-.35.14.14,0,0,0-.15-.06,17.56,17.56,0,0,0-2.53,1.11,3.48,3.48,0,0,0-.95,1h-.72a3.33,3.33,0,0,1-.63-.46c-.16-.12-.44-.08-.85.13a1.45,1.45,0,0,0-1.15.24.7.7,0,0,1-.51.06l-.91-1a10.34,10.34,0,0,0-3.07-1.06,1,1,0,0,0-.41.48,3.5,3.5,0,0,1-.83-.7l-.57-.65A1.58,1.58,0,0,1,10,25.45l.09-.57a.28.28,0,0,0,0-.21,1.1,1.1,0,0,0-.5-.26s-.1,0-.19.3a8.46,8.46,0,0,1-.6-.84.1.1,0,0,1,0-.05,4,4,0,0,0,.58-1.27,6.93,6.93,0,0,0,.27-1.75.21.21,0,0,1,.08-.1,2.17,2.17,0,0,0,.33-.89,6.94,6.94,0,0,0,.23-1.89c0-.2-.08-.3-.13-.3a.23.23,0,0,0-.16,0l.11-.22c.06-.16.06-.26,0-.31a1,1,0,0,0-.65.1h0a4.16,4.16,0,0,0-.27-1c0-.06-.1,0-.11,0a2.79,2.79,0,0,0-.93,1.85L8,18.27q-.21.27-.42.57c0,.09-.11.18-.17.27a8.24,8.24,0,0,0-.54,1.07,6.5,6.5,0,0,0-.29,1,3.28,3.28,0,0,1-.27-.75,1.28,1.28,0,0,1-.09-.66.36.36,0,0,0-.1-.48,5.35,5.35,0,0,1-.48-1.66,4.53,4.53,0,0,1,.32-1.17,12.11,12.11,0,0,1,1-1.91,1.34,1.34,0,0,1,.27-.26.67.67,0,0,0,.27-.16c.85-.69,2.79-3.33,2.93-4.95a2.12,2.12,0,0,0,0-.44,3.43,3.43,0,0,0,.39-.63c.19-.33.42-.74.6-1.1a4.86,4.86,0,0,0,.33-.76l.16-.05L12,6.1c.62-.25,1.14-.51,1.62-.73l.75-.4a6.18,6.18,0,0,0,1.48-.9,2.1,2.1,0,0,0,.8-1.35c-.09-.11-.34-.18-.76-.19a1.23,1.23,0,0,0,.35-.78c-.16-.22-.64-.25-1.44-.11a6.64,6.64,0,0,0-2.21,1,8.12,8.12,0,0,0-1.72,1.49A7.94,7.94,0,0,0,9.64,5.94L10,5.08c.18-.4.38-.88.59-1.42a1,1,0,0,0,0-.56q-.09-.16-.36-.09a3.58,3.58,0,0,0-1.08.78,8.62,8.62,0,0,0-1.5,2.15,14.59,14.59,0,0,0-.9,2,3.47,3.47,0,0,0,0-1.42c-.06-.16-.2-.21-.41-.13A2.66,2.66,0,0,0,5.73,7l-.57.78A10.9,10.9,0,0,0,4.5,8.88a8.69,8.69,0,0,0-.66,1.66,13.79,13.79,0,0,0-.44,2.55,7.58,7.58,0,0,0,.15,2.19A8.31,8.31,0,0,0,4.14,17c.2.37.38.58.56.64.11.28.25.73.44,1.35a2,2,0,0,1,.13.68.33.33,0,0,0,.12.32.71.71,0,0,1,.23.37A7.77,7.77,0,0,0,6.27,22a4.45,4.45,0,0,0-.08.81c-.59-1.71-1.07-3-1.44-3.88C4,17.35,3.48,16.62,3.07,16.76a.61.61,0,0,0-.37.53c0,.11,0,.4,0,.85a10.83,10.83,0,0,0,.13,1.45,9.67,9.67,0,0,0,1.9,4.1l1.35,1.59a3,3,0,0,0,.78.6.92.92,0,0,0,.69.11,11.75,11.75,0,0,0,1.16,1.55c.3.46.6.67.93.65a.64.64,0,0,0,.61.44l.27,0a11.14,11.14,0,0,0,1,.88l-.35,1a13.84,13.84,0,0,1-1.7.15c-.49-.35-1.16-.81-2-1.41l0-1.11a1.56,1.56,0,0,1,.2-1c0-.21-.08-.4-.35-.57a1.56,1.56,0,0,0-.87-.24c-.08,0-.12.09-.13.2v.61l-1.76,0a.52.52,0,0,0-.4.18c-.1.13-.1.37,0,.74a1.05,1.05,0,0,1,0,.36,4.81,4.81,0,0,1-.69,1.44c0,.08,0,.21.07.39a4.29,4.29,0,0,0,.69.81,5.5,5.5,0,0,0,.73.59c.33.24.9.59,1.73,1.08a24.07,24.07,0,0,0,2.79,1.44c.19,0,1.42-.16,3.7-.5l0,.2c-.65.5-1.07.7-1.26.61s-.34.22-.24.58a.63.63,0,0,0,.41.33l.24.28.69.4a1.14,1.14,0,0,0,.73,0,.72.72,0,0,0,.45-.57l.81-.81.54-.41a1.06,1.06,0,0,0,.81-.44c0-.2.08-.33.17-.37l.65-.45c0-.06.29,0,.79.32a.94.94,0,0,0,.65,0l.48-.28a7.33,7.33,0,0,1,2.28,1.61c0,.11.05.24.2.39a1.33,1.33,0,0,0,.7.28l.26.48.26.09a1.52,1.52,0,0,0,1.07-.41l.41-.13c.21-.16.3-.32.28-.48l-.17-.16-.35-.1a7.3,7.3,0,0,1-1.35-.85l-.3-.22c1.35.23,3,.42,5,.56a1.42,1.42,0,0,0,1-.38q.62-.47,3.74-2.68a3.8,3.8,0,0,0,.74-1.14,2.38,2.38,0,0,1-.49-.74,3.69,3.69,0,0,1-.27-.82,1.35,1.35,0,0,1,0-.56.47.47,0,0,0-.16-.47c-.06-.09-.21-.14-.43-.17a6.66,6.66,0,0,0-1.33,0c-.23,0-.37-.08-.41-.17l0-.44c0-.2,0-.29-.16-.26a2,2,0,0,0-1,.41.36.36,0,0,0,0,.55.56.56,0,0,1,.21.43,15,15,0,0,1-.21,1.64,13.76,13.76,0,0,1-1.83,1.32A4.73,4.73,0,0,1,25,30.56a1.61,1.61,0,0,1-.42-.89c.31-.19.63-.41,1-.67a3.43,3.43,0,0,0,.59-.14q.24-.08.24-.45a.61.61,0,0,0,.35-.41l1.08-1.29A2.06,2.06,0,0,1,29,26.19a4.45,4.45,0,0,0,1.93-.83c.12-.14.12-.33,0-.58a5.73,5.73,0,0,0,1.14-1.14,1.07,1.07,0,0,0,.15-1A3.38,3.38,0,0,0,33,21.25a3.06,3.06,0,0,0,0-1,2.61,2.61,0,0,0,.49-.38.63.63,0,0,0,.14-.43A.57.57,0,0,0,33.44,19ZM23.75,5.08l-.63-.2,0-.42-.35.07a1,1,0,0,1-1-.3c-.22,0-.32-.05-.28-.26s.06-.28-.07-.29l-.54,0a1,1,0,0,1-.69-.29c-.07-.13,0-.28.15-.47a1.13,1.13,0,0,1-.62-.44q-.12-.24.15-.39a1.82,1.82,0,0,1,1-.05.43.43,0,0,1-.09-.43q0-.22,1,.24l.37.22a.37.37,0,0,1,.5-.16,4,4,0,0,1,.79.49,5.71,5.71,0,0,1,.84.82c.26-.17.44-.13.55.11l.06.45a.78.78,0,0,0-1-.06l-.26-.11a3.78,3.78,0,0,1-.65-1c-.07-.28-.11-.31-.11-.07a1.92,1.92,0,0,0,.44.94,2.72,2.72,0,0,1-1.19-.67,8,8,0,0,1-.58-.68c-.14-.22-.19-.22-.17,0A3,3,0,0,0,22,3l-.55-.26a3.07,3.07,0,0,0-1.07-.3c-.14,0-.15,0,0,.08a5.21,5.21,0,0,1,1,.34,1.51,1.51,0,0,1,.44.28,2.54,2.54,0,0,1-1.08.21c-.23,0-.34,0-.31,0a.54.54,0,0,0,.22.07A3.15,3.15,0,0,0,22,3.25a8.22,8.22,0,0,0,1.17.5,2.31,2.31,0,0,0-.8.37c-.1.13-.05.13.15,0a1.76,1.76,0,0,1,.89-.28l.31.13A1.94,1.94,0,0,0,24,5Zm1.48,1.78c-.69,0-.83,0-.87-.11s0-.16.2-.3l.13-.21c-.4-.18-.77-.4-.79-.9l.33-.13c.15-.17.15-.3,0-.38S24,4.51,24,4.14s.47-.3,1,0c.23-.46.51-.59.85-.41a.56.56,0,0,0-.63.47,2.15,2.15,0,0,0,0,.72,1.88,1.88,0,0,0-.44-.45c-.34-.17-.4-.15-.19.06a5.67,5.67,0,0,1,.56.65,1.21,1.21,0,0,1-.89.29c-.11,0-.1.08.05.1a1.06,1.06,0,0,0,.52,0,1.67,1.67,0,0,0,.13.72,1.75,1.75,0,0,0,.45.45A.3.3,0,0,0,25.23,6.86Zm.39.35c0-.15.11-.23.39-.25s.31-.09.13-.23a1.83,1.83,0,0,1-.89-.63c-.16-.21-.16-.36,0-.44l.27-.08.13-.16-.16-.65a.61.61,0,0,1,.28-.7,1.29,1.29,0,0,1,1,.29c0-.17.12-.22.34-.16s.41.53.6,1.38l.3.11c.09-.23.17-.35.24-.35s.19.21.29.61A1.33,1.33,0,0,1,28.87,7a1.4,1.4,0,0,0-.26.78l-.14-.33a4.08,4.08,0,0,1-.11-1.17q0-.25-.06,0a4.77,4.77,0,0,0,0,.91,9.24,9.24,0,0,0-1.07-1.17,2.7,2.7,0,0,1-.08-.92c0-.3-.06-.36-.09-.2a4.93,4.93,0,0,0,0,1,8.39,8.39,0,0,1-1-1.24c-.1-.17-.14-.21-.13-.11a5.22,5.22,0,0,0,.74,1.11c.26.3.47.53.63.7a6.25,6.25,0,0,0-.83-.19,2.23,2.23,0,0,1-.65-.19c-.19,0-.18,0,0,.13a2.06,2.06,0,0,0,.67.2,3.85,3.85,0,0,1,1,.31,2.72,2.72,0,0,1,.64.76l.23.5a4.21,4.21,0,0,0-1.15-.39,2.15,2.15,0,0,1-.74-.2c-.32-.14-.36-.12-.11,0a2.28,2.28,0,0,0,.78.25,4,4,0,0,1,1.31.52l0,.11a.54.54,0,0,0-.09.41l.13.37c-.11-.13-.26-.07-.46.19A.4.4,0,0,0,28,8.8,3.06,3.06,0,0,0,26.75,8l-.12.2A1.39,1.39,0,0,1,25.62,7.21Zm4.5,9.22c-.13-.19-.31-.48-.55-.88a8.56,8.56,0,0,1-.53-1,1.1,1.1,0,0,1-.06-.76.14.14,0,0,0,0-.06l.11-.36.06-.17c0-.13,0-.16,0-.07l-.07.13a2.74,2.74,0,0,0-.22.55.24.24,0,0,0,0,.08l0-.06-.35-1a2.13,2.13,0,0,1,.11-.51,5.9,5.9,0,0,1,.55-1.1c.13-.22.11-.24,0,0a4,4,0,0,0-.63,1.16c0,.11-.07.22-.1.33l-.13-.3-.44-1a3.72,3.72,0,0,1,.44-1.33c.16-.35.13-.34-.11,0a5,5,0,0,0-.42,1c-.06-.22-.11-.44-.16-.64s-.15-.54-.23-.78-.07-.26-.11-.37l-.13,0,.05.14,0,.06a9.76,9.76,0,0,0,.25,1.14c.05.17.1.32.16.47a2.78,2.78,0,0,0-.34-.26,4.17,4.17,0,0,0-.46-.26q-.24-.12,0,.06a3.07,3.07,0,0,1,.4.26,2.22,2.22,0,0,1,.42.37c.15.34.28.66.41.94a4,4,0,0,0-.54-.3c-.17-.08-.37-.17-.59-.25s-.2,0,0,.07a5.72,5.72,0,0,1,.65.31,2.12,2.12,0,0,1,.47.34.79.79,0,0,1,.12.15l.37,1c-.14,0-.32-.21-.54-.61a2.8,2.8,0,0,0-1.39-1,.35.35,0,0,1-.2-.39c0-.14.16-.19.42-.17a1.67,1.67,0,0,0-.26-.5l-.14-.22c-.2-.41-.08-.61.35-.61-.16-.25-.22-.44-.17-.57V9.36a1.34,1.34,0,0,1,.17-.56,2.65,2.65,0,0,0,.17-.44c.23.13.44.25.63.34a.53.53,0,0,1,.31.51l-.09.57c0,.11.13.08.29-.11a1.15,1.15,0,0,1,.39-.39,1,1,0,0,1,.39.34,1.88,1.88,0,0,1-.13,1.29l-.2.52c.42-.56.76-.82,1-.8.09.07.12.19.09.38a2,2,0,0,0,0,.6.56.56,0,0,1-.22.54,1.22,1.22,0,0,0-.35.72c.4-.29.56-.24.48.17l-.22.79c-.06.39,0,.56.19.54s.3,0,.34.07a.74.74,0,0,1,0,.39,1.35,1.35,0,0,0-.15.51.3.3,0,0,0,.1.2q.09.09.36,0c.19-.08.28,0,.28.16s0,.38,0,.56a1,1,0,0,0,.17.53.6.6,0,0,0,.32.23h0l.16-.21c-.24,0-.36-.14-.34-.48a3.74,3.74,0,0,0,0-.77c-.1-.24-.2-.37-.29-.39a6.16,6.16,0,0,1-.69-1.85l.39,0c.28,1,.51,1.59.68,1.67s.26.17.24.28a2.65,2.65,0,0,0,.1.67c.22-.06.35-.26.39-.61a.69.69,0,0,0-.28-.74c-.26-.15-.41-.28-.45-.4s0-.34.24-.39-.19-.37-1-.89c-.4-.28-.53-.54-.37-.76s.18-.11.35,0,.27.14.32.08,0-.29-.2-.36-.33-.14-.32-.23a5.33,5.33,0,0,1,0-.78,1,1,0,0,0,0-.48c-.13-.19-.39-.18-.77,0a1.08,1.08,0,0,0,.06-.61,1.29,1.29,0,0,0-.29-.57l-.18-.58c-.05-.19.06-.33.33-.4a1.37,1.37,0,0,1,0-.82A3.35,3.35,0,0,0,29.19,7c0-.11.15-.13.33,0a3.39,3.39,0,0,1,.89,1q.3-.33.57.24a1.89,1.89,0,0,1,.26,1.24c.46-.25.62-.08.48.5a3.91,3.91,0,0,1,.36,1,.85.85,0,0,1-.11.64,1,1,0,0,0-.17.45c0,.11.05.11.13,0a1,1,0,0,1,.5-.27,1.45,1.45,0,0,1,.2.68.63.63,0,0,1-.25.44,1,1,0,0,0-.29.58c0,.11.06.16.17.16l.33-.09c.17,0,.18.11,0,.41a6.77,6.77,0,0,0-.38.81,1.66,1.66,0,0,0-.12.54c0,.28-.06.45-.15.5a5.3,5.3,0,0,0,0-1.12,10.88,10.88,0,0,0-.23-1.3,2.63,2.63,0,0,0,.41-.87c.09-.25.07-.28-.06-.1a1.46,1.46,0,0,1-.4.69c-.14-.46-.29-1-.45-1.67a2.69,2.69,0,0,0,.36-1.16c0-.4,0-.43-.08-.09a2.37,2.37,0,0,1-.41,1.09c-.16-.52-.33-1-.51-1.46a3.66,3.66,0,0,0,.07-.91c0-.35,0-.36-.09,0a2.22,2.22,0,0,1-.09.67l-.41-1-.26-.59q-.13-.3-.09,0l.24.78a2.65,2.65,0,0,0-.52-.47c-.16-.09-.19-.09-.09,0a5,5,0,0,1,.7.76c.16.4.32.8.48,1.22a3.47,3.47,0,0,0-1-.66c-.23-.09-.23-.05,0,.13a5.71,5.71,0,0,1,1.18,1.11L31.13,12a3.36,3.36,0,0,1-.85-.81c-.15-.15-.16-.12,0,.07a5.45,5.45,0,0,0,.94,1.08l.28,1.13a6,6,0,0,0-1.11-.87c-.2-.13-.21-.1,0,.07a5.93,5.93,0,0,1,1.24,1.26,6.07,6.07,0,0,1,.17,1.9c0,.24-.18.41-.52.52v0l-.07.85-.46,0Zm.6.87a2.75,2.75,0,0,1,.41,0c-.18.93-.38,2-.54,2.6l-.26-.15A14.64,14.64,0,0,0,30.72,17.3Zm-3.28,5.27-.62-.5c-.31-.28-.41-.52-.3-.75a2.73,2.73,0,0,1-.23-.38.42.42,0,0,1,.05-.44c.1-.14.33-.07.68.2a1,1,0,0,0,0-.6,4.2,4.2,0,0,0-.22-.55,6.89,6.89,0,0,0-.46-.76,1.42,1.42,0,0,1-.13-.35l0-.13h0c.07,0,.19,0,.35.15.31-.34.51-.43.61-.29a1.86,1.86,0,0,1,.24.71,3.29,3.29,0,0,1,0,1l-.08.07.08.08a3.34,3.34,0,0,1-.1.83.46.46,0,0,0,.1.29h0a1,1,0,0,1,0-.33c0-.06.05-.2.12-.43a2.52,2.52,0,0,0,.1-.39s0-.05-.09-.06a.23.23,0,0,0,.16-.16.3.3,0,0,0,0-.21,4.27,4.27,0,0,1,0-.58,2.55,2.55,0,0,0-.1-.73c-.05-.17-.08-.3-.1-.39s-.08-.14-.22-.15-.33.12-.57.4a3.4,3.4,0,0,1,.34-1.06c.12-.18.24-.23.36-.16a.61.61,0,0,1,.24.24c0,.09.09.07.17-.05S28,17,28,17a.81.81,0,0,1,.16.23,1.12,1.12,0,0,1,.12.35,5.17,5.17,0,0,1,.06.67.28.28,0,0,1,0,.09,1,1,0,0,1-.1.54l0,0a.64.64,0,0,0-.14.41c0,.64.07,1,.14,1a.53.53,0,0,0,.27-.15.33.33,0,0,1,.28-.1c.06,0,.11.14.13.36,0,.05,0,.11,0,.18,0,.33,0,.36.09.1s.14-.4.28-.4.16.36.07,1.07a7.92,7.92,0,0,0-1,1.08.94.94,0,0,1,0-.65,2,2,0,0,0,.18-.42c.06-.15.1-.29.14-.41l0-.1c.06-.19,0-.19-.07,0v0l-.2.39a2.79,2.79,0,0,1-.19.33,6.73,6.73,0,0,0-.18-.8L28,20.53c-.11-.35-.14-.34-.1,0l0,.21c.08.51.14,1,.17,1.47a4.76,4.76,0,0,0-.64-.57l-.15-.12a3.89,3.89,0,0,1-.41-.4c-.14-.09-.16-.07-.08,0a4.29,4.29,0,0,0,.43.47l.23.22a6.1,6.1,0,0,1,.53.53.75.75,0,0,1,.11.22,5,5,0,0,1-.39.46L27.63,23a.36.36,0,0,1-.07-.19A.38.38,0,0,0,27.44,22.57Zm-1,1.85c.16,0,.38.08.33.22s-.12.35-.25.37-.36-.16-.36-.32A.28.28,0,0,1,26.42,24.42Zm-5.61,4.91a2.44,2.44,0,0,1,.57-.46,13,13,0,0,1,2.09-.9.13.13,0,0,1,.17.05l.15.19-.21.13a.7.7,0,0,1-.46.13,1.44,1.44,0,0,0-.65.15c-.27.12-.42.28-.44.49a.45.45,0,0,1-.2.28l-.74.39-.58,0Zm1.48.13a.41.41,0,0,1,.22-.5,1,1,0,0,1,.65-.18c.1,0,.1.19,0,.54-.08.17-.44.38-1.1.62l-.61-.07.65-.37.17.26h.09Zm-3.55.1.18.17-.41-.19Zm-6.32-1.65a.45.45,0,0,1,.4,0l.88.42,1.52.58a6.14,6.14,0,0,1,.69.81c-.31,0-.65.06-1,.07l-.8-.55-.7-.83a1.4,1.4,0,0,0-.43-.37A.62.62,0,0,0,12.5,28c-.08,0-.18.14-.28.37l0,0C12.24,28.09,12.31,28,12.42,27.91Zm.86.8a.59.59,0,0,1-.52,0l-.3-.23q.15-.36.39-.24l.3.26ZM10.06,18.27a10.09,10.09,0,0,1-.16,1.17q-.09.42-.21.9A8.48,8.48,0,0,0,9.6,19l.08-.23.09-.24c0-.16,0-.16-.1,0l0,.06-.08.14,0-.37,0,0L9.82,18C10,17.79,10.09,17.89,10.06,18.27Zm-.28-1c.16,0,.19,0,.1.23L9.52,18a3.48,3.48,0,0,0,0-.36,1.1,1.1,0,0,1,0-.18A3.24,3.24,0,0,1,9.78,17.27Zm-1.46.87c.26-1,.51-1.56.74-1.62a8,8,0,0,1,.33,2,12.71,12.71,0,0,1,0,2.62,5.25,5.25,0,0,1-.49,2l-.24.52c0-.54,0-1,0-1.41,0-.15,0-.28,0-.41v-.05q0-.72.06-1.92c0-.79.07-1.69.16-2.71,0-.24,0-.3,0-.16a23.41,23.41,0,0,0-.35,3.94v1.53l0,.93v0l-.24-.28a.69.69,0,0,1,0-.13,1.77,1.77,0,0,1,0-.2A12.63,12.63,0,0,1,8,20.75c0-.11,0-.22,0-.33A14.57,14.57,0,0,1,8.32,18.14Zm-1.63,3.1a4.6,4.6,0,0,1,.23-.78,8.56,8.56,0,0,1,1.16-2,6.75,6.75,0,0,0-.2,1.13c-.25.43-.47.86-.67,1.29a13.3,13.3,0,0,0-.59,1.5,7.6,7.6,0,0,0-.18,1A7.41,7.41,0,0,1,6.69,21.24ZM7.9,22.79l-.41-.52.3-.74A5,5,0,0,0,7.9,22.79ZM16.31,2.85a1.17,1.17,0,0,1-.42.77,7,7,0,0,1-1.62,1.09c-.65.34-1.49.73-2.53,1.19V5.79a31,31,0,0,1,3.5-2.3c.28-.17.26-.22-.07-.14S14.39,3.76,14,4L11.78,5.45l0-.22a13.21,13.21,0,0,1,3.46-2.38A1.85,1.85,0,0,1,16.31,2.85Zm-4.17.44A7.29,7.29,0,0,1,14.56,2a4.18,4.18,0,0,1,1.18-.16c.16,0,.2.13.13.28l-.41.53A4.66,4.66,0,0,0,14,3.25a14.7,14.7,0,0,0-2,1.43l-.25.16c-.14-.1-.39,0-.74.13a22.11,22.11,0,0,1,3-2.16,3.77,3.77,0,0,0,.94-.57,6.18,6.18,0,0,0-1.15.5A24.89,24.89,0,0,0,11.3,4.4l-1.09,1A11.57,11.57,0,0,1,12.14,3.29ZM11,5.34a.69.69,0,0,1,.41-.13,1.15,1.15,0,0,1,0,.51A7.24,7.24,0,0,1,11,7.08l-.14.28-.23.44-.32.61a2.67,2.67,0,0,0-1.37.67c.23-.38.49-.82.81-1.31s.8-1.24,1.47-2.22c.11-.19.11-.24,0-.14a8.57,8.57,0,0,0-.84,1.06A33.41,33.41,0,0,0,8.53,9.34a1.4,1.4,0,0,0-.12.18l-.06.09-.09.14,0,.07-.05.08,0,.06L8,10.1l0,.08-.05.07,0,.08a.35.35,0,0,0,0,.08l-.11.16-.06.1a1.63,1.63,0,0,0-.11.17l0,0-.13.2-.06.1-.09.13c0,.09-.11.18-.17.27l0,0L7,11.72c-.06.07-.24.1-.55.12l-.61,1.79c.05.07.2,0,.46-.07a.66.66,0,0,1-.56.38l-.14-.11-.08-.27,0-.17.15,0,.65-1.65-.39-.48L6,11c.12.26.24.4.35.43.17-.33.42-.79.75-1.36A16.52,16.52,0,0,1,8.27,8.32l0-.15c0-.08,0-.09.13,0L9.3,6.82,8.54,8.14c.13.13.07.22-.16.27a13.49,13.49,0,0,0-1.81,3.13l.18.05c.11.05.22,0,.31-.14l1.13-2,1.07-2A7,7,0,0,1,11,5.34ZM7,12a10,10,0,0,0-.59,1.3l-.15,0,.39-1.2Zm-.83,2-.37,1-.26.87.09-.74.13-.54.11-.53Zm-.61-.89a10.31,10.31,0,0,1,.35-1.52l.15.19ZM8.25,6.47A9.67,9.67,0,0,1,9.17,5c.13-.28.06-.28-.2,0A20.35,20.35,0,0,0,6.86,8.6l.35-.89A14.35,14.35,0,0,1,7.8,6.37a9.44,9.44,0,0,1,1-1.66c.32-.4.55-.67.67-.79q.66-.57.78-.54a.22.22,0,0,1,0,.24L9.38,6A24.13,24.13,0,0,1,7.05,9.54l-.76.85a2.76,2.76,0,0,0-.24.35l.07-.31.35-.55A35.41,35.41,0,0,0,8.25,6.47ZM5.75,20a.88.88,0,0,0-.08-.47,1,1,0,0,1-.17-.34c0-.17-.14-.41-.25-.74A7,7,0,0,1,5,17.55H5a1.39,1.39,0,0,1-.72-.75,8.26,8.26,0,0,1-.42-1.38,7.81,7.81,0,0,1-.15-2,16.45,16.45,0,0,1,.4-2.74A8.64,8.64,0,0,1,6,7.14c.21-.24.34-.29.39-.17a6.82,6.82,0,0,1,0,1.43A8.94,8.94,0,0,1,6,10q-.72,2.4-.87,3.24c-.19.65-.39,1.5-.61,2.55a12.69,12.69,0,0,1,.17-3.19,12.37,12.37,0,0,1,.83-3.47c.16-.36.15-.41,0-.17a12.73,12.73,0,0,0-1.31,5.68,6.33,6.33,0,0,0,.14,1.9c.13.39.27.61.43.67a.24.24,0,0,0,.28,0c.07-.46.12-.84.14-1.13s.06-.63.11-1a3.37,3.37,0,0,1,.23-1l.07.07a7.11,7.11,0,0,0-.19,1.19c0,.22,0,.44,0,.66s0,.65-.07,1.28q.23-.76.48-1.44l.57-1.67.51-1.2.23-.56h0c.07-.14.15-.29.24-.44l.12-.22.14-.23,0,0,.12-.2c.06-.1.12-.2.19-.3s.15-.23.23-.35l.06-.09.57-.83c.12-.13.23-.25.34-.35l.11-.1.05,0,.08-.07L9.46,9l0,0,.12-.07.06,0,.06,0h0l.06,0H10a.71.71,0,0,1,.06.4h0v.11s0,.05,0,.08,0,.06,0,.09h0v.05h0a5.51,5.51,0,0,1-.44,1.2s0,0,0,0l-.06.12v0l-.14.25s0,.08-.07.13l-.15.25c-.1.17-.21.33-.31.49l-.07.11-.09.14,0,0,0,0-.07.11-.09.12-.09.13-.09.12L8.1,13h0L8,13.19l-.22.26-.14.15h0l-.14.15-.13.12v0l-.11.1h0l0,0,0,0,.94-1.53-.28,0,0,0a.41.41,0,0,1-.07.11l-.06.11c-.16.24-.29.45-.4.63l-.08.13-.06.11a.41.41,0,0,0-.06.11L7,13.87l0,.06q-.36.72-.72,1.35a5.58,5.58,0,0,0-.46,1c-.07.23-.23.65-.46,1.25a5.31,5.31,0,0,0,.22,1,2.37,2.37,0,0,0,.38.93.21.21,0,0,1,0,.31.92.92,0,0,0,.07.55,6.26,6.26,0,0,0,.43,1.22l-.06.19A15.93,15.93,0,0,1,5.75,20Zm-.61-5.5c-.12,1-.23,1.76-.31,2.31l-.08-.14A7.41,7.41,0,0,1,5.14,14.48ZM11,28.37l-.24-.31a.24.24,0,0,0-.3-.06c-.13.05-.23,0-.31-.22a.77.77,0,0,1-1-.22l-.61-.74-.58-1-.2-.15h0l0,0-.07,0h0a.61.61,0,0,1-.24,0H7.3l-.73-.48a9.45,9.45,0,0,1-1.11-1.9,29.29,29.29,0,0,1-1.54-3.24c-.2-.6-.33-1-.39-1.15s-.09-.16-.07,0a6.19,6.19,0,0,0,.27,1c.18.54.5,1.32,1,2.36.4.84.8,1.6,1.2,2.29a11.45,11.45,0,0,1-2-2.77,9.25,9.25,0,0,1-.81-2.37A6.05,6.05,0,0,1,3,18.34a5.6,5.6,0,0,1,0-.9c.06-.18.15-.26.26-.24s.25.18.51.53A10.57,10.57,0,0,1,4.86,20.1c.46,1.22.74,2,.84,2.41s.21.71.32,1a7.94,7.94,0,0,0,.38.87,2.48,2.48,0,0,0,.66.9l.13.09.07,0,0,0,.05,0h.26l0,0,0,0,0,0-.5-1c-.08-.19-.07-.37-.25-.32l.07.12a.3.3,0,0,0-.21,0H6.75a.25.25,0,0,1-.13,0l-.08-.06,0,0v0a.08.08,0,0,1,0,0s0,0,0-.06a.11.11,0,0,0,0-.05v-.06h0v-.06a.15.15,0,0,0,0-.07q0-.33.24-1.14c0-.07,0-.14.07-.22l0-.1,0-.1a2,2,0,0,0,.08-.22c0-.07,0-.15.08-.22H7l0-.1a.76.76,0,0,0,0-.11h0a1.8,1.8,0,0,1,.08-.21L7.26,21l.1-.21h0l.12-.25a2,2,0,0,1,.13-.25h0v0l0,0v0c0-.05,0-.09.07-.13l.15-.27q-.06.42-.09.75v.25c-.46,1-.79,1.85-1,2.48-.11.45-.11.67,0,.66L7,23.88l-.11-.26.08-.2.22.38.13-.09.11.17L7.27,24l.83,1.21.2-.17.15.17c-.25.24-.34.4-.3.48a9.58,9.58,0,0,0,.62,1c.37.54.67.69.9.46.08-.06.17-.05.28,0a1.63,1.63,0,0,1,.37.55l0-.42-.68-.65-.39-.78q-.48-.68-.69-1.05c-.13-.25-.3-.54-.51-.89s-.45-.73-.74-1.16l0-.21.59.72a17.87,17.87,0,0,1,1.12,1.55c.22.35.34.43.38.25l.11-.35.17.09-.11.72,0,.22c0,.17,0,.28.1.31s.15.14.22.34a3,3,0,0,0,.58.77,6.29,6.29,0,0,0,1.11,1l1,.64c.25.17.37.33.36.49l.35.08L13.15,29l.22-.05a.84.84,0,0,1,.28.41c.32.24.6.44.83.59l-.81.15-1.39-.84ZM7.6,24l.11-.11.52.87-.06.11Zm.87,1.74.2-.26.48.69.28.5.09.28a1.26,1.26,0,0,1-.44-.39l-.3-.39Zm4.27,4.46-1.11.19.26-.74Zm2.65,3.46a13.41,13.41,0,0,1-1.76,1.44l-.22-.07c.38-.24.92-.62,1.63-1.15l.31-.35-.16,0c-.24.21-.51.42-.81.64a7.28,7.28,0,0,1-1.05.62l-.53.26.09.11.41.06c.23.14.33.29.29.44s-.32.21-.59.07l-.44-.24a1.38,1.38,0,0,0-.48-.33L11.89,35l.08-.18.55.22h.17l-.1-.33.67-.41c.17-.06.25-.17.22-.31l.06-.34a1.41,1.41,0,0,0,.92-.14,3.12,3.12,0,0,1,.95-.27C15.59,33.4,15.59,33.54,15.39,33.7Zm-.45-.77-1.73.38c-1.3.24-2.58.43-3.83.58A21.94,21.94,0,0,1,6.6,32.46a14.08,14.08,0,0,1-2.27-1.59c-.5-.53-.69-.85-.6-1a5.35,5.35,0,0,0,.65-1.41.86.86,0,0,0,0-.4c-.14-.42,0-.64.29-.65a15.38,15.38,0,0,1,1.67,0c.12,0,.2,0,.24-.11l.28-.56-.17-.07L6.49,27l0-.42c0-.07,0-.08.11-.06.52.14.76.31.72.52a1.68,1.68,0,0,0-.22.92l0,1A14.17,14.17,0,0,0,5,27.82l.3,0a.26.26,0,0,0,.22-.12c0-.07,0-.12-.2-.13a1.86,1.86,0,0,0-.74.09c-.09.1-.07.21,0,.32A23.46,23.46,0,0,1,7,29.28C8,30,8.88,30.51,9.47,30.94a21,21,0,0,0,2.44-.24l1.59-.29c.65-.13,1.33-.23,2-.32.25,0,.58-.06,1-.07a8.9,8.9,0,0,0,1.09-.09,5.15,5.15,0,0,1,.59,1.59q.06.35-.09.39A27.37,27.37,0,0,1,14.94,32.93Zm4.74-.6L19.59,32l-.5.62-.41.26a.66.66,0,0,1-.57.19l-.65-.32.33-.16.09.07c-.06.19,0,.16.23-.07l.57-.56a2.8,2.8,0,0,0-.24-1.28,5.09,5.09,0,0,0-.44-1c0-.11-.31-.14-.85-.08a1.43,1.43,0,0,1,1.12,0l.45.18.24-.1.13.12a5.32,5.32,0,0,1,1.06,1.39,1.26,1.26,0,0,1,0,.72C19.94,32.31,19.78,32.42,19.68,32.33Zm2,2.63c-.11-.09-.15-.17-.1-.26L22,35C21.9,35.06,21.81,35,21.7,35Zm2.4,0,.2,0-.07.09-.48.15a1.57,1.57,0,0,1-.74.37l-.31,0-.08-.23a.67.67,0,0,1,.29-.24,1.92,1.92,0,0,1,.45-.12l.45.07Zm-.68-.21a1.13,1.13,0,0,0-.63.11h-.26a5.58,5.58,0,0,1-.85-.68l-.87-.69a1.74,1.74,0,0,1,1,.1ZM26.06,31a2.21,2.21,0,0,0,.82-.05,11,11,0,0,0,2.05-1.52,13.33,13.33,0,0,1,2.53-1.57q.32-.18,0-.27a3.61,3.61,0,0,0-.86-.08c-.12.1-.11.18,0,.24a.77.77,0,0,1,.37,0A13.35,13.35,0,0,0,29,29.11c0-.28.09-.77.13-1.46a1.05,1.05,0,0,0-.23-.59c-.08-.12,0-.23.36-.33l.25-.08v.41L29.13,27l0,.18a.58.58,0,0,0,.41.28l1,.06.45,0c.52,0,.77.14.76.38a2.1,2.1,0,0,0,0,.67A3.79,3.79,0,0,0,32.46,30a2.36,2.36,0,0,1-.48.77l-1,.63c-.83.6-1.95,1.37-3.37,2.32a24,24,0,0,1-7.17-1l-.3-.08.13-.12a2.06,2.06,0,0,0,.34-.55,1.91,1.91,0,0,0-.09-.63,3,3,0,0,0-.7-1.16v-.11l.28,0a11.62,11.62,0,0,1,2.05.29,21.39,21.39,0,0,0,2.13.41Q25.52,31,26.06,31Zm-1.39-.49-1.55-.28.65-.22c.34.07.54,0,.59-.22A1.84,1.84,0,0,0,24.67,30.54Zm3.87-5.46a.84.84,0,0,0-.24.85,3.87,3.87,0,0,0-1,.81,9.3,9.3,0,0,0-.73.91,1,1,0,0,1-.53.45.73.73,0,0,1-.72-.15l-.07.46L24,29.17l-.61.26a2.11,2.11,0,0,0,.09-.63l.22-.19c.85-.44,1.35-.85,1.48-1.22a3.64,3.64,0,0,1,.56-.77,1.75,1.75,0,0,0,.42-.74l0-.45L26.14,25c.19.22.37.27.53.15a13.29,13.29,0,0,1,.83-1.34,12.25,12.25,0,0,1,.95-1.16l.85-.91,0,.47A18,18,0,0,0,27.89,24a13.55,13.55,0,0,0-1.27,2.26A1.76,1.76,0,0,1,26,27a1.43,1.43,0,0,0-.44.32c-.09.16,0,.2.15.13a1.11,1.11,0,0,1,.41-.28,9.09,9.09,0,0,0,1.73-1.93v-.64l.2-.35c0,.35,0,.55.09.59s.18-.07.31-.31.44-.9.95-2a1.25,1.25,0,0,0,0,.87.92.92,0,0,0-.24,1.08ZM32.69,21a1.72,1.72,0,0,1-.3.8c-.51.58-.72.92-.63,1a.73.73,0,0,1-.08.79,10.63,10.63,0,0,1-1.07,1.11c.13.25,0,.46-.28.63a7.11,7.11,0,0,1-1.18.52,3.73,3.73,0,0,0,1.48-1.94,2.34,2.34,0,0,1,.69-.47q.25-.16.09-.15a3.56,3.56,0,0,0-.71.41,5.43,5.43,0,0,0,.5-1.52,4.06,4.06,0,0,0,.91-1.11c.17-.25.18-.31,0-.16a4.77,4.77,0,0,1-.85,1,18.27,18.27,0,0,0,.46-1.78c.06-.38,0-.45-.06-.2l-.18.65a1.7,1.7,0,0,0-.3-.59l.24.77a8.84,8.84,0,0,1-.35,1.32,5.28,5.28,0,0,0-.68-1.34c-.26-.32-.3-.32-.13,0a5.19,5.19,0,0,1,.7,1.6,7,7,0,0,1-.52,1.48,1.34,1.34,0,0,0-.46-.46c-.12-.06-.12,0,0,.11a2.74,2.74,0,0,1,.39.48,3.36,3.36,0,0,1-.58.95,5.54,5.54,0,0,1-.71.68A2.05,2.05,0,0,0,29.39,24c0-.09.08-.17.23-.24s.21-.13.16-.2a1.5,1.5,0,0,1-.2-.65A.64.64,0,0,1,30,23c.16-.11.14-.27-.05-.47a1.55,1.55,0,0,1-.36-.88q0-.33.45-.24c.13,0,.15-.17,0-.48l-.31-.42c-.22-.5-.13-.68.28-.54l.48.3c.32.12.47-.1.46-.65,0-.12.1-.15.29-.09s.36-.07.52-.43c.16-.17.29,0,.37.48,0,.65.13,1,.49.93C32.73,20.49,32.74,20.67,32.69,21Zm.56-1.59a.34.34,0,0,1-.09.31.9.9,0,0,1-.42.21l-.2-.37a1.28,1.28,0,0,0-.3-.85,1.5,1.5,0,0,1,.41-.22c.13-.06.11-.08-.08-.06a1.77,1.77,0,0,0-.46.15h0a3.78,3.78,0,0,1,.54-1.13c.06-.16,0-.15-.11,0a6.85,6.85,0,0,0-.56.94.75.75,0,0,1-.16-.4c-.05-.24-.09-.24-.11,0a1.64,1.64,0,0,0,.16.61c-.27.42-.48.59-.64.5.09-.59.22-1.22.38-1.87.29-.28.53-.38.74-.28.3-.23.55-.27.76-.13a1,1,0,0,1,.15.55,1.43,1.43,0,0,1-.19.6c.24,0,.36.09.38.28a1.35,1.35,0,0,1-.6.9C33.08,19.17,33.23,19.26,33.25,19.38Z"/><path class="abfb91ff-b53a-4201-a8c3-c82ffb688cf5" d="M15.83,32.41a.69.69,0,0,0,.45-.25l.08.12-.09-.62,0,0c0,.34-.07.58-.36.67s-.59-.36-.68-.78,0-.91.41-.95c.24-.05.45.16.54.45h0l-.09-.53h0v.12a.65.65,0,0,0-.5-.07c-.45,0-.69.5-.64,1s.46.86.92.77"/><path class="abfb91ff-b53a-4201-a8c3-c82ffb688cf5" d="M20.75,30.6v.09c.08,0,.17,0,.17.12s0,.25,0,.33l-.11.79a.8.8,0,0,1-.08.33c0,.08-.12.08-.21.08v0a1,1,0,0,0,.34,0c.12,0,.2,0,.33.08v-.08c-.09,0-.17,0-.17-.12a1.11,1.11,0,0,1,0-.34l.07-.78c0-.09,0-.25.08-.33s.16-.09.2-.09l.05,0c-.13,0-.25,0-.38,0a1.3,1.3,0,0,1-.33-.08"/><path class="abfb91ff-b53a-4201-a8c3-c82ffb688cf5" d="M14.3,31c0,.09,0,.25,0,.33l.13.79c0,.08,0,.25,0,.33s-.08.13-.17.13v0a1,1,0,0,0,.33-.05H15v-.09c-.08,0-.16,0-.21-.08a.75.75,0,0,1-.08-.32l-.09-.79a.76.76,0,0,1,0-.33.23.23,0,0,1,.16-.13v0c-.08,0-.2.05-.33.05a1.08,1.08,0,0,0-.33,0l0,0a.27.27,0,0,1,.21.08"/><path class="abfb91ff-b53a-4201-a8c3-c82ffb688cf5" d="M5.32,29.73a.43.43,0,0,0,.62-.13c.2-.29,0-.49-.18-.66a.87.87,0,0,0-.2-.16c-.13-.08-.21-.16-.34-.24v.08s.13.08.09.16a3,3,0,0,1-.21.3l-.44.62a.88.88,0,0,1-.25.29c-.08.05-.12,0-.21,0l0,0a.79.79,0,0,1,.3.2c.08,0,.16.12.25.16l0,0c-.09,0-.13-.08-.13-.16s.16-.25.2-.34L5,29.57c.08.08.08.08.08.21l0,.66,0,.21s.12,0,.17.08l.12.12,0,0c-.08-.08-.08-.12-.08-.25Zm-.21-.24.36-.5s0,0,.09,0a.58.58,0,0,1,.12.08c.13.08.13.28,0,.45s-.37.17-.58,0"/><path class="abfb91ff-b53a-4201-a8c3-c82ffb688cf5" d="M12.5,32.11a.48.48,0,0,0-.34-.08.41.41,0,0,0,.29-.45c0-.34-.34-.38-.59-.33-.08,0-.16.05-.24.05a1,1,0,0,0-.34,0v0c.09,0,.17,0,.21.08a.67.67,0,0,1,.09.33l.09.79c0,.08.05.25.05.33s-.12.12-.17.12v.09a1,1,0,0,1,.37-.09c.08,0,.2,0,.24-.05a.54.54,0,0,0,.42-.13.56.56,0,0,0,.16-.41.73.73,0,0,0-.25-.33m-.72-.73a.19.19,0,0,0,.13-.05c.16,0,.24.08.29.29a.46.46,0,0,1-.08.33s-.12,0-.2.09h-.05l-.09-.54Zm.43,1.52c-.08,0-.16,0-.2-.08s0-.21-.09-.29l0-.37H12a.7.7,0,0,1,.29,0,.46.46,0,0,1,.17.33.32.32,0,0,1-.21.41"/><path class="abfb91ff-b53a-4201-a8c3-c82ffb688cf5" d="M12.88,32.81v0c.37,0,.78-.13,1.16-.18h.12l-.05-.5-.08,0c0,.12,0,.25-.08.33a.84.84,0,0,1-.29.13c-.29,0-.37,0-.42-.37l-.09-.78c0-.09,0-.29,0-.38s.12-.08.2-.08l0-.08a.83.83,0,0,1-.33,0,.82.82,0,0,1-.33,0l0,.08a.15.15,0,0,1,.21,0c0,.08,0,.29,0,.37l.14.74a1.15,1.15,0,0,1,0,.37c0,.09-.08.09-.16.13"/><path class="abfb91ff-b53a-4201-a8c3-c82ffb688cf5" d="M11.18,32.29a.83.83,0,0,0-.33,0,.38.38,0,0,0,.24-.45.45.45,0,0,0-.58-.37.54.54,0,0,1-.29.05.75.75,0,0,1-.29,0v.09c.08-.05.16-.05.21,0s0,.28,0,.37l.14.74c0,.08,0,.29,0,.37s-.12.08-.2.13v0c.16,0,.24,0,.41,0a.62.62,0,0,1,.29,0,.57.57,0,0,0,.37-.13.51.51,0,0,0-.05-.79m-.8-.61V31.6a.22.22,0,0,1,.13,0c.2,0,.29.08.33.28s0,.21-.08.3-.12.08-.2.08l-.08,0Zm.48,1.4c-.08.05-.17.05-.21,0a1.48,1.48,0,0,1-.09-.33l0-.34h0a.47.47,0,0,1,.33,0c.12,0,.17.16.21.29s0,.41-.24.41"/><path class="abfb91ff-b53a-4201-a8c3-c82ffb688cf5" d="M17,32.19v-.08c-.08,0-.21,0-.21-.08s0-.29,0-.41v-.09l.53-.09.17.29a1,1,0,0,1,0,.16c0,.13-.08.13-.12.17v0c.08,0,.2,0,.33,0a.56.56,0,0,1,.28-.05v-.08a.3.3,0,0,1-.2,0,2.75,2.75,0,0,1-.17-.29L17,30.33H17l-.2,1.12c0,.17,0,.33-.07.54a.27.27,0,0,1-.2.21v0a.51.51,0,0,0,.24,0Zm0-1.48.34.66-.45.05Z"/><path class="abfb91ff-b53a-4201-a8c3-c82ffb688cf5" d="M27.73,32.59a.23.23,0,0,1-.08.29l0,0a1.3,1.3,0,0,1,.21-.12,2.26,2.26,0,0,1,.2-.13l0,0s-.16.08-.2,0a1.45,1.45,0,0,1-.09-.41l0-.08.49-.26.21.17c.08,0,.12.12.16.16s0,.16-.12.17l.05.08a.84.84,0,0,1,.28-.17,1,1,0,0,1,.29-.17l0,0a.36.36,0,0,1-.21,0,1.36,1.36,0,0,1-.25-.2l-1.09-.94h-.08l.22,1.12a2,2,0,0,1,.09.53m.41-.79-.42.21-.13-.7Z"/><path class="abfb91ff-b53a-4201-a8c3-c82ffb688cf5" d="M28.51,30.55l.59.82a1.61,1.61,0,0,1,.21.29c.05.13,0,.17-.08.25l0,0a1.42,1.42,0,0,1,.21-.17.4.4,0,0,0,.2-.16v-.05a.26.26,0,0,1-.25.05,1.68,1.68,0,0,1-.25-.29l-.55-.73,1.5.47a.66.66,0,0,0,.25.08l0,0-.67-.9c-.09-.12-.25-.33-.3-.41s0-.12.08-.21l0,0a.3.3,0,0,0-.16.17l-.25.12,0,.05c.13-.05.17-.09.29,0s.17.25.25.33l.47.61-1.62-.51a.33.33,0,0,1-.17.08c0,.08-.08.09-.16.13l0,.08a.24.24,0,0,1,.29-.05"/><path class="abfb91ff-b53a-4201-a8c3-c82ffb688cf5" d="M8.24,31.28a.43.43,0,0,0-.18-.66,2.13,2.13,0,0,0-.25-.16c-.08-.09-.21-.13-.29-.21l0,0c.08,0,.17.08.13.21a1.82,1.82,0,0,0-.21.29l-.4.63a.88.88,0,0,1-.25.29c0,.08-.12,0-.2,0v.08c.08,0,.16.12.25.16a2.77,2.77,0,0,1,.29.21l0,0C7.05,32,7,32,7,31.87a1.25,1.25,0,0,1,.16-.33l.21-.25s.08.08.12.08a.48.48,0,0,0,.75-.09M8,31.16c-.12.2-.29.25-.46.13s-.08,0-.08-.09l.32-.5c.09-.12.09-.12.17,0a.31.31,0,0,1,0,.5"/><path class="abfb91ff-b53a-4201-a8c3-c82ffb688cf5" d="M30.62,30.64c0,.13,0,.17-.08.25l.05.08c0-.08.12-.12.16-.16l.21-.13-.05-.08s-.12.12-.2,0a1,1,0,0,1-.13-.41l0,0,.46-.34.25.16a1.83,1.83,0,0,0,.16.13c.05.08,0,.16-.07.2l0,.05c.08-.09.16-.13.24-.22a.88.88,0,0,1,.25-.16v-.09a.26.26,0,0,1-.25,0,.88.88,0,0,1-.25-.16L30.15,29l0,.05.34,1.07a4,4,0,0,0,.17.53m.28-.87-.37.3-.25-.71Z"/><path class="abfb91ff-b53a-4201-a8c3-c82ffb688cf5" d="M9.37,31.41v.08s.13.08,0,.21a6.13,6.13,0,0,1-.44.46l-.54.42.15-.71c.05-.12.17-.54.21-.62s.16-.05.2,0l0-.05A1.57,1.57,0,0,1,8.74,31c-.08,0-.17-.12-.25-.16l0,0c.12.13.09.25.05.42l-.36,1.49.09,0L9.29,32c.17-.13.33-.34.5-.22v0a1.3,1.3,0,0,0-.21-.12,1.67,1.67,0,0,1-.21-.16"/><path class="abfb91ff-b53a-4201-a8c3-c82ffb688cf5" d="M25.77,33.22l.12-.5H25.8c0,.16,0,.24-.2.33s-.21,0-.33,0-.29-.12-.26-.45l.12-.79c0-.08,0-.29.08-.37s.16,0,.21,0l0-.09a1,1,0,0,1-.37,0c-.08,0-.21,0-.29,0l0,0a.25.25,0,0,1,.21.12c0,.09,0,.29,0,.38l-.11.74a1.4,1.4,0,0,0-.08.33.29.29,0,0,1-.25.09v0c.42.08.79.11,1.21.19,0,0,.08,0,.08,0"/><path class="abfb91ff-b53a-4201-a8c3-c82ffb688cf5" d="M6.61,31.27c-.2.21-.33.17-.54,0a.28.28,0,0,1-.17-.24c0-.08.08-.17.12-.25l.25-.38c.21.13.29.21.13.46l0,0a2.43,2.43,0,0,0,.2-.29c.05-.09.13-.17.21-.3h0c-.13.13-.25.26-.5,0l.37-.54c.08-.08.08-.08.12,0l.12.08c.21.16.3.24.13.49l0,0,.24-.33-.88-.61-.08,0c.08,0,.17.08.13.21a1.82,1.82,0,0,0-.2.29l-.41.58-.25.3a.18.18,0,0,1-.2,0l0,0,1,.73.24-.37Z"/><path class="abfb91ff-b53a-4201-a8c3-c82ffb688cf5" d="M24.15,32.8c0-.08,0-.25-.08-.33l-.27-1.4-.08,0-.49,1-.24.5c-.08.12-.12.16-.25.17l0,0c.09,0,.17,0,.25,0a1.9,1.9,0,0,1,.25,0v0s-.16,0-.17-.16l.16-.38,0-.08.58.08,0,.28v.25c0,.09-.12.05-.16.05l0,.08a.83.83,0,0,1,.33,0c.13,0,.25,0,.33,0v0c-.08,0-.12,0-.17-.12m-.83-.73.32-.67.13.74Z"/><path class="abfb91ff-b53a-4201-a8c3-c82ffb688cf5" d="M23,31.35l0,0L23.1,31l-1.41-.23-.08.42.08,0c0-.33.12-.33.37-.29.08,0,.21,0,.17.07l-.15,1.29c0,.21-.08.25-.33.25v0a1.23,1.23,0,0,0,.38,0,1.23,1.23,0,0,0,.37.08v0c-.21-.08-.21-.12-.21-.33L22.48,31c0-.08.12,0,.25,0s.29.12.25.37"/><path class="abfb91ff-b53a-4201-a8c3-c82ffb688cf5" d="M26.51,31.59c0,.05,0,.25,0,.33l.06.79c0,.08,0,.25,0,.33s-.12.12-.17.12v.05a1.33,1.33,0,0,0,.34-.05h.33v0c-.09,0-.17,0-.21-.08a1.22,1.22,0,0,1,0-.37l-.09-.75v-.37c0-.09.13-.09.21-.09v-.08a2.32,2.32,0,0,0-.33.05H26.3v.08c.08,0,.17,0,.21.08"/><path class="abfb91ff-b53a-4201-a8c3-c82ffb688cf5" d="M3.49,42.81h.44V47H6.05v.4H3.49Z"/><path class="abfb91ff-b53a-4201-a8c3-c82ffb688cf5" d="M6.44,42.74h.47l-.37,1.12H6.19Z"/><path class="abfb91ff-b53a-4201-a8c3-c82ffb688cf5" d="M10.21,45.92H8.37l-.52,1.45H7.38l1.67-4.56h.48l1.68,4.56h-.48Zm-.92-2.64s-.1.38-.18.59L8.5,45.53h1.57l-.59-1.66c-.08-.21-.18-.59-.18-.59Z"/><path class="abfb91ff-b53a-4201-a8c3-c82ffb688cf5" d="M14,42.73a2.48,2.48,0,0,1,1.62.53l-.24.34a2.25,2.25,0,0,0-1.36-.45A1.94,1.94,0,0,0,14,47a2,2,0,0,0,1.43-.67v-.77h-.78v-.4h1.21v2.18h-.42V47c0-.1,0-.2,0-.2h0a2.05,2.05,0,0,1-1.49.62,2.26,2.26,0,0,1-2.23-2.36A2.3,2.3,0,0,1,14,42.73Z"/><path class="abfb91ff-b53a-4201-a8c3-c82ffb688cf5" d="M17.09,42.81h2.57v.4H17.53v1.66h1.74v.4H17.53V47h2.24v.4H17.09Z"/><path class="abfb91ff-b53a-4201-a8c3-c82ffb688cf5" d="M20.91,42.81h.44l2.33,3.28c.15.23.38.62.38.62h0s0-.38,0-.62V42.81h.45v4.56H24l-2.33-3.28c-.15-.23-.37-.62-.37-.62h0s0,.38,0,.62v3.28h-.45Z"/><path class="abfb91ff-b53a-4201-a8c3-c82ffb688cf5" d="M25.54,47.05l2.36-3.42c.16-.24.31-.42.31-.42H25.66v-.4h3.11v.32l-2.35,3.42a3.76,3.76,0,0,1-.33.42h2.7v.4H25.54Z"/><path class="abfb91ff-b53a-4201-a8c3-c82ffb688cf5" d="M29.91,42.81h.45v4.56h-.45Z"/><path class="abfb91ff-b53a-4201-a8c3-c82ffb688cf5" d="M34.05,45.92H32.22l-.52,1.45h-.47l1.67-4.56h.48l1.67,4.56h-.47Zm-.92-2.64s-.09.38-.17.59l-.61,1.66h1.57l-.6-1.66c-.08-.21-.17-.59-.17-.59Z"/><path class="abfb91ff-b53a-4201-a8c3-c82ffb688cf5" d="M37.79,42.81h1.47a2.28,2.28,0,1,1,0,4.56H37.79ZM39.22,47a1.88,1.88,0,0,0,0-3.76h-1V47Z"/><path class="abfb91ff-b53a-4201-a8c3-c82ffb688cf5" d="M42.72,42.81h2.57v.4H43.16v1.66H44.9v.4H43.16V47H45.4v.4H42.72Z"/><path class="abfb91ff-b53a-4201-a8c3-c82ffb688cf5" d="M46.54,42.81H47V47h2.12v.4H46.54Z"/><path class="abfb91ff-b53a-4201-a8c3-c82ffb688cf5" d="M50,42.81h.45V47h2.11v.4H50Z"/><path class="abfb91ff-b53a-4201-a8c3-c82ffb688cf5" d="M53.51,42.81h2.57v.4H54v1.66h1.73v.4H54V47H56.2v.4H53.51Z"/><path class="abfb91ff-b53a-4201-a8c3-c82ffb688cf5" d="M61.46,45.92H59.63l-.52,1.45h-.48l1.68-4.56h.48l1.67,4.56H62Zm-.92-2.64s-.1.38-.17.59l-.61,1.66h1.57l-.6-1.66c-.08-.21-.18-.59-.18-.59Z"/><path class="abfb91ff-b53a-4201-a8c3-c82ffb688cf5" d="M65.28,42.73a2.35,2.35,0,0,1,1.65.59l-.24.33a2.19,2.19,0,0,0-1.39-.5,1.82,1.82,0,0,0-1.84,1.9,1.88,1.88,0,0,0,1.85,2,2.14,2.14,0,0,0,1.48-.61l.26.32a2.43,2.43,0,0,1-1.75.71A2.3,2.3,0,0,1,63,45.06,2.27,2.27,0,0,1,65.28,42.73Z"/><path class="abfb91ff-b53a-4201-a8c3-c82ffb688cf5" d="M70.09,42.73a2.31,2.31,0,0,1,1.64.59l-.24.33a2.14,2.14,0,0,0-1.38-.5,1.82,1.82,0,0,0-1.84,1.9,1.88,1.88,0,0,0,1.85,2,2.14,2.14,0,0,0,1.48-.61l.26.32a2.45,2.45,0,0,1-1.75.71,2.3,2.3,0,0,1-2.31-2.39A2.27,2.27,0,0,1,70.09,42.73Z"/><path class="abfb91ff-b53a-4201-a8c3-c82ffb688cf5" d="M73,42.81h.45v4.56H73Z"/><path class="abfb91ff-b53a-4201-a8c3-c82ffb688cf5" d="M74.78,46.52A1.76,1.76,0,0,0,76,47a.82.82,0,0,0,.91-.79c0-1.15-2.28-.86-2.28-2.27A1.31,1.31,0,0,1,76,42.73a1.78,1.78,0,0,1,1.22.44l-.22.38a1.55,1.55,0,0,0-1-.39.87.87,0,0,0-1,.78c0,1.09,2.28.78,2.28,2.28A1.26,1.26,0,0,1,76,47.45a2,2,0,0,1-1.45-.59Z"/><path class="abfb91ff-b53a-4201-a8c3-c82ffb688cf5" d="M78.46,42.81H81v.4H78.91v1.66h1.73v.4H78.91V47h2.24v.4H78.46Z"/><path class="abfb91ff-b53a-4201-a8c3-c82ffb688cf5" d="M82.23,46.84h.49L82.24,48h-.38Z"/><path class="abfb91ff-b53a-4201-a8c3-c82ffb688cf5" d="M85.87,42.81h1.47a2.28,2.28,0,1,1,0,4.56H85.87ZM87.29,47a1.88,1.88,0,0,0,0-3.76h-1V47Z"/><path class="abfb91ff-b53a-4201-a8c3-c82ffb688cf5" d="M92.8,42.73a2.31,2.31,0,0,1,2.33,2.33,2.33,2.33,0,1,1-4.65,0A2.3,2.3,0,0,1,92.8,42.73Zm0,4.3a1.9,1.9,0,0,0,1.86-2,1.86,1.86,0,1,0-3.71,0A1.89,1.89,0,0,0,92.8,47Z"/><path class="abfb91ff-b53a-4201-a8c3-c82ffb688cf5" d="M98.25,42.73a2.45,2.45,0,0,1,1.62.53l-.24.34a2.25,2.25,0,0,0-1.36-.45,1.94,1.94,0,0,0,0,3.88,2,2,0,0,0,1.44-.67v-.77h-.78v-.4h1.21v2.18h-.42V47c0-.1,0-.2,0-.2h0a2,2,0,0,1-1.48.62A2.26,2.26,0,0,1,96,45.09,2.29,2.29,0,0,1,98.25,42.73Z"/><path class="abfb91ff-b53a-4201-a8c3-c82ffb688cf5" d="M103.55,45.92h-1.83l-.52,1.45h-.47l1.67-4.56h.48l1.67,4.56h-.47Zm-.92-2.64s-.09.38-.17.59l-.61,1.66h1.57l-.6-1.66c-.08-.21-.17-.59-.17-.59Z"/><path class="abfb91ff-b53a-4201-a8c3-c82ffb688cf5" d="M105.42,42.81h.44l2.33,3.28c.15.23.37.62.37.62h0s0-.38,0-.62V42.81H109v4.56h-.43l-2.33-3.28c-.15-.23-.38-.62-.38-.62h0s0,.38,0,.62v3.28h-.45Z"/><path class="abfb91ff-b53a-4201-a8c3-c82ffb688cf5" d="M110.43,42.81H113v.4h-2.12v1.66h1.73v.4h-1.73V47h2.24v.4h-2.69Z"/><path class="abfb91ff-b53a-4201-a8c3-c82ffb688cf5" d="M116.13,42.81h2.57v.4h-2.12v1.66h1.73v.4h-1.73V47h2.24v.4h-2.69Z"/><path class="abfb91ff-b53a-4201-a8c3-c82ffb688cf5" d="M122.05,42.81h.46l1.2,2.68c.1.23.22.56.22.56h0s.12-.33.23-.56l1.19-2.68h.46l.37,4.56h-.45l-.25-3.19c0-.25,0-.64,0-.64h0s-.14.4-.24.64l-1.07,2.34h-.42l-1.07-2.34c-.11-.23-.25-.65-.25-.65h0s0,.4,0,.65l-.25,3.19h-.45Z"/><path class="abfb91ff-b53a-4201-a8c3-c82ffb688cf5" d="M129.5,42.73a2.3,2.3,0,0,1,2.32,2.33,2.32,2.32,0,1,1-4.64,0A2.3,2.3,0,0,1,129.5,42.73Zm0,4.3a1.9,1.9,0,0,0,1.86-2,1.86,1.86,0,1,0-3.71,0A1.89,1.89,0,0,0,129.5,47Z"/><path class="abfb91ff-b53a-4201-a8c3-c82ffb688cf5" d="M133,42.81h.44l2.32,3.28c.16.23.38.62.38.62h0s0-.38,0-.62V42.81h.45v4.56h-.43l-2.33-3.28c-.16-.23-.38-.62-.38-.62h0s0,.38,0,.62v3.28H133Z"/><path class="abfb91ff-b53a-4201-a8c3-c82ffb688cf5" d="M140,42.73a2.3,2.3,0,0,1,2.32,2.33,2.32,2.32,0,1,1-4.64,0A2.3,2.3,0,0,1,140,42.73Zm0,4.3a1.9,1.9,0,0,0,1.86-2,1.86,1.86,0,1,0-3.71,0A1.89,1.89,0,0,0,140,47Z"/><path class="abfb91ff-b53a-4201-a8c3-c82ffb688cf5" d="M143.44,42.81H145a1.31,1.31,0,0,1,1.4,1.37,1.33,1.33,0,0,1-1.4,1.4h-1.13v1.79h-.45ZM145,45.18a.92.92,0,0,0,1-1,.91.91,0,0,0-1-1h-1.07v2Z"/><path class="abfb91ff-b53a-4201-a8c3-c82ffb688cf5" d="M149.45,42.73a2.31,2.31,0,0,1,2.33,2.33,2.33,2.33,0,1,1-4.65,0A2.3,2.3,0,0,1,149.45,42.73Zm0,4.3a1.9,1.9,0,0,0,1.86-2,1.86,1.86,0,1,0-3.71,0A1.89,1.89,0,0,0,149.45,47Z"/><path class="abfb91ff-b53a-4201-a8c3-c82ffb688cf5" d="M152.91,42.81h.45V47h2.12v.4h-2.57Z"/><path class="abfb91ff-b53a-4201-a8c3-c82ffb688cf5" d="M156.4,42.81h.44v4.56h-.44Z"/></svg>