<?xml version="1.0" encoding="utf-8"?>
<!-- Generator: Adobe Illustrator 26.0.3, SVG Export Plug-In . SVG Version: 6.00 Build 0)  -->
<svg version="1.1" id="Livello_1" xmlns="http://www.w3.org/2000/svg" xmlns:xlink="http://www.w3.org/1999/xlink" x="0px" y="0px"
	 viewBox="0 0 1564.18 479.04" style="enable-background:new 0 0 1564.18 479.04;" xml:space="preserve">
<style type="text/css">
	.st0{fill:#FFFFFF;}
	.st1{fill:#009245;}
	.st2{fill:#C1272D;}
	.st3{fill-rule:evenodd;clip-rule:evenodd;fill:#FFFFFF;}
</style>
<g>
	<g>
		<g>
			<g>
				<path class="st0" d="M1167.91,361.49h88.36l11.04-161.67c2.01-27.11,0-60.24,0-60.24h1c0,0,12.05,37.66,20.08,60.24
					l37.66,103.92h75.31l37.65-103.92c8.03-22.59,20.09-60.24,20.09-60.24h1.01c0,0-2.01,33.13,0,60.24l11.04,161.67h87.86
					L1529.89,2.52h-95.39l-52.21,151.62c-8.03,23.1-18.07,59.24-18.07,59.24h-1c0,0-10.05-36.14-18.07-59.24L1292.92,2.52h-95.39
					L1167.91,361.49z"/>
			</g>
		</g>
		<g>
			<g>
				<path class="st0" d="M702.52,2.52h-92.38l-122,358.97h90.37l21.59-75.31h111.96l22.09,75.31h90.37L702.52,2.52z M620.69,215.89
					l20.58-69.79c6.53-22.59,14.56-61.75,14.56-61.75h1c0,0,8.04,39.16,14.56,61.75l20.08,69.79H620.69z"/>
			</g>
		</g>
		<g>
			<g>
				<path class="st0" d="M967.1,2.52H839.58v358.97H967.1c112.96,0,185.25-67.28,185.25-180.25S1080.06,2.52,967.1,2.52
					 M963.58,286.18h-36.14V77.83h36.14c59.24,0,97.91,35.14,97.91,103.41C1061.48,250.03,1024.33,286.18,963.58,286.18"/>
			</g>
		</g>
		<g>
			<g>
				<path class="st0" d="M384.16,41.51l-0.19-0.17v-1.08l0.19-0.17c1.01-0.01,1.67-0.07,1.96-0.16c0.29-0.09,0.55-0.27,0.78-0.54
					c0.23-0.27,0.69-1.15,1.38-2.65l2.18-4.74l5.66-12.82c1.07-2.51,2.13-5.02,3.18-7.53h1.35l8.88,20.89l1.19,2.79
					c0.35,0.79,0.75,1.65,1.2,2.58c0.45,0.93,0.76,1.48,0.94,1.64c0.17,0.17,0.39,0.29,0.65,0.38c0.26,0.09,0.83,0.14,1.72,0.16
					l0.17,0.17v1.08l-0.17,0.17c-1.47-0.13-2.8-0.19-3.97-0.19c-2.3,0.07-4.61,0.13-6.91,0.19l-0.17-0.17v-1.08l0.17-0.17
					c1.55-0.03,2.52-0.09,2.91-0.2c0.39-0.1,0.58-0.34,0.58-0.72c0-0.3-0.1-0.71-0.29-1.21l-2.56-6.35h-12.05l-2.27,5.33
					c-0.4,0.96-0.6,1.66-0.6,2.1c0,0.35,0.19,0.6,0.56,0.77c0.37,0.17,1.32,0.26,2.83,0.27l0.19,0.17v1.08l-0.17,0.17
					c-1.79-0.11-3.36-0.17-4.7-0.17C387.25,41.34,385.71,41.4,384.16,41.51 M393.65,29.83h10.53l-5.22-12.55L393.65,29.83z"/>
			</g>
		</g>
		<g>
			<g>
				<path class="st0" d="M414.73,81.14v0.62l-0.08,0.25l-1.02,0.6c-0.25,0.15-0.4,0.27-0.44,0.35c-0.04,0.08-0.09,0.5-0.16,1.24
					c-0.06,0.74-0.09,1.65-0.09,2.72c0,1.21,0.08,2.52,0.23,3.93l-0.12,0.21c-3.8,1.46-7.71,2.18-11.72,2.18
					c-3.08,0-5.86-0.58-8.34-1.75c-2.48-1.17-4.45-2.89-5.91-5.18c-1.46-2.29-2.18-5.01-2.18-8.16c0-4.8,1.64-8.61,4.92-11.44
					c3.28-2.83,7.56-4.25,12.85-4.25c3.88,0,7.37,0.66,10.47,1.98l0.15,0.23c-0.25,0.93-0.54,2.88-0.87,5.85l-0.17,0.15h-0.96
					l-0.17-0.17L411,68.3c-0.04-0.72-0.09-1.14-0.13-1.27c-0.05-0.13-0.2-0.29-0.45-0.49c-0.25-0.2-0.89-0.52-1.92-0.96
					c-1.03-0.44-2.07-0.76-3.11-0.96c-1.04-0.2-2.16-0.3-3.35-0.3c-2.54,0-4.79,0.53-6.74,1.58c-1.96,1.05-3.43,2.59-4.42,4.61
					c-0.99,2.02-1.49,4.26-1.49,6.73c0,2.55,0.53,4.93,1.6,7.13c1.07,2.2,2.6,3.92,4.6,5.15c2,1.23,4.32,1.85,6.97,1.85
					c1.15,0,2.33-0.11,3.53-0.34c1.2-0.23,2.19-0.55,2.97-0.97c0.13-0.44,0.19-1.34,0.19-2.68v-2.31c0-1.1-0.07-1.78-0.21-2.05
					c-0.14-0.27-0.48-0.46-1.03-0.57c-0.55-0.11-1.73-0.18-3.55-0.21l-0.19-0.19v-0.92l0.19-0.19l1.27,0.04
					c2.18,0.07,3.95,0.1,5.33,0.1c0.79,0,1.95-0.04,3.48-0.13L414.73,81.14z"/>
			</g>
		</g>
		<g>
			<g>
				<path class="st0" d="M388.32,114.36l0.17-0.15c4.76,0.08,7.8,0.13,9.13,0.13c4.55,0,8.6-0.04,12.15-0.13l0.1,0.15
					c-0.35,1.33-0.6,3.42-0.77,6.26l-0.13,0.17h-1.02l-0.19-0.17c0.01-0.13,0.02-0.24,0.02-0.33c0-1.18-0.09-2.3-0.27-3.37
					c-0.87-0.39-2.08-0.64-3.63-0.76c-1.55-0.12-2.71-0.18-3.49-0.18c-1.1,0-2.5,0.08-4.2,0.23l-0.08,3.33l-0.06,3.81l-0.06,4.22
					c1.5,0.08,2.88,0.13,4.14,0.13c1.28,0,2.34-0.04,3.2-0.13c0.86-0.08,1.36-0.17,1.51-0.26c0.15-0.09,0.26-0.26,0.33-0.52
					c0.08-0.26,0.14-0.71,0.2-1.36l0.08-1.29l0.17-0.17h0.96l0.17,0.17c-0.03,1.51-0.06,3.03-0.1,4.56l0.1,4.68l-0.17,0.17h-0.96
					l-0.17-0.17l-0.15-1.25c-0.12-0.97-0.21-1.55-0.27-1.74c-0.06-0.19-0.18-0.35-0.38-0.49c-0.2-0.14-0.72-0.25-1.55-0.33
					c-0.83-0.08-1.98-0.13-3.43-0.13c-0.8,0-2.03,0.03-3.68,0.1c-0.07,1.16-0.1,3.11-0.1,5.83c0,2.91,0.03,5.06,0.1,6.43h3.83
					c3.37,0,5.48-0.04,6.33-0.12c0.85-0.08,1.65-0.28,2.41-0.6c0.12-0.32,0.33-1.06,0.61-2.22c0.28-1.16,0.45-1.88,0.49-2.17
					l0.21-0.15h1l0.17,0.15c-0.12,0.6-0.25,1.64-0.36,3.12s-0.18,2.75-0.18,3.81l-0.15,0.17c-2.65-0.08-6.12-0.13-10.4-0.13
					l-5.66-0.04c-1.32,0-2.69,0.06-4.12,0.17l-0.17-0.17v-0.69l0.17-0.21c0.82-0.42,1.29-0.68,1.4-0.78
					c0.12-0.1,0.21-1.32,0.29-3.64c0.08-2.32,0.11-4.1,0.11-5.32v-7.64l-0.02-4.72c0-1.03-0.01-1.86-0.04-2.51
					c-0.03-0.65-0.08-1.11-0.15-1.38c-0.07-0.28-0.15-0.47-0.24-0.58c-0.09-0.11-0.24-0.2-0.44-0.28c-0.2-0.08-0.55-0.14-1.03-0.2
					l-1.58-0.12l-0.17-0.15V114.36z"/>
			</g>
		</g>
		<g>
			<g>
				<path class="st0" d="M383.48,194.9l-0.19-0.19v-0.96l0.19-0.17c0.85-0.01,1.52-0.06,2.03-0.15c0.51-0.08,0.83-0.22,0.98-0.42
					c0.15-0.19,0.24-0.51,0.29-0.94c0.05-0.43,0.1-1.4,0.14-2.91c0.05-1.51,0.07-2.59,0.07-3.25v-16.81c0-0.71-0.13-1.23-0.39-1.57
					c-0.26-0.34-0.61-0.56-1.05-0.65c-0.44-0.09-1.2-0.14-2.27-0.16l-0.17-0.17v-0.98l0.17-0.19c1.91,0.07,3.17,0.1,3.77,0.1
					c1.4,0,2.55-0.03,3.45-0.1l6.64,8.61l9.76,12.24c1.18,1.48,2.38,2.89,3.6,4.22v-16.11c0-0.5-0.02-1.56-0.07-3.19
					c-0.05-1.63-0.11-2.66-0.18-3.1c-0.07-0.44-0.19-0.73-0.36-0.88c-0.17-0.15-0.5-0.27-0.98-0.34c-0.48-0.08-1.13-0.12-1.95-0.13
					l-0.17-0.17v-0.96l0.17-0.19c1.12,0.07,2.73,0.1,4.81,0.1c1.9,0,3.28-0.03,4.14-0.1l0.19,0.19v0.96l-0.17,0.17
					c-0.92,0.01-1.62,0.07-2.12,0.16c-0.5,0.09-0.81,0.24-0.94,0.45c-0.12,0.21-0.21,0.51-0.26,0.92c-0.05,0.4-0.1,1.36-0.15,2.87
					c-0.05,1.51-0.07,2.6-0.07,3.27v9.88l0.02,5.72c0.03,1.87,0.06,3.75,0.08,5.64c-0.69-0.24-1.89-0.53-3.6-0.87l-1.48-1.75
					L403,187.6l-14.11-17.63v15.96c0,0.64,0.02,1.78,0.07,3.41c0.05,1.64,0.11,2.63,0.18,2.97c0.07,0.35,0.16,0.59,0.27,0.72
					c0.11,0.13,0.35,0.25,0.72,0.36c0.37,0.11,1.13,0.17,2.28,0.19l0.17,0.17v0.98l-0.17,0.17c-0.72-0.1-1.89-0.15-3.5-0.15
					C386.85,194.76,385.04,194.8,383.48,194.9"/>
			</g>
		</g>
		<g>
			<g>
				<path class="st0" d="M386.35,245.87v-1l5.01-6.2l11.88-15.29c1.8-2.3,3.02-3.95,3.64-4.95h-0.85l-3.35-0.02
					c-2.94,0-5.31,0.05-7.11,0.14c-1.8,0.09-2.98,0.18-3.56,0.28c-0.58,0.1-0.93,0.23-1.06,0.4c-0.13,0.17-0.24,0.59-0.32,1.24
					l-0.29,2.75l-0.19,0.19h-0.98l-0.19-0.19c0.07-1.05,0.1-1.89,0.1-2.52c0-1.69-0.03-3.03-0.1-4.02l0.19-0.19
					c4.95,0.11,8.41,0.17,10.38,0.17c3.27,0,7.57-0.06,12.9-0.17l0.19,0.19v1.06c-1.53,1.8-2.59,3.09-3.2,3.87l-17.33,22.33
					l8.43,0.15c1.68,0,3.37-0.04,5.08-0.13c1.71-0.08,2.83-0.17,3.37-0.25c0.54-0.08,0.91-0.2,1.11-0.36
					c0.2-0.16,0.34-0.32,0.41-0.48c0.07-0.16,0.18-0.63,0.33-1.43l0.46-2.79l0.19-0.17h0.98l0.17,0.17c-0.1,0.89-0.19,3.3-0.29,7.24
					l-0.19,0.17c-5.85-0.11-10.47-0.17-13.86-0.17c-2.37,0-6.29,0.06-11.76,0.17L386.35,245.87z"/>
			</g>
		</g>
		<g>
			<g>
				<path class="st0" d="M393.86,267.63l2.6,0.08c1.71,0.06,2.82,0.08,3.35,0.08c0.47,0,2.46-0.06,5.97-0.17l0.17,0.15v1.04
					l-0.17,0.15c-0.96,0.03-1.7,0.07-2.22,0.13c-0.52,0.05-0.9,0.16-1.13,0.31c-0.24,0.15-0.39,0.51-0.47,1.07
					c-0.08,0.56-0.11,1.34-0.11,2.34l-0.04,4.79v9.64l0.02,4.06c0.01,1.57,0.06,2.58,0.12,3.04c0.07,0.46,0.17,0.76,0.3,0.92
					c0.13,0.15,0.39,0.28,0.76,0.39c0.37,0.1,1.3,0.18,2.77,0.24l0.17,0.13v1.04l-0.17,0.17c-0.07,0-1.29-0.04-3.66-0.12
					c-0.99-0.03-1.75-0.04-2.31-0.04c-0.43,0-2.41,0.06-5.95,0.17l-0.17-0.17v-1.04l0.17-0.13c1.29-0.06,2.15-0.12,2.58-0.21
					c0.43-0.08,0.72-0.19,0.86-0.32c0.15-0.13,0.26-0.41,0.35-0.84c0.09-0.43,0.14-1.39,0.16-2.87l0.02-4.39v-9.64l-0.04-4.06
					c-0.01-1.58-0.05-2.6-0.11-3.06c-0.06-0.46-0.16-0.76-0.29-0.92c-0.13-0.15-0.39-0.28-0.76-0.37c-0.37-0.1-1.3-0.17-2.77-0.23
					l-0.17-0.15v-1.04L393.86,267.63z"/>
			</g>
		</g>
		<g>
			<g>
				<path class="st0" d="M384.16,348.34l-0.19-0.17v-1.08l0.19-0.17c1.01-0.01,1.67-0.07,1.96-0.16c0.29-0.09,0.55-0.27,0.78-0.54
					c0.23-0.27,0.69-1.15,1.38-2.65l2.18-4.74l5.66-12.82c1.07-2.51,2.13-5.02,3.18-7.53h1.35l8.88,20.89l1.19,2.79
					c0.35,0.79,0.75,1.65,1.2,2.58c0.45,0.93,0.76,1.48,0.94,1.64c0.17,0.17,0.39,0.29,0.65,0.38c0.26,0.09,0.83,0.14,1.72,0.16
					l0.17,0.17v1.08l-0.17,0.17c-1.47-0.13-2.8-0.19-3.97-0.19c-2.3,0.07-4.61,0.13-6.91,0.19l-0.17-0.17v-1.08l0.17-0.17
					c1.55-0.03,2.52-0.09,2.91-0.2c0.39-0.1,0.58-0.34,0.58-0.72c0-0.3-0.1-0.71-0.29-1.21l-2.56-6.35h-12.05l-2.27,5.33
					c-0.4,0.96-0.6,1.66-0.6,2.1c0,0.35,0.19,0.6,0.56,0.77c0.37,0.17,1.32,0.26,2.83,0.27l0.19,0.17v1.08l-0.17,0.17
					c-1.79-0.11-3.36-0.17-4.7-0.17C387.25,348.17,385.71,348.23,384.16,348.34 M393.65,336.66h10.53l-5.22-12.55L393.65,336.66z"/>
			</g>
		</g>
		<g>
			<g>
				<rect x="371.8" class="st1" width="3.35" height="363.16"/>
			</g>
		</g>
		<g>
			<g>
				<rect x="425.1" y="0.48" class="st2" width="3.35" height="363.16"/>
			</g>
		</g>
		<g>
			<g>
				<g>
					<g>
						<g>
							<g>
								<path class="st0" d="M80.25,71.14l2.48-1.12l0.52,1.15v0.01l3.94,8.67l-1.54,1.34c-2.03,1.76-4.04,3.65-5.98,5.62
									c-0.93,0.95-1.84,1.92-2.78,2.94c-0.38,0.41-0.77,0.85-1.17,1.29l-2.04-1.79h-0.01v-0.01v-0.01l0.63-4.67
									c0-0.01,0-0.02,0-0.03c0.49-0.51,0.98-1.02,1.48-1.52c0.62-0.64,1.25-1.26,1.9-1.9c0.95-0.91,1.91-1.81,2.86-2.68
									l-0.64-1.41l-1.26-2.79L80.25,71.14z"/>
							</g>
						</g>
					</g>
				</g>
				<g>
					<g>
						<g>
							<g>
								<path class="st0" d="M47.14,131.58l-2.24-1.25c-0.03,0.07-0.07,0.12-0.1,0.17c-0.48,0.84-0.89,1.57-1.23,2.2
									c-0.05,0.11-0.11,0.21-0.16,0.3l-1.17,2.07l0.08,0.04l3.01,1.68l1.17,0.65c-0.82,3.96-1.39,7.71-1.76,11.35l-8.28,1.71
									l-2.68,0.56h-0.01v0.02l-0.09,2.11c-0.02,0.69-0.04,1.94-0.05,3.45c-0.02,3.8-0.01,9.18,0.05,10.91l0.09,2.13l10.97,2.27
									c0.37,3.54,0.96,7.29,1.78,11.34l-9.79,5.58l0.64,2.08c0.34,1.11,1.21,3.88,2.11,6.69c0.17,0.53,0.35,1.08,0.52,1.61
									l0.39,1.18l0.4-0.13l2.18-0.72l1.56-3.76c0.01-0.02,0.03-0.05,0.04-0.1c-0.29-0.94-0.6-1.87-0.87-2.73c0-0.01,0-0.01,0-0.01
									c-0.17-0.56-0.34-1.06-0.49-1.54l1.73-0.98l3.34-1.91h0.01l3.67-5.79c0,0-0.01,0,0-0.01c-0.01-0.04-0.02-0.09-0.03-0.13
									c-0.17-0.87-0.34-1.72-0.49-2.55c-0.71-3.8-1.2-7.3-1.47-10.61l-0.16-2.03l-10.73-2.21c-0.03-2.72-0.03-6.98,0-9.72
									l10.73-2.21l0.16-2.04c0.37-4.62,1.11-9.4,2.27-14.63l0.44-1.97l-2.53-1.42l-2.24-1.25L47.14,131.58z"/>
							</g>
						</g>
					</g>
				</g>
				<g>
					<g>
						<g>
							<g>
								<path class="st0" d="M267.83,199.47l-1.7-0.56l-1.64-3.74c0.15-0.47,0.3-0.94,0.45-1.39c0.09-0.27,0.17-0.54,0.25-0.81
									c0.17-0.53,0.33-1.03,0.46-1.48l-6.02-3.45l-1.74-1l1.63-3.35l0.34,0.07l0.81-1.41l1.42,0.81l9.86,5.66l-0.45,1.97
									c-0.24,1.05-0.86,3.07-1.26,4.37c-0.03,0.1-0.05,0.2-0.09,0.28c-0.25,0.76-0.5,1.56-0.76,2.35L267.83,199.47z"/>
							</g>
						</g>
					</g>
				</g>
				<g>
					<g>
						<g>
							<path class="st0" d="M154.46,281.2c-2.98,0-5.97-0.02-7.19-0.06l-2.15-0.07l-2.27-10.99c-3.64-0.37-7.44-0.97-11.34-1.77
								l-5.45,9.75l-2.07-0.59c-2.36-0.68-11.36-3.59-13.7-4.45l-2-0.74l1.25-11.14c-3.49-1.55-6.94-3.3-10.3-5.22l-8.19,7.53
								l-1.77-1.15c-1.86-1.21-9.72-6.86-11.68-8.47l-1.61-1.32l4.59-10.2c-3.01-2.75-5.7-5.42-8.16-8.08l-10.14,4.61l-1.32-1.65
								c-0.32-0.4-0.84-1.09-1.47-1.94l-0.53-0.72c-0.81-1.12-1.77-2.43-2.7-3.71l4.41-3.19c0.92,1.28,1.88,2.58,2.68,3.7l0.52,0.72
								c0.02,0.02,0.04,0.05,0.05,0.07l9.86-4.48l1.33,1.5c3.05,3.43,6.5,6.85,10.55,10.46l1.49,1.33l-4.49,9.97
								c2.16,1.62,5.6,4.1,7.82,5.66l8.01-7.37l1.74,1.04c4.28,2.55,8.74,4.81,13.26,6.71l1.88,0.79l-1.23,10.89
								c2.59,0.88,6.63,2.18,9.25,3l5.3-9.47l1.98,0.44c5.11,1.13,10.03,1.89,14.63,2.27l2.03,0.17l2.22,10.72
								c2.74,0.03,6.97,0.03,9.7,0l2.12-10.6l2.01-0.2c5.4-0.54,10.19-1.3,14.65-2.35l1.98-0.46l5.4,9.5c2.63-0.82,6.7-2.13,9.26-3
								l-1.23-10.8l1.85-0.8c4.61-2,9.04-4.29,13.18-6.79l1.74-1.05l8.12,7.39c2.19-1.53,5.6-4.03,7.8-5.68l-4.58-9.89l1.54-1.34
								c4.07-3.55,7.5-6.98,10.49-10.49l1.33-1.56l10.01,4.51c1.27-1.69,3.07-4.18,4.56-6.27c0.5-0.69,0.94-1.32,1.31-1.86
								l4.49,3.08c-0.39,0.57-0.86,1.23-1.38,1.94c-1.79,2.52-4.89,6.8-6.04,8.2l-1.32,1.61l-10.17-4.58
								c-2.43,2.73-5.13,5.42-8.17,8.16l4.7,10.14l-1.71,1.33c-1.75,1.36-9.52,7.11-11.67,8.45l-1.75,1.09l-8.24-7.49
								c-3.27,1.9-6.7,3.66-10.23,5.27l1.26,11.06l-1.97,0.75c-2.24,0.86-11.27,3.76-13.73,4.46l-2.06,0.59l-5.53-9.73
								c-3.54,0.75-7.29,1.35-11.35,1.81l-2.19,10.93l-2.16,0.07C160.42,281.18,157.44,281.2,154.46,281.2z"/>
						</g>
					</g>
				</g>
				<g>
					<g>
						<g>
							<g>
								<path class="st0" d="M147.71,39.69c-0.02,0-0.03,0-0.05,0L147.71,39.69z M241.93,90.04l-2.15,1l-4.73,2.2l-1.34-1.55
									c-3.26-3.74-6.7-7.18-10.52-10.51l-1.52-1.33l4.51-9.92c-1.43-1.08-3.4-2.54-5.24-3.87c-0.99-0.73-1.88-1.36-2.63-1.87
									l-7.96,7.4l-1.75-1.05c-4.28-2.55-8.74-4.81-13.26-6.72l-1.88-0.78l1.24-10.85c-2.56-0.89-6.63-2.21-9.24-3l-5.34,9.53
									l-1.99-0.48c-5-1.18-9.78-1.94-14.6-2.33l-2.04-0.16l-2.22-10.67c-2.68-0.07-6.93-0.07-9.68-0.01l-2.13,10.69l-2.04,0.16
									c-5.32,0.45-10.08,1.21-14.56,2.33l-1.99,0.49l-5.51-9.53c-2.57,0.78-6.62,2.09-9.18,3l1.23,10.84l-1.9,0.8
									c-4.44,1.85-8.87,4.11-13.15,6.7l-1.73,1.05l-8.1-7.37c-0.42,0.3-0.87,0.62-1.3,0.93c-1.38,0.99-2.98,2.16-4.43,3.24
									c0,0.01-0.01,0.01-0.01,0.01c-0.21,0.15-0.4,0.29-0.6,0.45l-1.62-2.19l2.44-5.17c0.36-0.26,0.72-0.51,1.06-0.76
									c1.54-1.1,2.61-1.85,3.21-2.24L89.98,58h0.01l1.05-0.68l8.27,7.52c3.34-1.95,6.77-3.69,10.23-5.22l-1.25-10.98l1.92-0.78
									c2.41-0.97,11.44-3.9,13.76-4.5l2-0.52l5.58,9.65c3.58-0.81,7.34-1.41,11.38-1.81l2.16-10.75l1.99-0.21
									c0.11-0.01,0.23-0.01,0.35-0.02l0.24-0.01l0.09-0.01c2.91-0.13,11.6-0.12,13.96,0.04l2.05,0.14l2.25,10.82
									c3.76,0.38,7.5,0.98,11.36,1.82l5.4-9.65l2.02,0.5c2.44,0.61,11.59,3.55,13.91,4.52l1.88,0.8l-1.25,10.96
									c3.5,1.55,6.94,3.3,10.29,5.22l8.05-7.48l0.15,0.1c0,0,0,0,0.01,0l1.59,0.95c0.21,0.12,0.44,0.27,0.7,0.45
									c1.21,0.8,2.93,2.02,3.98,2.78c0.01,0.01,0.03,0.02,0.04,0.03c1.1,0.78,2.22,1.6,3.26,2.4h0.01
									c0.16,0.11,0.33,0.24,0.49,0.36c1.49,1.11,2.74,2.08,3.37,2.58l1.62,1.33l-1.24,2.73l-3.34,7.38
									c2.89,2.6,5.58,5.29,8.15,8.15l3.37-1.58l1.05-0.49l1.15,2.47L241.93,90.04z"/>
							</g>
						</g>
					</g>
				</g>
				<g>
					<g>
						<g>
							<g>
								<path class="st0" d="M259.03,167.77v-0.01l0.03-0.36l2.15-0.38h0.01l0.15-0.03l8.45-1.74c0.07-2.67,0.07-6.89,0-9.69
									l-10.76-2.12l-0.16-2.05c-0.45-5.32-1.21-10.08-2.33-14.56l-0.49-2l4.22-2.4l3.91-2.23l2.02,0.21l0.77,1.34l-0.63,3.46
									c0,0.01,0,0.01,0,0.02l-2.76,1.57l-1.27,0.72c0.81,3.58,1.41,7.34,1.81,11.37l5.67,1.13l3.42,0.69
									c0.72,1.17,1.38,2.24,1.99,3.22c0.01,0.21,0.02,0.44,0.02,0.69c0.03,1.12,0.07,2.69,0.07,4.36
									c0.02,3.41-0.02,7.25-0.13,8.71l-0.14,2.06l-10.9,2.24c-0.22,2.16-0.52,4.37-0.9,6.69l-0.33-0.05l-2.36-0.39L259.03,167.77z
									"/>
							</g>
						</g>
					</g>
				</g>
				<g>
					<g>
						<g>
							<path class="st0" d="M101.76,232.95l18.33-61.48L69.18,132.7l64.04-1.55l21.16-60.38l21.34,60.47l63.95,1.45l-50.9,38.96
								l18.34,61.3l-52.72-36.4L101.76,232.95z M154.39,189.92l43.06,29.74l-14.97-50.06l41.58-31.82l-52.22-1.18L154.4,87.18
								l-17.29,49.32l-52.29,1.26l41.56,31.65l-14.98,50.23L154.39,189.92z"/>
						</g>
						<g>
							<path class="st0" d="M99.18,236.51l19.23-64.48L65,131.34l67.18-1.62l22.2-63.34l22.38,63.42l67.09,1.52l-53.39,40.86
								l19.24,64.31l-55.3-38.19L99.18,236.51z M73.36,134.05l48.41,36.87l-17.43,58.47l50.05-34.62l50.14,34.62l-17.44-58.3
								l48.41-37.05l-60.82-1.38l-20.3-57.51l-20.13,57.43L73.36,134.05z M200.04,223.21l-45.65-31.52l-45.56,31.52l15.87-53.24
								l-44.06-33.56l55.43-1.34l18.32-52.28l18.48,52.37l55.36,1.26l-44.07,33.73L200.04,223.21z M154.39,188.15l40.48,27.95
								l-14.07-47.05l39.09-29.92l-49.09-1.11L154.4,91.57l-16.25,46.36l-49.15,1.19l39.06,29.75l-14.08,47.23L154.39,188.15z"/>
						</g>
					</g>
				</g>
				<g>
					<g>
						<g>
							<path class="st0" d="M177.75,134.51l-4.57-0.11l-1.11-3.14l-1.63-57.38l2.03,0.43c25,5.26,46.41,21.01,58.77,43.23l1.01,1.81
								L177.75,134.51z M175.51,131.19l1.83,0.04l49.99-13.91c-11.68-19.84-31-34.05-53.52-39.36l1.5,52.69L175.51,131.19z"/>
						</g>
					</g>
				</g>
				<g>
					<g>
						<g>
							<path class="st0" d="M131.43,134.43L77.12,118.4l1.03-1.8c12.71-22.09,34.28-37.57,59.18-42.47l2.04-0.4l-2.45,57.3
								l-1.15,3.29L131.43,134.43z M82.04,116.45l49.82,14.7l1.57-0.04l0.24-0.7l2.25-52.64C113.49,82.76,94.04,96.73,82.04,116.45z
								"/>
						</g>
					</g>
				</g>
				<g>
					<g>
						<g>
							<path class="st0" d="M90.59,220.99l-1.39-1.54c-6.88-7.65-12.33-16.35-16.2-25.87l-0.2-0.48l0.12-0.51
								c1.68-7.11,2.77-15.74,2.32-18.48c-0.15-0.78-0.29-1.28-0.4-1.59l0,0l-5.62,4.28l4.27-8.49c0.2-0.53,0.28-0.89,0.31-1.12
								c-1.01-0.03-2.91,0.26-4.71,1.15l-2.17,1.08L66.73,167c-0.44-5.64-0.32-11.37,0.36-17.04l0.24-2.06l54.98,20.46l1.88,1.44
								l-1.12,3.78L90.59,220.99z M76.23,192.83c3.45,8.34,8.16,16.02,14.03,22.87l29.83-43.54l0.3-1.02l-50.28-18.71
								c-0.38,4.05-0.47,8.12-0.26,12.14c2.31-0.68,5.03-0.95,6.16-0.06v0c1.21,0.98,1.39,2.64,0.54,4.94
								c1.11,0.7,1.58,2.36,1.91,4.1C79.04,177.06,77.76,186.14,76.23,192.83z"/>
						</g>
					</g>
				</g>
				<g>
					<g>
						<g>
							<path class="st0" d="M154.32,248.36c-12.58,0-25.14-2.69-36.81-8.06l-1.89-0.87l36.54-46l2.24-1.56l2.19,1.5l0.16,0.2
								l35.61,46.2l-1.89,0.85C178.94,245.79,166.62,248.36,154.32,248.36z M120.78,238.18c21.15,9.11,45.13,9.21,66.43,0.3
								l-32.83-42.59L120.78,238.18z"/>
						</g>
					</g>
				</g>
				<g>
					<g>
						<g>
							<path class="st0" d="M217.57,221.73l-31.75-47.86l-1.16-3.9l1.78-1.38l0.25-0.09l54.96-19.59l0.22,2.06
								c0.86,7.98,0.63,16.05-0.7,23.98l-0.26,1.58l-1.59-0.23c-0.61-0.09-1.11,0.02-1.4,0.3c-0.31,0.3-0.44,0.9-0.34,1.66
								c0.13,1.09,0.63,2.51,1.53,4.35l0.27,0.55l-0.16,0.6c-3.7,13.53-10.7,26.13-20.23,36.44L217.57,221.73z M188.81,172.47
								l29.17,43.96c8.33-9.48,14.5-20.81,17.92-32.95c-0.91-1.94-1.42-3.49-1.57-4.84c-0.27-2.31,0.56-3.66,1.31-4.39
								c0.67-0.65,1.54-1.06,2.52-1.2c0.98-6.52,1.2-13.12,0.65-19.67l-50.34,17.95L188.81,172.47z"/>
						</g>
					</g>
				</g>
				<g>
					<g>
						<g>
							<path class="st3" d="M312.03,184.54c3.64-5.13,4.07-9.76,1.32-13.89c1-6.76,0.32-11.01-2.07-12.77
								c-2.49-1.75-5.57-1.19-9.19,1.69c-2.12-1.12-5-0.07-8.64,3.19c0.63-1.62,0.7-3.06,0.2-4.31c3.25-1.5,5.35-3.16,6.28-4.98
								c0.94-1.81,1.4-4.66,1.4-8.54c0.38-2.37,2.57-6.63,6.57-12.77c2.76-6.13,0.82-8.26-5.82-6.38c3.63-3.25,5.45-6.07,5.45-8.44
								c0.25-2.25-0.69-5.13-2.82-8.64c-0.87-1.99-2.19-2.37-3.93-1.12c0.62-1.25,0.96-2.76,1.02-4.51
								c0.07-1.74-1.09-5.44-3.47-11.07c-0.37-7.38-2.12-10.46-5.25-9.2c-0.5-3.88-1.75-7.57-3.76-11.07c-3-4.51-5.38-5.7-7.12-3.57
								c-4.89-7.25-9.45-10.26-13.7-9.01c-0.13-3.13-1.2-5.95-3.19-8.44c-1.13-4.76-2.51-8.07-4.13-9.96
								c-2.25-0.87-3.82,0.38-4.69,3.76c-0.38-2.76-1.25-5.63-2.62-8.64c-1.38-3-3.57-4.56-6.58-4.68
								c-1.12-0.13-2.19,0.05-3.19,0.56c-1.99-1.25-3.68-1.87-5.07-1.87c-4.25-4.51-8.14-4.88-11.63-1.12l-0.57-3.94
								c-1.25-4.63-3.76-5.63-7.5-3.01c-6.13-6.38-11.39-10.58-15.77-12.58c-3.63-1.24-6-0.94-7.12,0.95
								c-1.88-1.88-3.89-3.07-6.01-3.57c-2.12-0.5-4.13-1.06-6-1.69c-2.89-0.12-4.13,1.44-3.76,4.69c-4.5,0.25-7.6,1.03-9.29,2.34
								c-1.69,1.32-2.12,3.16-1.31,5.54c0.81,2.37,2.66,4.31,5.53,5.82c-0.75,0.87-1.07,2.25-0.94,4.13c0.12,1.87,2.12,3.44,6,4.69
								c2.88,0.75,5.7,0.81,8.45,0.19c-0.63,2.88,0.37,4.69,3,5.45c3.63,3.75,8.14,4.68,13.52,2.81l-0.57,3.57l7.32,3
								c0.25,3.51,1.88,6.01,4.88,7.52l2.88,1.23c-0.62,0.08-3.31,2.3-3.34,2.66c-0.44,0.49-1.38,2.43-0.44,3.76
								c0.38,0.51,1.05,0.95,2.13,1.15c1.32,0.15,2.68,0.29,4.06,0.39c1.76,0.14,3.55,0.22,5.3,0.19c0.08,0.92,0.64,2.42,1.23,3.49
								c0.53,1.12,1.84,2.78,4.03,5.15c2.04,2.21,5.87,4.39,9.11,5.76c-0.22,0.23-1.1,2.67-1.91,4.91
								c-0.49,1.35-0.86,3.12-0.88,4.85c-0.02,1.78,0.33,3.51,1.3,4.72c-0.42-0.21-2.22,1.05-2.85,2.05
								c-2.34,3.61,2.72,8.79,3.53,10.58c-0.39-0.04-1.8,0.66-2.54,1.19c-1.74,1.24-1.14,7.46,3.8,8.53c1.24,0.6,6.92,3.9,9.76,6.79
								c0.56,0.57,2.15,3.56,4.42,6.55c1.21,1.59,2.48,4.27,5.46,4.35c0.13,0.41,0.26,0.82,0.39,1.23c2.15,6.5,5.23,12.8,8.92,18.96
								c0.29,0.51,0.6,1.02,0.91,1.52c0.74,1.22,1.51,2.42,2.3,3.63c0,0.27,4.89,5.48,6.66,10.2c-0.59,3.05-0.52,5.67-0.53,5.83
								c-0.64,6.03-1.73,11.58-3.26,16.62c-5.32-2.57-6.2,0.92-6.98,4.36c-0.08-0.17-2.48-0.44-2.82,0.71
								c0.05-0.48-0.09-0.95-0.36-1.37c-0.89-1.41-3.19-2.29-4.39-1.44c-0.04,0.03-1.71,1.2-2.74,1.98
								c-0.35,0.27-0.65-1.72-0.76-3.19c-0.05-1.02-0.26-4.5,0.39-5.87c0.04-0.08,0.23-0.33,0.5-0.69c0.45-0.62,1.14-1.56,1.64-2.44
								c1.21-2.18,0.82-7.95-0.32-13.31c-0.35-1.62-0.75-3.2-1.21-4.63c-0.59-1.85-1.81-2.73-2.88-3.16
								c-0.44-0.16-3.23-0.01-3.77,2.15c-0.15-1.22-2.12-1.95-3.58-2.3c-4.11-0.97-8.5,6.91-8.01,14.24
								c-0.92-0.72-1.92-1.15-2.85-1.27c-2.14-0.32-3.94,0.91-3.61,3.77c0.16,1.41,0.81,3.08,1.69,4.88
								c2.71,5.52,7.69,12.19,7.89,15.66c-2.58-2.3-8.44-2.36-8.45,3.23c0,1.7,1.38,4.59,1.96,5.82
								c-1.19,5.98,5.7,10.35,11.33,15.98c-0.1,2.35,0.6,2.66,1.36,3.41c0.1,0.11,0.21,0.22,0.31,0.34
								c-1.02,1.57-7.32,11.49-7.4,11.73c-0.31,0.12-4.65-2.32-6.08-1.06c-1.52,1.35-2.77,3.18-3.47,4.28l0.75,6.94
								c0.5,2.89-1.03,6.1-4.6,9.67c-3.56,3.56-5.91,6.85-7.04,9.86c-0.63,2.24-3.07,4.68-7.32,7.32c-0.25-0.75-1.25-1.94-3.01-3.57
								c-0.25-0.5-0.75-0.69-1.5-0.57c-4.25,1.13-12.82,4.89-25.71,11.26c-2.25,1.13-5.45,4.44-9.57,9.96h-7.32
								c-2-1.13-4.13-2.69-6.38-4.69c-1.63-1.25-4.51-0.82-8.64,1.32c-3.88-0.88-7.76-0.07-11.63,2.44
								c-2.39,0.87-4.13,1.06-5.26,0.56l-9.19-9.94c-19.02-8.01-29.41-11.58-31.16-10.7c-1.87,1.12-3.25,2.74-4.13,4.88
								c-1.87-0.88-4.69-3.26-8.44-7.13l-5.82-6.57c-4.26-4.76-6.01-9.26-5.26-13.52l0.94-5.82c0.13-0.87,0-1.57-0.37-2.07
								c-1.38-1.49-3.81-2.41-5.07-2.66c-0.27-0.11-1.09-0.39-2,3c0.24,0.82-6.01-8.23-6.1-8.53c0.14-0.15,0.28-0.32,0.44-0.51
								c1.73-2.18,4.38-7.15,5.94-12.85c1.94-7.04,2.83-14.79,2.74-17.75c0.29-0.56,0.37-0.71,0.72-1.05
								c1.13-0.87,2.37-4.55,3.43-9.03c1.67-7.05,2.84-16.04,2.34-19.12c-0.38-2-0.85-3.04-1.41-3.1c-0.57-0.05-1.1,0.1-1.6,0.48
								l1.13-2.25c0.62-1.63,0.62-2.69,0-3.19c-0.38-0.39-3.7-0.35-6.62,1.1c-0.03,0.01-0.05,0.03-0.09,0.04
								c-0.35-3.26-1.9-8.04-2.69-9.77c-0.27-0.58-1.08,0.04-1.11,0.05c-5.25,3.18-7.58,10.15-9.45,18.79l-1.5,1.38
								c-1.49,1.86-2.92,3.8-4.26,5.81c-0.59,0.88-1.17,1.78-1.72,2.68c-2.12,3.46-3.98,7.11-5.49,10.94
								c-1.25,3.17-2.25,6.47-2.96,9.89c-1.12-1.74-1.76-4.28-2.77-7.6c-1-3.31-1.32-5.53-0.94-6.66c1-1.75,0.69-3.38-0.95-4.88
								c-1.24-1.25-2.88-6.88-4.88-16.89c0.13-2.63,1.2-6.57,3.19-11.83c2-5.25,5.35-11.91,9.74-19.42
								c0.23-0.33,2.18-2.43,2.78-2.58c0.69-0.17,1.62-0.74,2.74-1.64c8.64-6.97,28.34-33.79,29.74-50.27
								c0.13-1.57,0.1-3.04-0.12-4.39c0.26-0.08,1.92-2.77,3.98-6.39c1.94-3.38,4.22-7.57,6.06-11.22c1.73-3.42,3.07-6.36,3.38-7.73
								l1.59-0.51l1.88-0.75c6.25-2.51,11.57-5.18,16.45-7.43l7.57-4.03c5.26-2.24,10.26-5.32,15.02-9.19
								c5-4.38,7.69-8.94,8.07-13.7c-0.88-1.12-3.44-1.75-7.7-1.87c2.25-2.51,3.44-5.13,3.57-7.89c-1.63-2.25-6.51-2.62-14.64-1.12
								c-8.51,2.12-15.96,5.44-22.34,9.94c-6.5,4.13-12.35,9.17-17.55,15.11c-5.2,5.95-9.36,12.11-12.48,18.5l3.76-8.64
								c1.87-4.13,3.88-8.94,6-14.45c0.62-2.62,0.65-4.51,0.1-5.63c-0.57-1.12-1.79-1.44-3.66-0.94c-2,0.5-5.63,3.13-10.89,7.89
								c-5.75,5.88-10.85,13.14-15.29,21.77c-4.44,8.63-7.48,15.45-9.11,20.46c0.87-5.63,0.75-10.45-0.37-14.45
								c-0.63-1.62-2-2.07-4.14-1.32c-1.99,1.38-4,3.44-6,6.2c-2,2.76-3.94,5.41-5.82,7.97c-1.87,2.57-4.1,6.23-6.67,10.98
								c-2.56,4.76-4.81,10.39-6.75,16.89c-1.94,6.51-3.41,15.14-4.41,25.9c-0.63,6.88-0.13,14.27,1.5,22.15c2,7.88,4,13.7,6,17.45
								c2,3.76,3.88,5.95,5.63,6.57c1.12,2.76,2.63,7.32,4.51,13.7c1,3.01,1.44,5.29,1.31,6.85c-0.12,1.57,0.28,2.66,1.22,3.29
								c0.94,0.62,1.72,1.87,2.35,3.75c1.62,6.01,3.81,11.58,6.57,16.71c-0.5,2.76-0.75,5.5-0.75,8.26
								c-6.01-17.39-10.89-30.53-14.64-39.41c-7.27-16.14-12.95-23.53-17.08-22.15c-2,0.75-3.26,2.57-3.76,5.45
								c-0.12,1.12-0.12,4.01,0,8.64c0.13,4.63,0.57,9.51,1.32,14.64c3.75,16.64,10.2,30.53,19.33,41.66l13.69,16.14
								c2.76,2.76,5.38,4.78,7.89,6.1c2.51,1.32,4.81,1.66,6.95,1.03c3.13,5,7.07,10.26,11.82,15.76c3.01,4.63,6.13,6.82,9.39,6.57
								c1.37,3.01,3.44,4.51,6.2,4.51l2.81-0.37c3.88,3.75,7.38,6.75,10.51,9.01l-3.56,10.13c-6.26,0.88-12.01,1.38-17.28,1.5
								c-4.88-3.51-11.75-8.26-20.64-14.27l-0.57-11.25c-0.25-3.89,0.44-7.13,2.07-9.77c0.37-2.12-0.82-4.06-3.57-5.82
								c-4.13-2-7.07-2.81-8.82-2.44c-0.75,0.25-1.19,0.94-1.31,2.07v6.19l-17.83,0.38c-1.63,0-2.97,0.62-4.04,1.87
								c-1.06,1.25-1.09,3.76-0.09,7.52c0.12,1.37,0.05,2.56-0.2,3.56c-0.87,4.01-3.19,8.89-6.94,14.64
								c-0.5,0.87-0.28,2.19,0.65,3.94c0.94,1.75,3.29,4.5,7.04,8.26c1.63,1.62,4.11,3.63,7.42,6.01c3.31,2.37,9.16,6,17.55,10.88
								c9.89,5.88,19.33,10.76,28.34,14.64c1.88,0.13,14.39-1.57,37.55-5.06l0.19,2.06c-6.63,5.01-10.89,7.07-12.77,6.2
								c-2.62,0.25-3.44,2.19-2.44,5.82c0.75,1.63,2.12,2.76,4.13,3.38l2.44,2.82l6.95,4.13c2.63,0.75,5.13,0.75,7.5,0
								c2.25-0.87,3.76-2.82,4.51-5.82l8.26-8.26l5.45-4.14c4.25-0.74,7-2.24,8.26-4.5c0.25-2,0.81-3.26,1.69-3.76l6.57-4.5
								c0.25-0.63,2.94,0.44,8.07,3.19c2.51,0.62,4.69,0.5,6.57-0.38l4.88-2.81c4.38,1,12.08,6.44,23.09,16.33
								c-0.13,1.12,0.56,2.44,2.06,3.94c0.87,1.12,3.26,2.06,7.13,2.81l2.62,4.88l2.63,0.94c3.89,0.13,7.52-1.24,10.89-4.13
								l4.13-1.31c2.12-1.63,3.06-3.26,2.81-4.88l-1.69-1.69l-3.56-0.95c-4.51-2.12-9.07-5-13.7-8.63l-3.01-2.25
								c13.64,2.37,30.6,4.26,50.87,5.63c2.51,0.5,5.85-0.78,10.04-3.85c4.19-3.07,16.86-12.11,38-27.12
								c3.14-3.39,5.63-7.27,7.52-11.64c-1.88-1.75-3.54-4.25-4.98-7.5s-2.34-6-2.72-8.26c-0.5-2.13-0.56-4.04-0.19-5.73
								c0.37-1.69-0.19-3.28-1.69-4.78c-0.63-0.88-2.07-1.44-4.31-1.69c-4.01-0.38-8.52-0.32-13.52,0.19
								c-2.37-0.25-3.76-0.82-4.13-1.69l0.19-4.51c0.37-2-0.19-2.88-1.69-2.62c-5.51,1.37-8.82,2.76-9.94,4.13
								c-1.63,1.75-1.57,3.63,0.19,5.63c1.37,1.25,2.06,2.69,2.06,4.31c-0.74,8.27-1.44,13.83-2.06,16.71
								c-9.14,7.25-15.33,11.7-18.58,13.33c-2.62,0.87-8.51,0.49-17.65-1.13c-2-1.75-3.44-4.75-4.31-9.01
								c3.13-1.87,6.44-4.13,9.94-6.75c2.37-0.38,4.38-0.85,6.01-1.42c1.62-0.56,2.44-2.09,2.44-4.6c1.62-0.62,2.81-2,3.56-4.13
								L255.35,263c3.51-3.01,7.32-4.76,11.46-5.26c5-0.37,11.5-3.19,19.52-8.44c1.25-1.37,1.25-3.31,0-5.82
								c2.37-1.38,6.25-5.26,11.63-11.64c2.12-3,2.62-6.32,1.5-9.94c5-6,7.82-10.76,8.44-14.26c0.5-3.14,0.44-6.51-0.19-10.14
								c2.37-1.5,4.04-2.79,4.98-3.85c0.94-1.07,1.41-2.54,1.41-4.41C314.1,187.35,313.42,185.8,312.03,184.54z M213.69,43.59
								l-6.38-2.07l0.37-4.31l-3.56,0.75c-3.38,1.12-6.75,0.12-10.13-3.01c-2.25,0.38-3.19-0.5-2.82-2.63
								c0.87-1.87,0.63-2.88-0.75-3.01l-5.45,0.57c-3.5-0.5-5.82-1.5-6.94-3.01c-0.75-1.25-0.25-2.81,1.5-4.69
								c-3.38-1.37-5.48-2.88-6.3-4.5c-0.81-1.62-0.31-2.94,1.5-3.94c1.82-1,5.16-1.19,10.04-0.57c-1.12-1.37-1.44-2.81-0.94-4.31
								c0.13-1.5,3.38-0.69,9.76,2.44l3.76,2.25c1-1.88,2.69-2.44,5.07-1.69c2.88,1.37,5.57,3.03,8.07,4.97
								c2.51,1.94,5.32,4.73,8.44,8.35c2.64-1.75,4.51-1.37,5.63,1.13l0.57,4.5c-2.76-2.62-6.13-2.81-10.13-0.57l-2.64-1.12
								c-3.63-4.38-5.82-7.69-6.57-9.94c-0.75-2.88-1.12-3.13-1.12-0.75c0.12,2.51,1.62,5.7,4.5,9.57c-5.5-1.75-9.54-4.01-12.1-6.76
								c-2.57-2.74-4.54-5.06-5.91-6.94c-1.37-2.25-1.94-2.25-1.69,0c1.5,2.74,3.56,5.32,6.2,7.69c-2-0.87-3.88-1.75-5.63-2.63
								c-4.38-1.87-8.02-2.88-10.89-3.01c-1.37,0-1.44,0.25-0.19,0.75c4.88,1.25,8.42,2.41,10.61,3.47
								c2.19,1.07,3.66,2.04,4.41,2.91c-3.51,1.5-7.13,2.19-10.89,2.07c-2.37-0.13-3.44-0.07-3.19,0.19c0.25,0.25,1,0.5,2.25,0.75
								c4.5,0.5,9.07,0,13.7-1.5c3.38,1.75,7.32,3.44,11.82,5.07c-2.74,0.63-5.44,1.87-8.06,3.76c-1,1.25-0.5,1.31,1.49,0.19
								c2-1.5,5.01-2.44,9.02-2.81l3.18,1.31c-0.25,3.38,0.57,6.82,2.44,10.33L213.69,43.59z M228.71,61.6
								c-7.01,0.12-8.42-0.04-8.82-1.13c-0.26-0.83-0.4-1.59,2.06-3l1.27-2.13c-4.07-1.85-7.83-4.06-8.03-9.13l3.38-1.32
								c1.5-1.74,1.54-3.06,0.1-3.93c-1.45-0.88-2.22-3.19-2.35-6.95c1.38-3.01,4.76-3.01,10.14,0c2.37-4.63,5.25-6,8.63-4.13
								c-3.63,0-5.75,1.57-6.38,4.69c-0.37,2-0.37,4.44,0,7.32c-1.24-1.75-2.74-3.26-4.5-4.51c-3.38-1.75-4.01-1.56-1.87,0.57
								c2.12,2.12,4,4.31,5.63,6.57c-2.76,2.25-5.76,3.26-9.02,3.01c-1.12,0.5-0.94,0.81,0.57,0.94c1.5,0.37,3.26,0.25,5.26-0.38
								c-0.25,2,0.4,5.33,1.27,7.33c1.19,1.71,2.78,3.21,4.63,4.59C229.8,60.25,229.08,60.72,228.71,61.6z M232.64,65.17
								c-0.12-1.5,1.19-2.35,3.94-2.54c2.76-0.19,3.19-0.97,1.32-2.35c-3.63-1.24-6.63-3.38-9.01-6.37c-1.63-2.13-1.63-3.64,0-4.51
								l2.81-0.75l1.32-1.69l-1.69-6.57c-0.5-3.38,0.44-5.75,2.81-7.13c3.38-0.5,6.7,0.5,9.94,3.01c0.13-1.75,1.29-2.29,3.47-1.6
								c2.19,0.7,4.23,5.35,6.1,13.99l3.01,1.13c1-2.39,1.82-3.57,2.44-3.57c1,0,2,2.07,3.01,6.2c2.49,2.25,3.69,5.94,3.56,11.07
								c-1.62,2.13-2.51,4.76-2.63,7.89l-1.5-3.38c-0.87-3.76-1.25-7.7-1.12-11.83c-0.13-1.74-0.32-1.74-0.57,0
								c-0.38,3.64-0.44,6.7-0.19,9.2c-3.38-4.38-7.01-8.32-10.89-11.83c-0.75-2.76-1-5.88-0.75-9.38
								c-0.37-3.01-0.69-3.69-0.94-2.07c-0.25,3.76-0.12,7.25,0.38,10.51c-2.89-2.88-6.26-7.07-10.14-12.58
								c-1-1.74-1.44-2.12-1.32-1.12c2.39,4.51,4.89,8.26,7.52,11.26c2.62,3.01,4.75,5.38,6.38,7.13c-3.26-1-6.08-1.66-8.45-1.97
								c-2.37-0.32-4.56-0.97-6.57-1.97c-1.87-0.38-1.81,0.07,0.19,1.32c1.13,0.74,3.41,1.44,6.85,2.06
								c3.44,0.63,6.67,1.69,9.67,3.19c1.62,1,3.81,3.56,6.57,7.7l2.25,5.06c-3.51-1.88-7.38-3.19-11.64-3.94
								c-4.25-0.75-6.75-1.44-7.5-2.07c-3.26-1.37-3.63-1.24-1.12,0.38c0.75,0.75,3.41,1.59,7.97,2.53
								c4.56,0.95,8.98,2.72,13.23,5.36l0.37,1.12c-0.87,1-1.19,2.37-0.94,4.13l1.32,3.76c-1.13-1.38-2.69-0.75-4.69,1.87
								c0.75-1.62,0.57-3.13-0.57-4.51c-1.75-2.63-6-5.44-12.77-8.44l-1.12,2.07C237.47,73.18,234.02,69.92,232.64,65.17z
								 M278.34,158.74c-1.31-1.94-3.19-4.91-5.63-8.92c-2.44-4.01-4.22-7.25-5.35-9.76c-1.12-2.51-1.31-5.06-0.56-7.69
								c0.07-0.22,0.12-0.44,0.19-0.64c0.4-1.41,0.76-2.63,1.09-3.64c0.22-0.66,0.41-1.24,0.6-1.73c0.5-1.37,0.44-1.62-0.19-0.75
								c-0.26,0.47-0.51,0.93-0.75,1.38c-0.98,1.9-1.73,3.76-2.24,5.59c-0.08,0.25-0.14,0.49-0.2,0.73l-0.19-0.52l-3.57-10.18
								c0.14-1.57,0.53-3.31,1.19-5.21c1.11-3.23,2.96-6.94,5.57-11.12c1.25-2.24,1.13-2.44-0.37-0.56
								c-2.93,3.9-5.05,7.84-6.38,11.82c-0.38,1.12-0.7,2.25-0.94,3.38l-1.39-3.09l-4.42-9.86c-0.13-2.37,1.37-6.87,4.5-13.51
								c1.63-3.51,1.25-3.38-1.12,0.37c-2,3.76-3.44,7.25-4.31,10.51c-0.57-2.28-1.11-4.44-1.66-6.5c-0.76-2.86-1.51-5.51-2.25-7.95
								c-0.39-1.31-0.77-2.56-1.17-3.75l-1.31-0.38l0.53,1.48l0.22,0.59c0.66,4.22,1.51,8.07,2.55,11.56
								c0.48,1.68,1.01,3.27,1.58,4.77c-1.1-0.98-2.25-1.87-3.49-2.69c-1.44-0.97-2.97-1.82-4.59-2.57c-1.63-0.87-1.63-0.69,0,0.57
								c1.48,0.87,2.82,1.74,4.02,2.63c1.72,1.24,3.13,2.51,4.24,3.76c1.5,3.51,2.88,6.7,4.13,9.57c-1.31-0.94-3.13-1.96-5.48-3.08
								c-1.71-0.81-3.7-1.66-5.97-2.55c-2-0.38-2-0.13,0,0.75c2.57,1.05,4.76,2.09,6.59,3.12c2.08,1.18,3.69,2.33,4.81,3.47
								c0.48,0.5,0.86,0.99,1.17,1.48l3.76,9.94c-1.37,0-3.19-2.06-5.45-6.2c-1.87-3.5-6.57-6.87-14.07-10.13
								c-1.5-0.63-2.19-1.94-2.07-3.94c0.25-1.37,1.69-1.94,4.32-1.69c-0.75-2.12-1.63-3.81-2.64-5.06l-1.49-2.25
								c-2-4.13-0.82-6.2,3.56-6.2c-1.62-2.51-2.19-4.44-1.69-5.82c-0.02-0.42-0.02-0.84-0.01-1.26c0.1-1.94,0.68-3.82,1.7-5.69
								c0.75-1.49,1.32-3,1.69-4.5c2.37,1.37,4.54,2.54,6.48,3.47c1.94,0.94,2.96,2.66,3.09,5.16l-0.94,5.82
								c0.37,1.12,1.37,0.75,3-1.13c1.63-2.24,2.94-3.56,3.94-3.94c1.38,0.63,2.69,1.75,3.94,3.39c1.25,2.37,0.82,6.75-1.31,13.14
								l-2.07,5.25c4.26-5.63,7.7-8.32,10.33-8.07c0.87,0.63,1.15,1.92,0.84,3.86c-0.31,1.94-0.31,3.96,0,6.1
								c0.32,2.12-0.4,3.94-2.16,5.44c-1.75,1.5-2.94,3.94-3.56,7.32c4-3,5.63-2.44,4.88,1.7l-2.25,8.07
								c-0.62,3.88,0,5.69,1.87,5.44c1.88-0.25,3.04,0,3.47,0.75c0.44,0.75,0.53,2.07,0.28,3.94c-1.12,2.62-1.62,4.35-1.5,5.16
								c0.13,0.82,0.47,1.5,1.03,2.06c0.57,0.57,1.79,0.45,3.66-0.37c1.87-0.82,2.81-0.25,2.81,1.69c0,1.94,0.03,3.82,0.1,5.63
								c0.07,1.82,0.65,3.59,1.79,5.35c0.84,1.21,1.91,2,3.22,2.39c0.05,0.02,0.1,0.04,0.15,0.05l1.69-2.06
								c-2.51,0.12-3.66-1.5-3.47-4.88c0.19-3.39,0.16-6.01-0.09-7.89c-1-2.37-2-3.69-3.01-3.94s-3.32-6.5-6.95-18.77l3.94,0.19
								c2.88,10.51,5.2,16.18,6.95,16.99c1.75,0.81,2.56,1.74,2.44,2.81c-0.13,1.07,0.19,3.34,0.94,6.85
								c2.25-0.62,3.56-2.69,3.94-6.2c0.62-3.25-0.32-5.75-2.82-7.5c-2.63-1.5-4.13-2.88-4.5-4.13c-0.75-2.12,0.05-3.44,2.44-3.94
								c1.37-0.75-1.94-3.76-9.96-9.01c-4.13-2.88-5.38-5.45-3.75-7.7c0.62-1.12,1.79-1.09,3.47,0.1s2.78,1.47,3.28,0.85
								c0.88-1.75,0.19-2.97-2.06-3.66c-2.25-0.7-3.32-1.47-3.19-2.35c-0.13-3.88-0.07-6.5,0.19-7.89c0.25-1.37,0.12-3-0.38-4.88
								c-1.37-1.99-4-1.87-7.88,0.38c0.87-2.12,1.09-4.19,0.65-6.2c-0.44-2-1.41-3.94-2.91-5.82L263.62,80
								c-0.5-2,0.62-3.38,3.38-4.13c-0.88-3.88-0.88-6.63,0-8.26c0.87-1.75,1.5-3.19,1.87-4.32c0.38-1.12,1.5-1.25,3.38-0.37
								c1.88,0.87,4.88,4.19,9.01,9.94c2-2.25,3.94-1.44,5.83,2.44c2.24,3.51,3.13,7.7,2.62,12.58c4.63-2.51,6.25-0.82,4.88,5.06
								c2,4.13,3.22,7.35,3.66,9.66c0.44,2.32,0.07,4.48-1.13,6.48c-1.19,2-1.74,3.53-1.69,4.6c0.07,1.07,0.5,1.03,1.32-0.1
								c0.82-1.12,2.47-2.06,4.98-2.81c1.62,3.51,2.31,5.82,2.06,6.94c0,1.38-0.84,2.89-2.53,4.51c-1.7,1.62-2.67,3.56-2.92,5.82
								c0,1.13,0.57,1.69,1.7,1.69l3.38-0.94c1.75-0.25,1.81,1.13,0.19,4.13c-1.75,3.26-3.04,6.01-3.85,8.26
								c-0.82,2.25-1.22,4.07-1.22,5.45c-0.13,2.88-0.63,4.56-1.5,5.06c0.25-3.63,0.15-7.41-0.28-11.35
								c-0.44-3.94-1.22-8.35-2.34-13.23c0.99-0.87,2.37-3.81,4.13-8.82c0.87-2.51,0.69-2.81-0.57-0.94
								c-1.37,3.76-2.76,6.07-4.13,6.95c-1.37-4.63-2.88-10.26-4.51-16.89c1.88-3.13,3.07-7.07,3.57-11.83
								c0.12-4.01-0.13-4.31-0.75-0.94c-0.75,4.75-2.12,8.44-4.13,11.08c-1.63-5.26-3.38-10.21-5.26-14.84
								c0.63-2.63,0.88-5.69,0.75-9.19c-0.12-3.51-0.44-3.63-0.94-0.38c0,2.64-0.32,4.89-0.94,6.76l-4.13-10.51l-2.62-6.01
								c-0.88-1.99-1.2-1.99-0.95,0l2.44,7.89c-1.87-2.12-3.63-3.69-5.25-4.69c-1.62-1-1.94-0.94-0.94,0.2
								c2.74,2.37,5.13,4.93,7.13,7.69c1.62,4.01,3.25,8.14,4.88,12.38c-4.76-4-8.07-6.25-9.96-6.75c-2.37-0.87-2.37-0.44,0,1.32
								c3.38,2.12,7.39,5.88,12.01,11.26c1.5,4.38,2.94,8.63,4.31,12.75c-2.37-1.37-5.25-4.13-8.63-8.26
								c-1.5-1.5-1.57-1.25-0.19,0.75c2.74,4.13,5.94,7.76,9.56,10.89l2.82,11.45c-2.88-2.89-6.63-5.83-11.26-8.82
								c-2-1.25-2.12-1-0.38,0.75c4.01,2.88,8.2,7.13,12.58,12.75c1.25,3.51,1.82,9.96,1.69,19.33c-0.12,2.39-1.87,4.13-5.25,5.26
								l-0.03,0.38l-0.72,8.63l-4.69,0.19C281.57,163.4,279.66,160.68,278.34,158.74z M284.47,167.54c0.75-0.25,2.44-0.04,4.06-0.04
								c-1.74,9.51-3.77,19.92-5.39,26.44l-2.64-1.5C282.76,183.42,283.96,173.29,284.47,167.54z M251.14,221.05
								c-0.7-0.57-2.79-2.29-6.3-5.16c-3.13-2.76-4.13-5.26-3-7.52c-0.88-1.12-1.67-2.44-2.35-3.93c-0.69-1.5-0.53-2.97,0.47-4.41
								c1-1.44,3.32-0.78,6.95,1.97c0.62-2.13,0.62-4.14,0-6.01c-0.62-1.87-1.37-3.76-2.25-5.63c-1.62-3.01-3.19-5.57-4.69-7.69
								c-0.73-1.54-1.15-2.71-1.27-3.53c0.1-0.44,0.2-0.87,0.27-1.31c0.02-0.02,0.04-0.03,0.07-0.04c0.75-0.38,1.94,0.12,3.57,1.5
								c3.13-3.39,5.18-4.36,6.19-2.92c1,1.45,1.82,3.86,2.44,7.23c0.63,3.38,0.69,6.88,0.2,10.51l-0.75,0.75l0.75,0.75
								c0.24,0.75-0.07,3.56-0.95,8.44c0,0.99,0.31,1.98,0.93,2.97c0.01,0.01,0.01,0.02,0.02,0.03c0-0.02-0.01-0.03-0.01-0.05
								c-0.24-1.48-0.31-2.58-0.19-3.32c0.13-0.63,0.53-2.1,1.22-4.41c0.69-2.32,1.03-3.63,1.03-3.94c0-0.32,0.03-0.53-0.97-0.65
								c1.13-0.38,1.32-0.91,1.62-1.6c0.32-0.69,0.38-1.37,0.2-2.06c-0.2-0.7-0.32-2.67-0.38-5.91c-0.07-3.26-0.37-5.73-0.94-7.42
								c-0.57-1.69-0.9-3.01-1.03-3.94c-0.12-0.94-0.87-1.47-2.25-1.59c-1.37-0.13-3.31,1.25-5.82,4.13
								c1.13-5.38,2.29-8.98,3.47-10.79c1.19-1.82,2.41-2.34,3.66-1.6c1.25,0.75,2.07,1.57,2.44,2.44c0.38,0.88,0.94,0.73,1.69-0.47
								c0.75-1.19,1.37-1.59,1.87-1.22c0.5,0.38,1.03,1.13,1.6,2.25c0.57,1.13,0.97,2.32,1.22,3.57c0.25,1.24,0.47,3.53,0.65,6.85
								c0.02,0.31,0.03,0.61,0.03,0.89c0.07,2.57-0.27,4.39-1.03,5.47c-0.05,0.11-0.14,0.21-0.22,0.29c-1,1.13-1.5,2.51-1.5,4.13
								c0.25,6.51,0.75,9.74,1.5,9.67c0.75-0.07,1.66-0.57,2.72-1.5s2-1.29,2.82-1.03c0.65,0.21,1.08,1.43,1.3,3.67
								c0.04,0.53,0.09,1.12,0.11,1.78c0.12,3.38,0.44,3.73,0.94,1.03c0.5-2.69,1.44-4.04,2.81-4.04c1.38,0,1.63,3.63,0.75,10.89
								c-4.88,4.38-8.38,8.01-10.51,10.88c-0.75-3.13-0.77-5.32-0.09-6.57c0.69-1.25,1.31-2.66,1.87-4.23
								c0.57-1.56,1.03-2.97,1.41-4.22c0.12-0.35,0.22-0.66,0.31-0.94c0.61-2,0.37-2.03-0.72-0.08c-0.04,0.08-0.09,0.16-0.14,0.26
								c-0.75,1.5-1.42,2.81-1.97,3.94c-0.57,1.12-1.22,2.24-1.97,3.38c-0.21-1.66-0.81-4.39-1.79-8.19
								c-0.2-0.78-0.41-1.63-0.65-2.52c-1.13-3.5-1.44-3.43-0.94,0.2c0.12,0.73,0.24,1.46,0.36,2.19c0.8,5.11,1.37,10.06,1.7,14.89
								c-2.12-2.25-4.28-4.19-6.47-5.82c-0.52-0.39-1.02-0.78-1.51-1.2c-1.57-1.27-2.97-2.64-4.22-4.06
								c-1.37-0.87-1.62-0.75-0.75,0.38c1.08,1.43,2.53,3.05,4.35,4.84c0.72,0.71,1.49,1.44,2.32,2.2c2.94,2.69,4.73,4.47,5.35,5.35
								c0.62,0.87,1,1.62,1.12,2.25c-1.12,1.5-2.44,3.06-3.93,4.68c-0.32-0.17-0.59-0.4-0.8-0.66c-0.4-0.48-0.63-1.1-0.71-1.86
								C252.22,222.49,251.82,221.61,251.14,221.05z M240.83,239.83c1.59,0,3.83,0.81,3.27,2.16c-0.56,1.34-1.19,3.62-2.45,3.76
								c-1.25,0.14-3.7-1.62-3.7-3.21C237.94,240.95,239.23,239.83,240.83,239.83z M183.84,289.65c1.5-1.75,3.44-3.32,5.82-4.69
								c10.64-5.25,17.71-8.32,21.21-9.19c0.63-0.25,1.2-0.07,1.7,0.56l1.49,1.88l-2.06,1.31c-1.25,1-2.82,1.44-4.69,1.32
								c-1.62-0.13-3.81,0.4-6.57,1.59c-2.76,1.2-4.26,2.85-4.51,4.98c-0.5,1.5-1.19,2.44-2.06,2.82c-2.76,1.49-5.26,2.81-7.5,3.93
								l-5.83-0.37L183.84,289.65z M198.86,290.96c-0.63-2.12,0.12-3.81,2.24-5.07c2-1.5,4.19-2.12,6.57-1.87
								c1,0.12,1.07,1.94,0.2,5.45c-0.75,1.74-4.44,3.88-11.08,6.37l-6.2-0.74l6.58-3.76l1.69,2.63h0.94L198.86,290.96z
								 M162.82,291.91l1.9,1.8l-4.15-1.99L162.82,291.91z M98.72,275.2c1.07-0.5,2.42-0.37,4.04,0.37l9.01,4.32l15.39,5.82
								c3.76,4.01,6.07,6.75,6.95,8.26c-3.14,0.38-6.51,0.63-10.14,0.75l-8.07-5.63c-3.26-3.88-5.63-6.69-7.13-8.44
								c-1.5-1.75-2.94-3.01-4.31-3.76c-2-1.12-3.63-1.5-4.88-1.12c-0.87,0.25-1.82,1.5-2.82,3.75l-0.37-0.37
								C96.88,277.02,97.66,275.7,98.72,275.2z M107.45,283.27c-1.75,0.87-3.51,0.87-5.26,0l-3.01-2.25c1-2.51,2.32-3.31,3.94-2.44
								l3.01,2.63L107.45,283.27z M74.79,177.41c-0.23,3.44-0.78,7.4-1.67,11.86c-0.57,2.84-1.26,5.89-2.08,9.16
								c-0.13-6.88-0.45-11.51-0.94-13.89l0.84-2.33l0.85-2.36c0.12-1.62-0.2-1.69-0.95-0.19l-0.37,0.68l-0.75,1.38l-0.19-3.75
								l0.33-0.41l2.48-3.16C74.23,172.53,75.04,173.53,74.79,177.41z M71.98,167.28c1.62-0.38,1.94,0.37,0.94,2.24l-3.56,5.26
								c-0.16-1.36-0.35-2.6-0.57-3.71c-0.08-0.61-0.15-1.23-0.21-1.85C69.77,168.4,70.9,167.76,71.98,167.28z M57.15,176.1
								c2.63-10.39,5.13-15.89,7.5-16.52c1.37,3.63,2.51,10.36,3.38,20.18c0.87,9.81,0.87,18.67,0,26.56
								c-1.12,10.01-2.82,16.76-5.06,20.27l-2.44,5.25c0-5.46,0.04-10.21,0.14-14.24c0.03-1.51,0.08-2.93,0.12-4.24
								c0.01-0.16,0.01-0.32,0.02-0.48c0.19-4.88,0.37-11.36,0.56-19.43c0.19-8.06,0.72-17.23,1.6-27.49
								c0.5-2.51,0.37-3.06-0.38-1.69c-2,10.38-3.19,23.71-3.56,39.97l-0.1,5.71l-0.09,5l-0.12,4.79l-0.25,9.48l-0.01,0.37
								l-2.44-2.82c-0.09-0.45-0.17-0.88-0.25-1.33c-0.13-0.68-0.26-1.36-0.37-2.05c-1.13-6.71-1.7-13.66-1.68-20.87
								c0-1.1,0.01-2.22,0.04-3.34C54.15,192.05,55.27,184.36,57.15,176.1z M40.54,207.54c0.59-2.61,1.39-5.26,2.42-7.94
								c2.55-6.71,6.47-13.62,11.75-20.68c-1.25,5.13-1.95,8.94-2.07,11.45c-2.53,4.37-4.79,8.72-6.8,13.06
								c-2.35,5.12-4.35,10.21-5.97,15.28c-0.75,2.88-1.37,6.32-1.87,10.33C37.62,223.9,38.47,216.73,40.54,207.54z M52.83,223.21
								l-4.13-5.26l3.01-7.5C51.58,214.57,51.96,218.83,52.83,223.21z M138.24,20.88c0,2.37-1.44,5-4.32,7.89
								c-4.38,4-9.85,7.69-16.41,11.07c-6.58,3.38-15.12,7.38-25.63,12.01v-1.12c12.77-9.51,24.59-17.28,35.48-23.28
								c2.88-1.75,2.62-2.25-0.75-1.5c-3.75,1.87-7.88,4.19-12.38,6.95c-7.5,4.88-14.82,9.69-21.96,14.44l0.19-2.24
								c14.27-12.52,25.97-20.59,35.09-24.21C132.04,19.87,135.6,19.87,138.24,20.88z M95.91,25.37
								c6.82-5.63,14.99-10.01,24.5-13.14c4.63-1.25,8.63-1.81,12.01-1.69c1.62,0.38,2.06,1.32,1.31,2.82l-4.13,5.44
								c-3.63,0.5-8.6,2.57-14.92,6.2c-6.32,3.63-13.1,8.44-20.37,14.45l-2.63,1.69c-1.37-1-3.88-0.57-7.5,1.31
								c11.51-9.63,21.52-16.95,30.03-21.96c5.5-2.74,8.69-4.68,9.57-5.82c-2.76,0.75-6.63,2.47-11.64,5.16
								c-5,2.69-13.26,8.29-24.77,16.8l-11.08,9.96C82.56,38.07,89.09,31.01,95.91,25.37z M84.36,46.21c2-1.12,3.38-1.56,4.13-1.32
								c0.5,1.25,0.63,2.97,0.38,5.16c-0.25,2.19-1.88,6.8-4.88,13.8l-1.43,2.78l-2.32,4.51l-3.2,6.23
								c-4.88,0.62-9.51,2.88-13.89,6.75c2.25-3.88,4.98-8.32,8.17-13.33c3.18-5,8.16-12.5,14.91-22.51
								c1.13-1.88,1.17-2.35,0.1-1.42c-1.07,0.95-3.91,4.54-8.54,10.79c-4.63,6.26-10.83,15.96-18.58,29.09
								c-0.34,0.51-0.74,1.13-1.22,1.87c-0.19,0.29-0.39,0.6-0.6,0.93c-0.27,0.41-0.57,0.87-0.88,1.35
								c-0.15,0.24-0.32,0.48-0.48,0.74c-0.17,0.26-0.35,0.52-0.53,0.81c-0.14,0.21-0.28,0.42-0.42,0.65
								c-0.29,0.45-0.6,0.92-0.92,1.41C54,94.75,53.84,95,53.68,95.25c-0.16,0.25-0.33,0.51-0.5,0.77c-0.17,0.26-0.35,0.52-0.52,0.8
								c-0.17,0.27-0.36,0.54-0.53,0.83c-0.34,0.51-0.69,1.03-1.03,1.58c-0.23,0.35-0.47,0.71-0.7,1.08
								c-0.37,0.56-0.74,1.12-1.12,1.71c-0.04,0.07-0.09,0.13-0.12,0.2c-0.42,0.65-0.86,1.33-1.32,2.02
								c-0.23,0.35-0.46,0.7-0.69,1.06c-0.28,0.42-0.57,0.86-0.85,1.31c-0.58,0.88-1.18,1.8-1.79,2.73c-0.1,0.15-0.2,0.29-0.28,0.45
								c-0.25,0.39-0.51,0.8-0.77,1.2c-0.63,0.63-2.51,1-5.63,1.12l-6.2,18.21c0.5,0.75,2.07,0.5,4.69-0.75
								c-1.25,2.37-3.13,3.69-5.63,3.94l-1.5-1.12l-0.75-2.82l0.19-1.69l1.5,0.19l6.57-16.7l-3.94-4.88l0.95-2.82
								c1.24,2.63,2.44,4.06,3.56,4.31c1.75-3.38,4.28-7.97,7.6-13.79c3.31-5.82,7.22-11.73,11.73-17.74l-0.19-1.49
								c0-0.88,0.44-0.95,1.31-0.2l9.39-13.51l-7.7,13.32c1.25,1.37,0.69,2.32-1.69,2.82C49.7,88,43.57,98.58,39.32,109.09
								l1.87,0.56c1.12,0.5,2.19,0.01,3.19-1.49l11.45-20.27l10.88-20.27C71.85,58.48,77.73,51.34,84.36,46.21z M43.45,113.59
								c-2.64,4.88-4.63,9.26-6.01,13.15l-1.5-0.2l3.94-12.2L43.45,113.59z M35,134.06l-3.75,10.13l-2.64,8.82l0.94-7.5l1.32-5.45
								l1.12-5.45L35,134.06z M28.81,125.04c0.87-5.62,2.06-10.75,3.56-15.39l1.5,1.88L28.81,125.04z M56.4,57.66
								c2.12-4.38,5.25-9.32,9.38-14.82c1.25-2.88,0.57-2.82-2.06,0.19c-6.13,7.64-13.27,19.72-21.4,36.23l3.57-9.01
								c0.62-2,2.62-6.54,6-13.62c3.38-7.07,6.7-12.67,9.94-16.8c3.26-4.13,5.51-6.82,6.76-8.07c4.5-3.88,7.12-5.69,7.88-5.44
								c0.63,0.49,0.82,1.31,0.57,2.44l-9.19,23.65C61.84,64.04,53.96,76.18,44.2,88.82c-4.14,4.5-6.7,7.38-7.7,8.63
								c-1,1.25-1.82,2.44-2.44,3.57l0.75-3.19l3.56-5.63C43.39,84.06,49.39,72.55,56.4,57.66z M31.06,194.68
								c0-2.51-0.28-4.07-0.84-4.69c-0.57-0.63-1.13-1.79-1.69-3.47c-0.57-1.69-1.42-4.19-2.54-7.5c-1.12-3.32-1.94-6.3-2.44-8.92
								h-0.01c-3.35-1.5-5.82-4.05-7.31-7.6c-1.5-3.56-2.91-8.22-4.23-13.99c-1.31-5.75-1.84-12.64-1.59-20.64
								c0.62-9.51,2-18.77,4.13-27.78c3.13-12.52,9.51-24.4,19.15-35.66c2.12-2.39,3.43-2.94,3.93-1.7
								c0.5,5.01,0.47,9.86-0.09,14.55c-0.57,4.69-1.79,9.91-3.66,15.67c-4.88,16.26-7.82,27.21-8.82,32.84
								c-1.87,6.63-3.94,15.27-6.2,25.9c-1-5.13-0.4-15.91,1.79-32.37S25.62,91.13,29,84.13c1.62-3.63,1.56-4.19-0.19-1.69
								c-7.64,13.02-12.08,32.22-13.33,57.62c-0.25,8.89,0.25,15.29,1.5,19.24c1.25,3.94,2.69,6.23,4.31,6.85
								c0.88,0.5,1.82,0.44,2.82-0.19c0.75-4.75,1.25-8.61,1.5-11.55c0.25-2.94,0.59-6.38,1.02-10.31c0.45-3.94,1.22-7.23,2.35-9.86
								l0.75,0.75c-1.25,5.75-1.92,9.76-1.97,12.01c-0.07,2.24-0.22,4.5-0.47,6.75c-0.25,2.25-0.5,6.57-0.75,12.95
								c1.5-5.13,3.13-10.01,4.88-14.64l5.82-16.89l5.13-12.19l2.37-5.64c0.02-0.04,0.04-0.08,0.07-0.12
								c0.75-1.47,1.57-2.97,2.43-4.51c0.4-0.72,0.82-1.44,1.25-2.18c0.45-0.76,0.9-1.55,1.38-2.33c0.07-0.12,0.14-0.23,0.21-0.35
								c0.41-0.68,0.83-1.35,1.25-2.04c0.62-1,1.26-2.03,1.93-3.06c0.74-1.15,1.51-2.33,2.31-3.53c0.2-0.31,0.4-0.61,0.61-0.92
								c1.82-2.7,3.77-5.49,5.84-8.38c1.15-1.36,2.28-2.55,3.37-3.56c0.38-0.37,0.75-0.71,1.12-1.01l0.56-0.46
								c0.27-0.22,0.54-0.44,0.82-0.63c0.26-0.2,0.53-0.39,0.8-0.57c0.17-0.12,0.35-0.23,0.52-0.34c0.4-0.25,0.81-0.47,1.19-0.66
								c0.21-0.11,0.42-0.21,0.64-0.29c0.21-0.1,0.41-0.17,0.62-0.25c0.03-0.01,0.07-0.02,0.09-0.03c0.21-0.08,0.41-0.14,0.63-0.2
								c0.19-0.05,0.37-0.1,0.56-0.13c0.05-0.01,0.11-0.02,0.16-0.03c0.01,0,0.01,0,0.02,0c0.03-0.01,0.05-0.01,0.09-0.02
								c0.15-0.03,0.31-0.04,0.46-0.07c0.56,0.81,0.75,2.15,0.6,4.04v0.04c-0.01,0.04-0.01,0.1-0.01,0.14
								c-0.02,0.12-0.03,0.23-0.04,0.35c-0.02,0.2-0.04,0.38-0.08,0.58c-0.03,0.25-0.08,0.52-0.12,0.8
								c-0.05,0.31-0.11,0.61-0.17,0.93c-0.01,0.03-0.02,0.08-0.02,0.11c-0.04,0.2-0.09,0.38-0.13,0.58v0.01
								c0,0.03-0.01,0.08-0.02,0.12c-0.87,3.89-2.37,7.95-4.51,12.2c-0.14,0.05-0.31,0.13-0.13,0.23c-0.21,0.39-0.41,0.78-0.63,1.17
								c-0.03,0.08-0.08,0.15-0.12,0.23c-0.47,0.85-0.94,1.68-1.39,2.49c-0.25,0.45-0.51,0.88-0.76,1.33c-0.5,0.87-1,1.73-1.5,2.57
								c-1.03,1.73-2.07,3.39-3.09,4.99c-0.24,0.39-0.49,0.77-0.74,1.14c-0.31,0.47-0.62,0.94-0.93,1.39
								c-0.09,0.14-0.19,0.27-0.28,0.41c-0.09,0.14-0.17,0.27-0.27,0.4c-0.25,0.37-0.49,0.72-0.74,1.08
								c-0.31,0.44-0.6,0.86-0.9,1.29c-0.31,0.42-0.61,0.85-0.9,1.25c-0.31,0.41-0.61,0.82-0.9,1.22c-0.31,0.4-0.61,0.8-0.9,1.19
								c-0.02,0.02-0.03,0.04-0.05,0.07c-0.47,0.61-0.95,1.21-1.42,1.79c-0.74,0.92-1.48,1.79-2.22,2.63
								c-0.47,0.53-0.95,1.06-1.42,1.57c-0.01,0.01-0.02,0.01-0.02,0.02c-0.48,0.51-0.96,1.01-1.43,1.49
								c-0.42,0.42-0.86,0.85-1.29,1.25c-0.05,0.05-0.1,0.1-0.15,0.15c-0.37,0.35-0.75,0.7-1.12,1.03h-0.01
								c-0.1,0.1-0.21,0.2-0.31,0.28l0.21-0.34l9.55-15.5l-2.8-0.32c-0.05,0.09-0.12,0.19-0.17,0.27c-0.24,0.38-0.48,0.75-0.72,1.12
								c-0.24,0.37-0.46,0.73-0.69,1.09c-1.54,2.41-2.85,4.53-3.98,6.36c-0.29,0.48-0.57,0.95-0.83,1.38
								c-0.23,0.38-0.45,0.75-0.65,1.11c-0.23,0.37-0.44,0.73-0.63,1.08c-0.48,0.84-0.89,1.57-1.23,2.2
								c-0.11,0.21-0.22,0.41-0.32,0.6c-2.49,4.88-4.93,9.44-7.32,13.7c-2.37,4.25-3.94,7.57-4.68,9.94
								c-0.75,2.37-2.32,6.63-4.69,12.77c0,1.12,0.75,4.38,2.25,9.76c1.49,5.38,2.78,8.54,3.85,9.48c1.06,0.94,1.15,1.97,0.28,3.09
								c-0.38,1-0.13,2.89,0.75,5.63c0.62,3.01,2.06,7.13,4.31,12.4l-0.57,1.87C35.06,206.69,32.94,200.94,31.06,194.68z
								 M24.87,138.94c-1.25,10.01-2.32,17.83-3.19,23.46l-0.75-1.5C20.18,159.76,21.48,152.44,24.87,138.94z M84.36,279.89
								l-2.44-3.19c-0.75-0.88-1.79-1.07-3.09-0.57c-1.32,0.5-2.35-0.25-3.1-2.25c-3.38,2-6.82,1.25-10.31-2.24l-6.2-7.52
								l-5.82-9.94l-2.07-1.5c-0.01,0.01-0.02,0.01-0.03,0.01c-0.11,0.08-0.23,0.14-0.34,0.21c-0.23,0.12-0.47,0.23-0.71,0.33
								c0,0,0,0-0.01,0c-0.74,0.26-1.55,0.38-2.4,0.33c-0.17-0.01-0.34-0.03-0.51-0.05c-0.17-0.03-0.34-0.05-0.5-0.1l-7.5-4.85
								c-1.75-1.62-5.51-8.07-11.26-19.33c-7.64-14.51-12.83-25.47-15.59-32.84c-1.99-6.13-3.31-10.01-3.94-11.64
								c-0.62-1.62-0.87-1.66-0.74-0.09c0.12,1.56,1.06,5.06,2.81,10.51c1.75,5.44,5.01,13.42,9.76,23.93
								c4.13,8.51,8.2,16.26,12.2,23.27c-9.26-10.01-15.96-19.39-20.09-28.15c-4.13-8.64-6.87-16.64-8.26-24.03
								c-0.62-2.63-1-6.67-1.12-12.11c-0.13-5.44-0.07-8.47,0.19-9.09c0.62-1.88,1.5-2.69,2.63-2.44c0.75,0,2.47,1.78,5.16,5.35
								c2.69,3.56,6.35,11.57,10.98,24.03c4.63,12.45,7.48,20.61,8.54,24.49c1.07,3.88,2.13,7.27,3.19,10.14
								c1.07,2.88,2.35,5.82,3.85,8.82c2.25,4.5,4.51,7.57,6.76,9.19c0.46,0.32,0.88,0.6,1.3,0.84c0.24,0.13,0.47,0.26,0.69,0.37
								c0.16,0.08,0.33,0.15,0.49,0.23c0.2,0.08,0.39,0.15,0.58,0.22c0.17,0.07,0.35,0.11,0.52,0.15c0.16,0.03,0.33,0.07,0.48,0.09
								c0.11,0.02,0.23,0.02,0.34,0.02c0.03,0.01,0.08,0.01,0.11,0.01c0.13,0,0.26-0.01,0.38-0.02c0.13-0.01,0.25-0.03,0.37-0.07
								c0.12-0.02,0.23-0.05,0.35-0.1c0.11-0.04,0.22-0.09,0.33-0.14c0.11-0.07,0.23-0.13,0.34-0.22c0.1-0.08,0.21-0.16,0.31-0.26
								l-5.06-10.31c-0.88-1.88-0.76-3.73-2.52-3.22l0.68,1.21c-0.61-0.26-1.31-0.28-2.1-0.05c-0.13,0.01-0.25,0.01-0.37,0.01h-0.07
								c-0.03,0-0.07,0-0.1-0.01c-0.09,0-0.16,0-0.24-0.01c-0.51-0.04-0.96-0.16-1.34-0.36c-0.27-0.14-0.51-0.33-0.72-0.53
								c-0.07-0.09-0.14-0.17-0.21-0.26c-0.05-0.09-0.12-0.19-0.17-0.28c-0.08-0.14-0.14-0.29-0.21-0.46
								c-0.05-0.16-0.11-0.34-0.14-0.52c-0.03-0.19-0.07-0.38-0.09-0.58c-0.02-0.2-0.03-0.4-0.03-0.62v-0.07
								c0-0.04,0-0.08,0.01-0.12v-0.14c0-0.13,0.01-0.27,0.02-0.4c0.01-0.23,0.04-0.47,0.08-0.71c0.25-2.25,1.07-6.13,2.44-11.63
								c0.22-0.73,0.44-1.45,0.68-2.18c0.11-0.34,0.22-0.68,0.33-1.01c0.11-0.34,0.22-0.68,0.34-1.01c0.26-0.77,0.52-1.55,0.81-2.32
								c0.25-0.71,0.51-1.43,0.78-2.15c0.01-0.01,0.01-0.01,0.01-0.02c0.13-0.36,0.27-0.72,0.41-1.08c0.13-0.36,0.28-0.72,0.42-1.08
								c0-0.01,0-0.01,0.01-0.02c0.28-0.72,0.58-1.43,0.88-2.15c0.29-0.71,0.61-1.43,0.93-2.15c0.31-0.71,0.63-1.42,0.96-2.13
								c0.01-0.01,0.01-0.03,0.02-0.04c0.39-0.86,0.81-1.71,1.22-2.57c0.41-0.85,0.84-1.7,1.26-2.54c0.02-0.03,0.03-0.07,0.04-0.09
								c0.03-0.05,0.05-0.12,0.09-0.17c0.08-0.14,0.14-0.27,0.22-0.41c0.02-0.05,0.05-0.1,0.08-0.15c0.05-0.1,0.11-0.2,0.16-0.29
								c0.22-0.41,0.45-0.84,0.66-1.25c0.49-0.93,0.99-1.85,1.51-2.78c-0.44,2.88-0.73,5.42-0.86,7.65
								c-0.01,0.29-0.03,0.59-0.04,0.87c-0.02,0.44-0.03,0.85-0.03,1.25v0.37c-4.63,10.38-8.01,18.77-10.14,25.15
								c-1.12,4.63-1.06,6.88,0.2,6.75l1.49-0.75l-1.12-2.63l0.75-2.06l2.25,3.93l1.31-0.94l1.13,1.69l-1.13,1.7l8.45,12.2
								l2.06-1.69l1.5,1.69c-2.51,2.49-3.51,4.13-3.01,4.88c2.25,4.13,4.32,7.44,6.2,9.94c3.76,5.5,6.82,7.07,9.19,4.69
								c0.75-0.63,1.7-0.5,2.82,0.37c1.12,0.88,2.37,2.76,3.76,5.63l-0.2-4.31l-6.94-6.57l-3.94-7.89
								c-3.26-4.63-5.57-8.19-6.95-10.7c-1.37-2.51-3.09-5.51-5.16-9.01c-2.06-3.51-4.6-7.45-7.59-11.83l0.56-2.07l6.01,7.32
								c5.38,6.88,9.16,12.11,11.35,15.67c2.19,3.57,3.47,4.41,3.85,2.54l1.13-3.56l1.69,0.94l-1.12,7.32l-0.38,2.25
								c-0.12,1.74,0.22,2.78,1.03,3.09c0.81,0.32,1.54,1.47,2.16,3.47c0.37,1.25,2.34,3.85,5.91,7.79
								c3.56,3.94,7.32,7.25,11.26,9.94c3.94,2.69,7.19,4.88,9.76,6.57c2.56,1.69,3.78,3.34,3.66,4.98l3.56,0.75l-0.94-4.51
								l2.25-0.56c1.12,0.74,2.06,2.12,2.81,4.13c3.26,2.49,6.07,4.5,8.45,6l-8.26,1.5l-14.08-8.45L84.36,279.89z M49.82,235.98
								l1.13-1.13l5.25,8.82l-0.56,1.12L49.82,235.98z M58.65,253.61l2.07-2.63l4.88,6.95l2.81,5.06l0.95,2.81
								c-1.75-0.87-3.26-2.19-4.51-3.93l-3.01-3.94L58.65,253.61z M102.01,298.85l-11.26,1.88l2.62-7.52L102.01,298.85z
								 M128.85,333.95c-5.25,5.13-11.2,10.01-17.83,14.64l-2.25-0.75c3.88-2.39,9.39-6.26,16.52-11.64l3.19-3.56l-1.69-0.19
								c-2.39,2.12-5.11,4.28-8.17,6.47c-3.06,2.19-6.6,4.29-10.61,6.28l-5.44,2.64l0.94,1.12l4.13,0.57
								c2.37,1.5,3.38,3.01,3.01,4.5c-1.25,1.88-3.26,2.13-6.01,0.75l-4.5-2.44c-1.63-1.62-3.26-2.74-4.88-3.38l-1.88-1.5l0.75-1.87
								l5.63,2.25h1.69l-0.94-3.38l6.75-4.14c1.75-0.62,2.51-1.69,2.25-3.18l0.57-3.39c2.88,0.63,6,0.16,9.39-1.4
								c3.38-1.57,6.57-2.47,9.56-2.72C130.92,330.88,130.85,332.32,128.85,333.95z M124.35,326.15c-6.51,1.45-12.4,2.72-17.65,3.86
								c-13.14,2.37-26.09,4.31-38.85,5.82c-3.26-0.88-12.65-5.7-28.16-14.45c-11.01-6.63-18.7-12.01-23.09-16.14
								c-5-5.38-7-8.64-6-9.76c3.26-5.38,5.45-10.13,6.57-14.27c0.5-1.74,0.63-3.13,0.38-4.13c-1.38-4.25-0.38-6.44,3-6.57
								c8.39-0.5,14.02-0.62,16.89-0.37c1.25,0.12,2.07-0.25,2.44-1.13l2.82-5.63l-1.69-0.75l-2.44,3.76l-0.2-4.31
								c0-0.63,0.38-0.82,1.13-0.57c5.25,1.37,7.69,3.13,7.32,5.26c-1.63,2.74-2.39,5.87-2.25,9.38l0.19,9.76
								c-6.63-4.38-13.76-8.26-21.39-11.63c0.87-0.13,1.87-0.22,3-0.28c1.13-0.07,1.88-0.47,2.25-1.22
								c0.38-0.75-0.31-1.19-2.06-1.32c-3.88,0-6.38,0.32-7.52,0.94c-0.87,1-0.69,2.07,0.57,3.19c9.01,4.51,16.96,9.02,23.84,13.52
								c10.88,6.88,19.32,12.52,25.34,16.89c5.88-0.12,14.14-0.94,24.78-2.44l16.13-3.01c6.63-1.25,13.52-2.31,20.65-3.19
								c2.63-0.37,5.95-0.62,9.94-0.75c4.01-0.12,7.7-0.44,11.08-0.94c3.26,6.13,5.25,11.51,6,16.14c0.38,2.37,0.07,3.69-0.94,3.94
								C141.55,321.25,130.85,324.72,124.35,326.15z M172.39,320.05l-0.94-3l-5.08,6.38l-4.13,2.63c-1.87,1.62-3.81,2.25-5.82,1.87
								l-6.57-3.19l3.38-1.69l0.94,0.75c-0.62,1.87,0.13,1.62,2.25-0.75l5.82-5.63c0.38-3.38-0.44-7.72-2.44-13.04
								c-1.99-5.33-3.5-8.67-4.5-10.04c-0.25-1.13-3.13-1.38-8.64-0.75c3.26-1.63,7.07-1.75,11.45-0.38l4.51,1.88l2.44-1.06
								l1.31,1.24c6.38,6.88,9.99,11.57,10.79,14.07c0.82,2.51,0.91,4.95,0.28,7.32C175.09,319.8,173.4,320.94,172.39,320.05z
								 M192.85,346.71c-1.12-0.87-1.44-1.74-0.94-2.63l3.76,3.19C194.92,347.77,193.98,347.59,192.85,346.71z M217.25,347.09
								l2.07,0.37l-0.75,0.94l-4.88,1.5c-2.12,1.88-4.63,3.13-7.5,3.76l-3.19-0.57l-0.75-2.25c0.75-1.12,1.72-1.94,2.91-2.44
								c1.19-0.5,2.72-0.94,4.6-1.31l4.51,0.75L217.25,347.09z M210.31,345.02c-3.38,0-5.51,0.38-6.38,1.13h-2.62
								c-3.64-2.51-6.51-4.83-8.64-6.95l-8.82-6.95c1.62-0.87,5.13-0.56,10.51,0.95L210.31,345.02z M237.15,306.83
								c3.63,0.3,6.38,0.15,8.26-0.48c3.38-1.37,10.33-6.5,20.84-15.39c10.13-7.62,18.7-12.95,25.72-15.95
								c2.12-1.25,2.22-2.16,0.27-2.72c-1.94-0.57-4.85-0.85-8.72-0.85c-1.25,1-1.12,1.82,0.38,2.44c1.74-0.12,3,0,3.75,0.38
								c-8.38,4.38-15.39,8.76-21.02,13.14c0.5-2.88,0.94-7.82,1.32-14.82c-0.13-2.25-0.88-4.26-2.25-6.01
								c-0.87-1.25,0.32-2.37,3.57-3.38l2.63-0.75v4.13l-3.57-0.94l0.38,1.87c0.75,1.38,2.12,2.32,4.13,2.82l10.13,0.57l4.51-0.2
								c5.26,0.13,7.82,1.42,7.7,3.86c-0.13,2.44,0.05,4.72,0.56,6.85c0.88,5.38,3.01,10.51,6.38,15.39
								c-0.75,2.24-2.37,4.88-4.88,7.88l-9.76,6.38c-8.39,6.01-19.77,13.83-34.16,23.46c-10.26,0.25-22.59-0.56-36.98-2.44
								c-10.38-1.37-22.33-4-35.85-7.89l-3.01-0.74l1.32-1.32c2.12-2.76,3.28-4.6,3.47-5.53c0.19-0.95-0.13-3.07-0.95-6.38
								c-0.81-3.32-3.16-7.23-7.04-11.73v-1.13l2.82-0.37c7.76,0.5,14.67,1.5,20.74,3.01c6.07,1.49,13.29,2.88,21.68,4.13
								C227.64,305.61,233.52,306.51,237.15,306.83z M223.08,301.85c-3.26-0.5-8.52-1.44-15.77-2.82l6.57-2.24
								c3.51,0.75,5.51,0,6.01-2.25C220.38,297.16,221.44,299.6,223.08,301.85z M262.3,246.49c-2.51,2.74-3.31,5.62-2.44,8.63
								c-3.51,1.88-6.88,4.63-10.14,8.26c-3.25,3.64-5.72,6.7-7.41,9.2c-1.69,2.51-3.47,4-5.35,4.5c-2.13,1-4.57,0.5-7.32-1.5
								l-0.75,4.69l-12.58,7.7l-6.19,2.62c0.49-1.25,0.81-3.38,0.94-6.38l2.24-1.87c8.64-4.51,13.65-8.64,15.02-12.38
								c1.75-3.14,3.63-5.73,5.63-7.8c2-2.06,3.44-4.6,4.31-7.6l0.2-4.5l-0.57-4.69c2,2.25,3.81,2.76,5.45,1.5
								c2.62-4.88,5.43-9.42,8.44-13.6c3.01-4.19,6.2-8.1,9.57-11.73c3.38-3.63,6.25-6.7,8.63-9.2l-0.19,4.69
								c-7.5,9.26-12.2,15.58-14.07,18.96c-6.38,9.63-10.7,17.26-12.95,22.9c-1.38,3.13-3.38,5.63-6.01,7.5
								c-1.99,1-3.5,2.07-4.5,3.19c-0.88,1.62-0.38,2.07,1.5,1.32c1.25-1.25,2.62-2.19,4.13-2.82c2.76-1.37,8.63-7.89,17.65-19.52
								l-0.2-6.57l2.07-3.56c-0.13,3.63,0.19,5.62,0.94,6c0.75,0.37,1.79-0.65,3.09-3.09c1.32-2.44,4.54-9.17,9.67-20.18
								c-1.13,3.38-1.19,6.32-0.19,8.82c-3.01,2.12-3.82,5.76-2.44,10.89L262.3,246.49z M304.44,204.81
								c-0.45,3.13-1.47,5.82-3.1,8.07c-5.13,5.88-7.25,9.39-6.38,10.51c1.38,2.37,1.13,5.06-0.75,8.07
								c-2.74,3.38-6.38,7.13-10.88,11.26c1.25,2.51,0.32,4.63-2.82,6.38c-3.63,2-7.62,3.75-12,5.25
								c8.13-6.13,13.14-12.7,15.01-19.7c2.62-2.37,4.95-3.94,6.95-4.69c1.75-1.12,2.06-1.62,0.94-1.5
								c-2.25,0.88-4.63,2.25-7.13,4.13c2.37-4.75,4.06-9.88,5.07-15.39c4.88-4.75,7.95-8.51,9.2-11.26
								c1.75-2.63,1.81-3.19,0.19-1.69c-1.87,3.14-4.76,6.45-8.64,9.96c1.75-5.38,3.32-11.39,4.69-18.03
								c0.62-3.88,0.44-4.56-0.57-2.06l-1.87,6.57c-0.87-2.62-1.87-4.63-3.01-6l2.44,7.88c-0.5,3.13-1.69,7.57-3.56,13.33
								c-1.75-5.01-4.06-9.51-6.95-13.52c-2.62-3.26-3.06-3.31-1.31-0.19c2.88,4.13,5.25,9.57,7.13,16.33
								c-1.5,6-3.26,11.01-5.26,15.01c-1.5-2.24-3.06-3.81-4.69-4.68c-1.25-0.63-1.25-0.25,0,1.12c1.63,1.62,2.94,3.26,3.94,4.88
								c-1.5,3.63-3.47,6.82-5.91,9.57c-2.44,2.76-4.85,5.06-7.22,6.95c3.01-4.63,4.01-9.76,3.01-15.39c0-1,0.77-1.82,2.34-2.45
								c1.57-0.62,2.09-1.31,1.6-2.06c-1.38-2.76-2.07-4.95-2.07-6.57c1-0.5,2.51-0.5,4.51,0c1.62-1.13,1.46-2.72-0.48-4.79
								c-1.94-2.06-3.16-5.03-3.66-8.91c0-2.25,1.5-3.07,4.51-2.44c1.37-0.13,1.5-1.75,0.37-4.88l-3.18-4.31
								c-2.25-5.01-1.32-6.83,2.81-5.45l4.88,3.01c3.26,1.24,4.81-0.95,4.69-6.58c0-1.24,0.97-1.52,2.91-0.84
								c1.94,0.69,3.73-0.78,5.35-4.41c1.62-1.75,2.88-0.13,3.76,4.88c-0.38,6.63,1.24,9.76,4.88,9.39
								C304.78,199.93,304.88,201.69,304.44,204.81z M310.06,188.67c0.2,1.25-0.09,2.29-0.84,3.09c-0.75,0.82-2.19,1.54-4.31,2.17
								l-2.07-3.76c0.13-3.01-0.87-5.88-3.01-8.64c0.88-0.75,2.25-1.5,4.13-2.24c1.38-0.63,1.13-0.82-0.74-0.57
								c-2,0.37-3.57,0.87-4.69,1.5h-0.38c1.13-4.01,2.94-7.82,5.45-11.45c0.62-1.63,0.25-1.57-1.12,0.19
								c-2.13,3-4.01,6.19-5.63,9.57c-0.75-0.75-1.32-2.13-1.69-4.14c-0.5-2.37-0.88-2.44-1.13-0.19c0.38,2.88,0.94,4.95,1.69,6.2
								c-2.76,4.25-4.95,5.95-6.57,5.06c1-6,2.32-12.32,3.94-18.95c2.88-2.88,5.38-3.82,7.5-2.82c3.01-2.37,5.57-2.81,7.7-1.31
								c1.12,1.87,1.62,3.71,1.5,5.53c-0.13,1.82-0.75,3.84-1.88,6.1c2.39,0,3.63,0.94,3.76,2.81c-1,4.26-3.01,7.33-6,9.2
								C308.41,186.55,309.88,187.42,310.06,188.67z"/>
						</g>
					</g>
				</g>
			</g>
			<g>
				<g>
					<g>
						<path class="st0" d="M133.3,320.87c1.68-0.44,3.35-0.88,4.6-2.57l0.85,1.24l-0.92-6.29l-0.41,0.44
							c0.04,3.36-0.77,5.88-3.7,6.75c-4.2,0.47-5.91-3.7-6.83-7.89c-0.47-4.19-0.12-9.22,4.09-9.7c2.51-0.44,4.63,1.62,5.52,4.56
							l0.44-0.01l-0.93-5.45l-0.43,0.01l0.02,1.25c-1.69-0.81-2.95-1.22-5.07-0.76c-4.59,0.47-7.06,5.13-6.57,10.57
							C124.86,318.47,128.7,321.78,133.3,320.87"/>
					</g>
				</g>
				<g>
					<g>
						<path class="st0" d="M183.26,302.53l0.01,0.83c0.83-0.01,1.66,0.41,1.67,1.24c0.42,0.84,0.03,2.52,0.04,3.36l-1.15,7.99
							c0.01,0.83-0.36,2.94-0.81,3.35c-0.42,0.85-1.25,0.86-2.06,0.87l0.01,0.41c1.26,0.41,2.08,0.4,3.36,0.38
							c1.25,0.39,2.1,0.38,3.36,0.81l-0.01-0.85c-0.82,0.01-1.66,0.02-1.68-1.22c-0.01-0.44-0.03-2.52,0.36-3.38l0.75-7.96
							c0.39-0.87,0.37-2.53,0.8-3.38c0.39-0.85,1.63-0.87,2.08-0.88l0.42-0.41c-1.27,0.02-2.52-0.4-3.79-0.38
							C185.79,303.33,184.5,302.93,183.26,302.53"/>
					</g>
				</g>
				<g>
					<g>
						<path class="st0" d="M117.84,306.39c0.01,0.84,0.44,2.5,0.45,3.34l1.37,7.98c0.01,0.82,0.45,2.49,0.04,3.33
							c0.02,1.27-0.81,1.28-1.65,1.29l0.01,0.4c1.26-0.02,2.51-0.03,3.34-0.45l3.35-0.04l-0.01-0.86c-0.82,0.01-1.67,0.02-2.12-0.81
							c-0.4-0.41-0.85-2.51-0.86-3.33l-0.95-7.97c-0.43-0.85-0.45-2.5-0.46-3.38c0.4-0.81,1.25-1.26,1.67-1.26l-0.01-0.42
							c-0.84,0.01-2.1,0.45-3.35,0.47c-0.84,0.01-2.12,0.03-3.37,0.48l0.42,0.4C116.15,305.57,116.98,305.56,117.84,306.39"/>
					</g>
				</g>
				<g>
					<g>
						<path class="st0" d="M26.69,293.69c2.1,1.26,4.2,1.23,6.26-1.34c2.07-2.95,0.37-5.02-1.76-6.68
							c-0.43-0.41-1.27-1.25-2.12-1.65c-1.28-0.82-2.13-1.65-3.41-2.48l0.01,0.85c0.43,0.41,1.28,0.82,0.89,1.67
							c-0.43,0.84-1.67,2.53-2.09,2.96l-4.53,6.38c-0.41,0.82-1.66,2.52-2.49,2.95c-0.83,0.42-1.25,0.02-2.11-0.4l-0.39,0.43
							c1.25,0.39,2.1,1.23,2.97,2.04c0.83,0.42,1.68,1.25,2.53,1.66l0.41-0.43c-0.84-0.42-1.27-0.83-1.28-1.67
							c0.41-0.85,1.63-2.53,2.06-3.37l2.05-2.55c0.85,0.84,0.85,0.84,0.87,2.09l-0.34,6.72l-0.39,2.11c0.42,0.41,1.27,0.4,1.71,0.81
							c0.41,0.43,0.83,0.84,1.28,1.26l0.4-0.42c-0.86-0.84-0.87-1.26-0.88-2.52L26.69,293.69z M24.53,291.21l3.71-5.07
							c0.43-0.01,0.42-0.43,0.85-0.44c0,0,0.85,0.41,1.26,0.82c1.27,0.84,1.3,2.93,0.06,4.61C27.94,294.1,26.68,292.87,24.53,291.21
							"/>
					</g>
				</g>
				<g>
					<g>
						<path class="st0" d="M99.5,317.84c-0.86-0.83-2.12-0.81-3.39-0.79c1.66-0.89,3.36-2.15,2.89-4.66
							c-0.46-3.36-3.4-3.76-5.91-3.29c-0.87,0.01-1.71,0.45-2.52,0.46c-1.28,0.02-2.11,0.03-3.38,0.47l0.01,0.41
							c0.86-0.01,1.69-0.02,2.12,0.8c0.44,0.43,0.88,2.5,0.89,3.36l0.93,7.97c0.01,0.82,0.45,2.51,0.46,3.36
							c0.02,1.26-1.23,1.28-1.64,1.28l0.01,0.82c1.24-0.43,2.49-0.85,3.78-0.87c0.82-0.01,2.09-0.03,2.49-0.46
							c1.27-0.02,2.95-0.04,4.2-1.32c0.81-0.86,1.65-2.12,1.62-4.23C101.62,319.89,100.75,318.65,99.5,317.84 M92.23,310.37
							c0,0,0.87-0.01,1.28-0.43c1.66-0.02,2.51,0.8,2.96,2.89c0.02,1.25,0.03,2.5-0.78,3.35c-0.43,0.42-1.26,0.43-2.08,0.89
							l-0.42,0.01l-0.94-5.45L92.23,310.37z M96.64,325.85c-0.83,0.01-1.66,0.02-2.11-0.82c-0.43-0.83-0.45-2.11-0.86-2.94
							l-0.47-3.77l0.82-0.01c0.85-0.01,1.69-0.43,2.94-0.04c0.85,0.81,1.72,1.66,1.74,3.34C99.15,323.71,98.33,325.39,96.64,325.85"
							/>
					</g>
				</g>
				<g>
					<g>
						<path class="st0" d="M103.38,324.92l0.01,0.43c3.78-0.48,7.97-1.36,11.76-1.84l1.24-0.02l-0.46-5.04l-0.84,0.43
							c0.02,1.27,0.03,2.53-0.81,3.37c-0.81,0.87-2.1,0.88-2.92,1.3c-2.94,0.46-3.78-0.36-4.26-3.73l-0.94-7.94
							c-0.01-0.87-0.46-2.95-0.47-3.79c0.41-0.83,1.24-0.84,2.08-0.86l-0.41-0.84c-0.83,0.45-2.11,0.46-3.36,0.48
							c-0.84,0.42-2.11,0.44-3.36,0.45l0.43,0.82c0.44-0.42,1.67-0.43,2.11,0.39c0.01,0.86,0.46,2.94,0.47,3.78l1.36,7.53
							c0.01,0.84,0.46,2.94,0.05,3.78C105.06,324.49,104.22,324.5,103.38,324.92"/>
					</g>
				</g>
				<g>
					<g>
						<path class="st0" d="M86.14,319.68c-0.83-0.44-2.09-0.42-3.36-0.41c1.66-0.84,2.91-2.1,2.46-4.62
							c-0.48-3.77-3.85-4.14-5.94-3.7c-0.83,0.42-1.66,0.43-2.94,0.44c-0.83,0.45-2.1,0.46-2.92,0.47l0.01,0.84
							c0.82-0.44,1.68-0.45,2.1,0.38c0.01,0.82,0.46,2.93,0.47,3.75l1.37,7.57c0.01,0.84,0.47,2.93,0.48,3.75
							c-0.42,0.84-1.28,0.85-2.1,1.29l0.01,0.44c1.69-0.02,2.51-0.47,4.21-0.49c0.82-0.43,1.66-0.45,2.93-0.46
							c1.27-0.02,2.93-0.45,3.76-1.3c1.27-1.28,2.06-2.53,1.63-4.23C88.28,321.75,87.42,320.48,86.14,319.68 M78.07,313.49
							l-0.01-0.84c0.43-0.43,1.26-0.45,1.26-0.45c2.09-0.44,2.96,0.8,3.41,2.91c0.02,1.23,0.03,2.1-0.8,2.95
							c-0.43,0.83-1.26,0.84-2.09,0.86l-0.83,0.4L78.07,313.49z M82.89,327.69c-0.83,0.42-1.67,0.43-2.12-0.38
							c-0.4-0.86-0.86-2.53-0.87-3.36l-0.47-3.37l0.43-0.01c1.26-0.42,2.52-0.44,3.35-0.04c1.26,0.42,1.7,1.67,2.15,2.92
							C85.81,325.99,84.98,327.66,82.89,327.69"/>
					</g>
				</g>
				<g>
					<g>
						<path class="st0" d="M145.02,318.65l-0.01-0.85c-0.85,0.01-2.12,0.46-2.13-0.81c-0.42-0.82,0.39-2.94,0.37-4.19l-0.01-0.84
							l5.45-0.94l1.74,2.94c0.01,0.42,0.42,1.26,0.42,1.67c0.45,1.25-0.82,1.26-1.22,1.7l0.01,0.41c0.84-0.01,2.09-0.44,3.35-0.45
							c0.84-0.44,2.09-0.46,2.93-0.47l-0.01-0.83c-0.83,0.01-1.66,0.02-2.09-0.4c-0.44-0.82-1.29-2.09-1.72-2.91l-6.48-12.93
							l-0.83,0.01l-1.98,11.33c-0.38,1.71-0.36,3.38-0.75,5.48c-0.42,1.27-0.83,1.71-2.07,2.15l0.01,0.41
							c0.85-0.01,1.66-0.02,2.51-0.45L145.02,318.65z M145.24,303.63l3.44,6.67l-4.63,0.47L145.24,303.63z"/>
					</g>
				</g>
				<g>
					<g>
						<path class="st0" d="M254.1,322.7c0.45,1.67,0.03,2.1-0.82,2.94l0.44,0.41c0.42-0.42,1.25-0.84,2.1-1.27
							c0.83-0.44,1.21-0.86,2.06-1.3l-0.43-0.41c-0.43,0.42-1.65,0.87-2.09,0.03c-0.43-1.23-0.87-3.34-0.88-4.17l-0.44-0.83l5-2.59
							l2.12,1.67c0.84,0.38,1.27,1.22,1.69,1.64c0.45,0.83-0.39,1.68-1.23,1.69l0.43,0.84c0.82-0.85,2.1-1.29,2.93-1.72
							c0.83-0.85,2.08-1.29,2.92-1.72l-0.43-0.43c-0.43,0.01-1.27,0.45-2.1,0.03c-0.84-0.38-2.12-1.64-2.56-2.06l-11.03-9.5
							l-0.86,0.01l2.25,11.31C253.62,318.93,254.08,321.01,254.1,322.7 M258.2,314.68l-4.18,2.16l-1.36-7.13L258.2,314.68z"/>
					</g>
				</g>
				<g>
					<g>
						<path class="st0" d="M261.99,302.03l5.99,8.31c0.85,0.84,1.7,2.07,2.16,2.93c0.43,1.25,0.02,1.67-0.81,2.52l0.4,0.42
							c0.85-0.86,1.26-1.28,2.1-1.71c0.84-0.43,1.66-0.85,2.07-1.71l-0.01-0.43c-0.83,0.44-1.66,0.88-2.51,0.46
							c-0.84-0.82-2.11-2.06-2.56-2.9l-5.56-7.47l15.21,4.82c0.86,0.43,1.69,0.83,2.53,0.82l0.42-0.42l-6.83-9.17
							c-0.88-1.23-2.58-3.3-3.01-4.14c-0.45-1.24,0.4-1.25,0.82-2.1l-0.43-0.44c-0.84,0.46-1.25,0.86-1.65,1.72
							c-0.86,0.43-1.69,0.86-2.52,1.29l0.43,0.43c1.24-0.45,1.69-0.87,2.94-0.04c0.86,0.81,1.71,2.5,2.56,3.3l4.72,6.26l-16.47-5.25
							c-0.41,0.43-1.24,0.86-1.67,0.86c-0.42,0.84-0.84,0.84-1.67,1.26l0.44,0.87C259.87,301.62,260.73,301.61,261.99,302.03"/>
					</g>
				</g>
				<g>
					<g>
						<path class="st0" d="M56.29,309.35c2.07-2.98,0.35-5.47-1.75-6.68c-0.84-0.42-1.7-1.26-2.54-1.65
							c-0.86-0.83-2.13-1.23-2.98-2.07l-0.42,0.44c0.85,0.41,1.69,0.81,1.29,2.06c-0.41,0.46-1.66,2.14-2.05,2.98l-4.11,6.34
							c-0.41,0.86-1.67,2.53-2.49,2.98c-0.43,0.85-1.27,0.02-2.12-0.41l0.01,0.86c0.85,0.41,1.68,1.22,2.53,1.61
							c1.28,0.86,2.14,1.27,2.98,2.08l0.41-0.41c-0.86-0.83-1.68-1.25-1.27-2.1c-0.01-0.82,1.21-2.54,1.61-3.38l2.07-2.54
							c0,0,0.85,0.83,1.27,0.83C50.85,311.93,54.23,312.73,56.29,309.35 M53.77,308.13c-1.25,2.11-2.94,2.55-4.61,1.31
							c-0.43-0.4-0.85-0.4-0.86-0.82l3.3-5.07c0.82-1.28,0.82-1.28,1.69-0.43C54.97,304.33,55.42,306.02,53.77,308.13"/>
					</g>
				</g>
				<g>
					<g>
						<path class="st0" d="M283.43,302.92c0.02,1.28,0.02,1.69-0.8,2.52l0.42,0.84c0.41-0.85,1.27-1.3,1.68-1.69
							c0.83-0.42,1.65-0.88,2.07-1.3l-0.44-0.84c-0.4,0.43-1.23,1.28-2.07,0.45c-0.44-0.83-1.32-2.92-1.34-4.18l-0.42-0.41l4.6-3.42
							l2.52,1.65c0.44,0.42,1.29,0.82,1.7,1.23c0.43,0.83-0.38,1.7-0.8,2.11l0.43,0.43c0.81-0.85,1.66-1.3,2.48-2.15
							c0.82-0.85,1.67-1.27,2.5-1.71l-0.01-0.84c-0.84,0.44-1.69,0.86-2.52,0.46c-0.43,0.01-2.12-1.24-2.53-1.65l-12.32-8.24
							l-0.4,0.44l3.51,10.86C282.12,299.15,282.57,300.83,283.43,302.92 M286.26,294.07l-3.74,2.99l-2.61-7.11L286.26,294.07z"/>
					</g>
				</g>
				<g>
					<g>
						<path class="st0" d="M67.77,310.69l0.01,0.82c0.43,0.43,1.28,0.83,0.45,2.11c-0.41,0.83-3.73,3.84-4.55,4.68l-5.42,4.25
							l1.56-7.14c0.43-1.29,1.64-5.48,2.05-6.35c0.41-0.82,1.69-0.44,2.1-0.03l0.42-0.42c-1.27-0.38-2.11-1.22-2.97-1.62
							c-0.84-0.41-1.72-1.24-2.55-1.66l-0.4,0.43c1.24,1.25,0.85,2.51,0.46,4.19l-3.57,15.13l0.84,0.43L67,316.14
							c1.67-1.28,3.33-3.39,5.02-2.17l-0.01-0.4c-0.44-0.42-1.26-0.82-2.12-1.24C69.46,311.92,68.62,311.5,67.77,310.69"/>
					</g>
				</g>
				<g>
					<g>
						<path class="st0" d="M234.2,329.1l1.19-5.05l-0.86,0.01c-0.38,1.67-0.37,2.52-2.07,3.39c-0.83,0.42-2.08,0.03-3.36,0.04
							c-2.52-0.4-2.95-1.23-2.58-4.58l1.15-8.01c0.43-0.82,0.4-2.94,0.81-3.77c0.4-0.83,1.68-0.43,2.1-0.44l0.4-0.85
							c-1.26,0.02-2.51,0.03-3.79-0.39c-0.84,0.01-2.11-0.35-2.94-0.34l-0.43,0.39c0.84-0.01,1.67,0.42,2.12,1.26
							c0.01,0.82-0.4,2.92-0.39,3.77l-1.13,7.57c-0.42,0.85-0.82,2.96-0.81,3.37c-0.83,0.85-1.67,0.86-2.49,0.87l0.01,0.42
							c4.19,0.8,7.98,1.16,12.2,1.95C233.34,328.7,234.19,328.69,234.2,329.1"/>
					</g>
				</g>
				<g>
					<g>
						<path class="st0" d="M39.78,309.29c-2.07,2.08-3.33,1.69-5.45,0.45c-0.85-0.37-1.7-1.24-1.71-2.51
							c-0.01-0.82,0.81-1.69,1.22-2.52l2.48-3.81c2.11,1.24,2.96,2.07,1.32,4.59l0.43,0.43c0.82-0.87,1.24-1.69,2.05-2.96
							c0.43-0.84,1.26-1.68,2.07-2.98l-0.42,0.01c-1.23,1.3-2.49,2.57-5.02,0.49l3.71-5.51c0.84-0.85,0.84-0.85,1.24-0.42l1.28,0.82
							c2.11,1.66,2.98,2.49,1.32,5.01l0.42,0.41l2.49-3.39l-8.91-6.2l-0.83,0.46c0.84,0.41,1.69,0.82,1.28,2.07
							c-0.41,0.42-1.65,2.13-2.05,2.98l-4.14,5.93c-0.83,0.83-2.09,2.52-2.48,2.95c-0.84,0.45-1.67,0.02-2.12-0.39l-0.4,0.42
							l10.17,7.43l2.46-3.76L39.78,309.29z"/>
					</g>
				</g>
				<g>
					<g>
						<path class="st0" d="M217.8,324.81c-0.41-0.84-0.44-2.51-0.89-3.35l-2.7-14.24l-0.84-0.39l-4.91,10.12
							c-0.83,1.7-1.65,3.38-2.46,5.07c-0.85,1.27-1.25,1.71-2.51,1.72l-0.4,0.41c0.83-0.01,1.67,0.41,2.53,0.4
							c0.83-0.01,1.66,0.39,2.51,0.38l-0.01-0.41c-0.42-0.43-1.68-0.41-1.7-1.66c0.41-0.86,1.22-2.96,1.63-3.8l0.42-0.86l5.88,0.77
							l0.45,2.93l0.03,2.53c0.01,0.84-1.24,0.43-1.67,0.43l-0.41,0.87c1.26-0.02,2.5-0.03,3.36,0.36c1.29-0.02,2.52,0.39,3.36,0.38
							l-0.01-0.43C218.64,325.66,218.22,325.67,217.8,324.81 M209.29,317.38l3.29-6.77l1.35,7.53L209.29,317.38z"/>
					</g>
				</g>
				<g>
					<g>
						<path class="st0" d="M205.88,310.1l0.44,0.4l0.78-4.22l-14.31-2.33l-0.79,4.22l0.85,0.41c0.36-3.34,1.19-3.35,3.74-2.99
							c0.82-0.01,2.11,0.4,1.69,0.81l-1.51,13.04c-0.37,2.11-0.82,2.54-3.34,2.57l0.01,0.41c1.27,0.41,2.53,0.39,3.8,0.37
							c1.25,0.4,2.52,0.8,3.77,0.78l-0.01-0.41c-2.1-0.81-2.1-1.22-2.13-3.34l1.92-13.03c-0.01-0.82,1.28-0.44,2.53-0.46
							C205.42,306.72,206.28,307.57,205.88,310.1"/>
					</g>
				</g>
				<g>
					<g>
						<path class="st0" d="M241.67,312.56c0.01,0.44,0.45,2.52,0.46,3.35l0.54,7.97c0.01,0.84,0.43,2.51,0.04,3.36
							c0.02,1.25-1.24,1.27-1.68,1.27l0.01,0.41c1.26-0.02,2.09-0.03,3.36-0.45l3.36-0.04l-0.01-0.41c-0.82,0.01-1.66,0.02-2.1-0.81
							c-0.44-0.84-0.47-2.93-0.48-3.76l-0.94-7.56l-0.05-3.76c0.38-0.86,1.26-0.87,2.09-0.88l-0.01-0.84
							c-1.26,0.02-2.53,0.46-3.36,0.47l-3.36,0.04l0.01,0.86C240.39,311.76,241.25,311.31,241.67,312.56"/>
					</g>
				</g>
			</g>
		</g>
	</g>
	<g>
		<path class="st0" d="M8.08,426.37h4.54v42.2h21.46v4.08H8.08V426.37z"/>
		<path class="st0" d="M38.04,425.71h4.74l-3.69,11.32h-3.62L38.04,425.71z"/>
		<path class="st0" d="M76.29,457.91H57.66l-5.27,14.75h-4.8l16.99-46.28h4.87l16.99,46.28h-4.81L76.29,457.91z M66.94,431.18
			c0,0-0.99,3.82-1.78,5.99l-6.19,16.79h15.93l-6.06-16.79c-0.79-2.17-1.78-5.99-1.78-5.99H66.94z"/>
		<path class="st0" d="M115.14,425.58c10.73,0,16.46,5.4,16.46,5.4l-2.44,3.42c0,0-5.4-4.61-13.83-4.61
			c-11.19,0-18.76,8.63-18.76,19.62c0,11.39,7.83,19.82,18.37,19.82c9.02,0,14.55-6.78,14.55-6.78v-7.84h-7.9v-4.08h12.25v22.12
			h-4.21v-3.49c0-0.99,0.07-1.97,0.07-1.97h-0.13c0,0-5.33,6.25-15.08,6.25c-12.64,0-22.65-10.2-22.65-23.96
			C91.83,436.12,101.84,425.58,115.14,425.58z"/>
		<path class="st0" d="M146.08,426.37h26.07v4.08h-21.53v16.85h17.58v4.08h-17.58v17.18h22.71v4.08h-27.26V426.37z"/>
		<path class="st0" d="M184.93,426.37h4.41l23.63,33.31c1.58,2.3,3.82,6.26,3.82,6.26h0.13c0,0-0.4-3.82-0.4-6.26v-33.31h4.54v46.28
			h-4.41l-23.63-33.31c-1.58-2.3-3.82-6.25-3.82-6.25h-0.13c0,0,0.4,3.82,0.4,6.25v33.31h-4.54V426.37z"/>
		<path class="st0" d="M231.87,469.43l23.9-34.76c1.71-2.43,3.23-4.21,3.23-4.21v-0.13c0,0-1.12,0.13-3.36,0.13h-22.52v-4.08h31.54
			v3.23l-23.9,34.76c-1.71,2.5-3.29,4.21-3.29,4.21v0.13c0,0,1.19-0.13,3.42-0.13h23.96v4.08h-32.98V469.43z"/>
		<path class="st0" d="M276.18,426.37h4.54v46.28h-4.54V426.37z"/>
		<path class="st0" d="M318.25,457.91h-18.63l-5.27,14.75h-4.8l16.99-46.28h4.87l16.99,46.28h-4.81L318.25,457.91z M308.9,431.18
			c0,0-0.99,3.82-1.78,5.99l-6.19,16.79h15.93l-6.06-16.79c-0.79-2.17-1.78-5.99-1.78-5.99H308.9z"/>
		<path class="st0" d="M356.17,426.37h14.94c13.89,0,23.24,8.49,23.24,23.11c0,14.75-9.35,23.17-23.24,23.17h-14.94V426.37z
			 M370.65,468.57c11.39,0,18.96-6.72,18.96-19.09c0-12.31-7.64-19.03-18.96-19.03h-9.94v38.12H370.65z"/>
		<path class="st0" d="M406.14,426.37h26.07v4.08h-21.53v16.85h17.58v4.08h-17.58v17.18h22.71v4.08h-27.26V426.37z"/>
		<path class="st0" d="M444.99,426.37h4.54v42.2h21.46v4.08h-26.01V426.37z"/>
		<path class="st0" d="M480.34,426.37h4.54v42.2h21.46v4.08h-26.01V426.37z"/>
		<path class="st0" d="M515.7,426.37h26.07v4.08h-21.53v16.85h17.58v4.08h-17.58v17.18h22.71v4.08H515.7V426.37z"/>
		<path class="st0" d="M596.35,457.91h-18.63l-5.27,14.75h-4.8l16.99-46.28h4.87l16.99,46.28h-4.81L596.35,457.91z M587,431.18
			c0,0-0.99,3.82-1.78,5.99l-6.19,16.79h15.93l-6.06-16.79c-0.79-2.17-1.78-5.99-1.78-5.99H587z"/>
		<path class="st0" d="M635.13,425.58c11.06,0,16.66,5.99,16.66,5.99l-2.44,3.36c0,0-5.4-5.14-14.09-5.14
			c-10.86,0-18.63,8.43-18.63,19.36c0,11.06,7.77,20.08,18.76,20.08c9.35,0,15.01-6.19,15.01-6.19l2.63,3.23
			c0,0-6.32,7.18-17.71,7.18c-13.69,0-23.44-10.73-23.44-24.23C611.89,435.79,621.9,425.58,635.13,425.58z"/>
		<path class="st0" d="M683.92,425.58c11.06,0,16.66,5.99,16.66,5.99l-2.44,3.36c0,0-5.4-5.14-14.09-5.14
			c-10.86,0-18.63,8.43-18.63,19.36c0,11.06,7.77,20.08,18.76,20.08c9.35,0,15.01-6.19,15.01-6.19l2.63,3.23
			c0,0-6.32,7.18-17.71,7.18c-13.69,0-23.44-10.73-23.44-24.23C660.68,435.79,670.68,425.58,683.92,425.58z"/>
		<path class="st0" d="M712.95,426.37h4.54v46.28h-4.54V426.37z"/>
		<path class="st0" d="M731.45,464.03c0,0,4.81,5.07,12.11,5.07c5.07,0,9.22-3.03,9.22-8.03c0-11.65-23.11-8.69-23.11-23.04
			c0-6.65,5.86-12.44,14.42-12.44c8.03,0,12.38,4.48,12.38,4.48l-2.24,3.82c0,0-4.08-3.95-10.14-3.95c-5.93,0-9.74,3.88-9.74,7.97
			c0,10.99,23.11,7.84,23.11,23.04c0,6.91-5.33,12.51-14.02,12.51c-9.48,0-14.68-5.92-14.68-5.92L731.45,464.03z"/>
		<path class="st0" d="M768.85,426.37h26.07v4.08h-21.53v16.85h17.58v4.08h-17.58v17.18h22.71v4.08h-27.26V426.37z"/>
		<path class="st0" d="M807.1,467.26h4.94l-4.87,11.79h-3.82L807.1,467.26z"/>
		<path class="st0" d="M843.97,426.37h14.94c13.89,0,23.24,8.49,23.24,23.11c0,14.75-9.35,23.17-23.24,23.17h-14.94V426.37z
			 M858.45,468.57c11.39,0,18.96-6.72,18.96-19.09c0-12.31-7.64-19.03-18.96-19.03h-9.94v38.12H858.45z"/>
		<path class="st0" d="M914.35,425.58c13.1,0,23.57,10.34,23.57,23.63c0,13.56-10.47,24.23-23.57,24.23
			c-13.1,0-23.57-10.67-23.57-24.23C890.78,435.92,901.25,425.58,914.35,425.58z M914.35,469.23c10.4,0,18.83-8.69,18.83-20.01
			c0-11.06-8.43-19.42-18.83-19.42c-10.47,0-18.83,8.36-18.83,19.42C895.52,460.54,903.88,469.23,914.35,469.23z"/>
		<path class="st0" d="M969.65,425.58c10.73,0,16.46,5.4,16.46,5.4l-2.43,3.42c0,0-5.4-4.61-13.83-4.61
			c-11.19,0-18.76,8.63-18.76,19.62c0,11.39,7.83,19.82,18.37,19.82c9.02,0,14.55-6.78,14.55-6.78v-7.84h-7.9v-4.08h12.25v22.12
			h-4.21v-3.49c0-0.99,0.06-1.97,0.06-1.97h-0.13c0,0-5.33,6.25-15.08,6.25c-12.64,0-22.65-10.2-22.65-23.96
			C946.35,436.12,956.36,425.58,969.65,425.58z"/>
		<path class="st0" d="M1023.45,457.91h-18.63l-5.27,14.75h-4.8l16.99-46.28h4.87l16.99,46.28h-4.81L1023.45,457.91z M1014.1,431.18
			c0,0-0.99,3.82-1.78,5.99l-6.19,16.79h15.93l-6.06-16.79c-0.79-2.17-1.78-5.99-1.78-5.99H1014.1z"/>
		<path class="st0" d="M1042.41,426.37h4.41l23.63,33.31c1.58,2.3,3.82,6.26,3.82,6.26h0.13c0,0-0.4-3.82-0.4-6.26v-33.31h4.54
			v46.28h-4.41l-23.63-33.31c-1.58-2.3-3.82-6.25-3.82-6.25h-0.13c0,0,0.4,3.82,0.4,6.25v33.31h-4.54V426.37z"/>
		<path class="st0" d="M1093.24,426.37h26.07v4.08h-21.53v16.85h17.58v4.08h-17.58v17.18h22.71v4.08h-27.26V426.37z"/>
		<path class="st0" d="M1151.04,426.37h26.07v4.08h-21.53v16.85h17.58v4.08h-17.58v17.18h22.71v4.08h-27.26V426.37z"/>
		<path class="st0" d="M1211.09,426.37h4.74l12.11,27.19c1.06,2.37,2.24,5.66,2.24,5.66h0.13c0,0,1.25-3.29,2.3-5.66l12.12-27.19
			h4.67l3.69,46.28h-4.54l-2.57-32.39c-0.2-2.5-0.13-6.45-0.13-6.45h-0.13c0,0-1.38,4.08-2.44,6.45l-10.86,23.77h-4.28l-10.86-23.77
			c-1.05-2.3-2.5-6.58-2.5-6.58h-0.13c0,0,0.07,4.08-0.13,6.58l-2.57,32.39h-4.54L1211.09,426.37z"/>
		<path class="st0" d="M1286.73,425.58c13.1,0,23.57,10.34,23.57,23.63c0,13.56-10.47,24.23-23.57,24.23
			c-13.1,0-23.57-10.67-23.57-24.23C1263.17,435.92,1273.63,425.58,1286.73,425.58z M1286.73,469.23c10.4,0,18.83-8.69,18.83-20.01
			c0-11.06-8.43-19.42-18.83-19.42c-10.47,0-18.83,8.36-18.83,19.42C1267.91,460.54,1276.27,469.23,1286.73,469.23z"/>
		<path class="st0" d="M1321.83,426.37h4.41l23.64,33.31c1.58,2.3,3.82,6.26,3.82,6.26h0.13c0,0-0.4-3.82-0.4-6.26v-33.31h4.54
			v46.28h-4.41l-23.63-33.31c-1.58-2.3-3.82-6.25-3.82-6.25h-0.13c0,0,0.4,3.82,0.4,6.25v33.31h-4.54V426.37z"/>
		<path class="st0" d="M1393.06,425.58c13.1,0,23.57,10.34,23.57,23.63c0,13.56-10.47,24.23-23.57,24.23
			c-13.1,0-23.57-10.67-23.57-24.23C1369.49,435.92,1379.96,425.58,1393.06,425.58z M1393.06,469.23c10.4,0,18.83-8.69,18.83-20.01
			c0-11.06-8.43-19.42-18.83-19.42c-10.47,0-18.83,8.36-18.83,19.42C1374.23,460.54,1382.59,469.23,1393.06,469.23z"/>
		<path class="st0" d="M1428.16,426.37h16c8.3,0,14.29,5.4,14.29,13.96c0,8.62-5.99,14.15-14.29,14.15h-11.46v18.17h-4.54V426.37z
			 M1443.56,450.4c6.19,0,10.2-3.75,10.2-10.07c0-6.26-4.01-9.88-10.14-9.88h-10.93v19.95H1443.56z"/>
		<path class="st0" d="M1489.19,425.58c13.1,0,23.57,10.34,23.57,23.63c0,13.56-10.47,24.23-23.57,24.23s-23.57-10.67-23.57-24.23
			C1465.62,435.92,1476.08,425.58,1489.19,425.58z M1489.19,469.23c10.4,0,18.83-8.69,18.83-20.01c0-11.06-8.43-19.42-18.83-19.42
			c-10.47,0-18.83,8.36-18.83,19.42C1470.36,460.54,1478.72,469.23,1489.19,469.23z"/>
		<path class="st0" d="M1524.28,426.37h4.54v42.2h21.46v4.08h-26.01V426.37z"/>
		<path class="st0" d="M1559.63,426.37h4.54v46.28h-4.54V426.37z"/>
	</g>
</g>
</svg>
