<?xml version="1.0" encoding="utf-8"?>
<!-- Generator: Adobe Illustrator 26.0.3, SVG Export Plug-In . SVG Version: 6.00 Build 0)  -->
<svg version="1.1" id="Livello_1" xmlns="http://www.w3.org/2000/svg" xmlns:xlink="http://www.w3.org/1999/xlink" x="0px" y="0px"
	 viewBox="0 0 1726 547.17" style="enable-background:new 0 0 1726 547.17;" xml:space="preserve">
<style type="text/css">
	.st0{fill:#003399;}
	.st1{fill:#009245;}
	.st2{fill:#C1272D;}
	.st3{fill-rule:evenodd;clip-rule:evenodd;fill:#003399;}
</style>
<g>
	<g>
		<g>
			<g>
				<g>
					<path class="st0" d="M1292.91,400.18h97.82l12.23-178.97c2.22-30.01,0-66.69,0-66.69h1.1c0,0,13.34,41.69,22.23,66.69
						l41.69,115.05h83.37l41.68-115.05c8.89-25,22.24-66.69,22.24-66.69h1.12c0,0-2.23,36.68,0,66.69l12.22,178.97h97.26
						L1693.63,2.79h-105.6l-57.8,167.84c-8.89,25.57-20,65.58-20,65.58h-1.11c0,0-11.12-40.01-20.01-65.58L1431.3,2.79h-105.6
						L1292.91,400.18z"/>
				</g>
			</g>
			<g>
				<g>
					<path class="st0" d="M777.71,2.79H675.45L540.39,400.18h100.04l23.9-83.37h123.94l24.46,83.37h100.04L777.71,2.79z M687.12,239
						l22.79-77.26c7.23-25.01,16.12-68.36,16.12-68.36h1.11c0,0,8.9,43.35,16.12,68.36L765.48,239H687.12z"/>
				</g>
			</g>
			<g>
				<g>
					<path class="st0" d="M1070.61,2.79H929.44v397.39h141.17c125.05,0,205.08-74.49,205.08-199.54S1195.66,2.79,1070.61,2.79
						 M1066.71,316.81h-40.01V86.16h40.01c65.59,0,108.39,38.9,108.39,114.48C1175.1,276.79,1133.96,316.81,1066.71,316.81"/>
				</g>
			</g>
			<g>
				<g>
					<path class="st0" d="M425.27,45.95l-0.21-0.18v-1.2l0.21-0.18c1.12-0.02,1.84-0.07,2.17-0.17c0.32-0.1,0.61-0.3,0.86-0.6
						c0.25-0.3,0.76-1.28,1.53-2.94l2.42-5.25l6.27-14.19c1.18-2.78,2.36-5.56,3.52-8.34h1.5l9.84,23.13l1.31,3.09
						c0.38,0.88,0.83,1.83,1.32,2.86c0.5,1.03,0.84,1.64,1.04,1.82c0.19,0.18,0.43,0.33,0.71,0.43c0.28,0.1,0.92,0.16,1.9,0.17
						l0.18,0.18v1.2l-0.18,0.18c-1.63-0.14-3.09-0.21-4.4-0.21c-2.55,0.08-5.1,0.15-7.65,0.21l-0.18-0.18v-1.2l0.18-0.18
						c1.72-0.03,2.8-0.1,3.22-0.22c0.43-0.11,0.65-0.38,0.65-0.79c0-0.34-0.11-0.78-0.32-1.34l-2.83-7.03h-13.34l-2.51,5.9
						c-0.45,1.06-0.67,1.84-0.67,2.33c0,0.38,0.21,0.67,0.62,0.85c0.42,0.18,1.46,0.28,3.13,0.3l0.21,0.18v1.2l-0.18,0.18
						c-1.98-0.12-3.72-0.18-5.21-0.18C428.7,45.77,426.99,45.83,425.27,45.95 M435.78,33.03h11.66l-5.78-13.89L435.78,33.03z"/>
				</g>
			</g>
			<g>
				<g>
					<path class="st0" d="M459.11,89.82v0.69l-0.09,0.28l-1.13,0.67c-0.28,0.17-0.44,0.3-0.48,0.39c-0.05,0.09-0.1,0.55-0.17,1.37
						c-0.07,0.82-0.1,1.82-0.1,3.01c0,1.34,0.08,2.79,0.25,4.35l-0.14,0.23c-4.21,1.61-8.53,2.42-12.97,2.42
						c-3.41,0-6.49-0.65-9.24-1.94c-2.75-1.29-4.93-3.2-6.54-5.74c-1.61-2.53-2.42-5.54-2.42-9.03c0-5.31,1.82-9.54,5.45-12.67
						c3.63-3.13,8.37-4.7,14.22-4.7c4.3,0,8.16,0.73,11.59,2.19l0.16,0.25c-0.28,1.03-0.6,3.19-0.97,6.47l-0.18,0.16h-1.06
						l-0.18-0.18l-0.12-2.44c-0.05-0.8-0.1-1.27-0.15-1.4c-0.05-0.14-0.22-0.32-0.5-0.54c-0.28-0.22-0.99-0.58-2.13-1.06
						c-1.14-0.48-2.29-0.84-3.44-1.06c-1.15-0.22-2.39-0.33-3.71-0.33c-2.81,0-5.3,0.58-7.46,1.75c-2.17,1.17-3.8,2.87-4.9,5.1
						c-1.1,2.23-1.65,4.72-1.65,7.45c0,2.83,0.59,5.46,1.77,7.89c1.18,2.43,2.88,4.33,5.09,5.7c2.21,1.37,4.78,2.05,7.72,2.05
						c1.27,0,2.58-0.13,3.9-0.38c1.33-0.25,2.42-0.61,3.28-1.07c0.14-0.49,0.21-1.48,0.21-2.97v-2.56c0-1.21-0.08-1.97-0.23-2.27
						c-0.15-0.3-0.53-0.51-1.14-0.63c-0.61-0.12-1.92-0.2-3.93-0.23l-0.21-0.21v-1.01l0.21-0.21l1.41,0.05
						c2.41,0.08,4.38,0.12,5.9,0.12c0.88,0,2.16-0.05,3.85-0.14L459.11,89.82z"/>
				</g>
			</g>
			<g>
				<g>
					<path class="st0" d="M429.88,126.6l0.18-0.16c5.27,0.09,8.64,0.14,10.11,0.14c5.04,0,9.52-0.05,13.45-0.14l0.12,0.16
						c-0.38,1.47-0.67,3.79-0.85,6.93l-0.14,0.18h-1.13l-0.21-0.18c0.02-0.14,0.02-0.26,0.02-0.37c0-1.31-0.1-2.55-0.3-3.73
						c-0.97-0.43-2.31-0.71-4.02-0.84c-1.71-0.13-3-0.2-3.86-0.2c-1.21,0-2.76,0.08-4.65,0.25l-0.09,3.69l-0.07,4.22l-0.07,4.68
						c1.66,0.09,3.19,0.14,4.58,0.14c1.41,0,2.6-0.05,3.55-0.14c0.95-0.09,1.51-0.19,1.67-0.29c0.16-0.1,0.28-0.29,0.37-0.58
						c0.08-0.28,0.16-0.79,0.22-1.51l0.09-1.43l0.18-0.18h1.06l0.18,0.18c-0.03,1.67-0.07,3.36-0.11,5.05l0.11,5.18l-0.18,0.18
						h-1.06l-0.18-0.18l-0.16-1.38c-0.14-1.08-0.24-1.72-0.3-1.92c-0.06-0.21-0.2-0.39-0.43-0.54c-0.22-0.15-0.79-0.28-1.72-0.37
						c-0.92-0.09-2.19-0.14-3.8-0.14c-0.89,0-2.25,0.04-4.08,0.12c-0.08,1.29-0.12,3.44-0.12,6.45c0,3.22,0.04,5.6,0.12,7.12h4.24
						c3.73,0,6.07-0.05,7-0.14c0.94-0.09,1.83-0.31,2.67-0.67c0.14-0.35,0.36-1.17,0.68-2.45c0.31-1.28,0.5-2.08,0.54-2.41
						l0.23-0.16h1.1l0.18,0.16c-0.14,0.66-0.27,1.81-0.4,3.46c-0.13,1.64-0.2,3.05-0.2,4.22l-0.16,0.18
						c-2.93-0.09-6.77-0.14-11.52-0.14l-6.27-0.05c-1.46,0-2.98,0.06-4.56,0.18l-0.18-0.18v-0.76l0.18-0.23
						c0.91-0.46,1.42-0.75,1.55-0.86c0.13-0.12,0.24-1.46,0.32-4.03c0.08-2.57,0.13-4.53,0.13-5.89v-8.45l-0.02-5.23
						c0-1.14-0.02-2.06-0.05-2.78c-0.03-0.71-0.09-1.22-0.16-1.53c-0.08-0.31-0.17-0.52-0.26-0.64c-0.1-0.12-0.26-0.23-0.48-0.31
						c-0.22-0.08-0.6-0.16-1.14-0.22l-1.75-0.14l-0.18-0.16V126.6z"/>
				</g>
			</g>
			<g>
				<g>
					<path class="st0" d="M424.53,215.76l-0.21-0.21v-1.06l0.21-0.18c0.94-0.02,1.68-0.07,2.25-0.16c0.56-0.09,0.92-0.25,1.08-0.46
						c0.16-0.22,0.27-0.56,0.32-1.04c0.05-0.48,0.11-1.55,0.16-3.22c0.05-1.67,0.08-2.87,0.08-3.59v-18.61
						c0-0.78-0.14-1.36-0.43-1.74c-0.28-0.38-0.67-0.61-1.16-0.72c-0.49-0.1-1.33-0.16-2.51-0.17l-0.18-0.18v-1.08l0.18-0.21
						c2.12,0.08,3.51,0.11,4.17,0.11c1.55,0,2.82-0.04,3.82-0.11l7.35,9.54l10.8,13.54c1.3,1.64,2.63,3.2,3.98,4.68v-17.83
						c0-0.55-0.03-1.73-0.08-3.54c-0.05-1.8-0.12-2.95-0.2-3.43c-0.08-0.48-0.21-0.81-0.4-0.98c-0.19-0.17-0.55-0.3-1.08-0.38
						c-0.53-0.08-1.25-0.13-2.15-0.15l-0.18-0.18v-1.06l0.18-0.21c1.24,0.08,3.02,0.11,5.32,0.11c2.1,0,3.63-0.04,4.58-0.11
						l0.21,0.21v1.06l-0.18,0.18c-1.01,0.02-1.8,0.07-2.35,0.17c-0.55,0.1-0.9,0.26-1.04,0.49c-0.14,0.23-0.23,0.57-0.29,1.01
						c-0.05,0.45-0.11,1.51-0.16,3.18c-0.05,1.67-0.08,2.88-0.08,3.62v10.94l0.02,6.33c0.03,2.07,0.06,4.15,0.09,6.24
						c-0.77-0.26-2.1-0.58-3.99-0.97l-1.64-1.94l-4.91-5.99l-15.62-19.51v17.67c0,0.71,0.03,1.97,0.08,3.78
						c0.05,1.81,0.12,2.91,0.2,3.29c0.08,0.38,0.18,0.65,0.3,0.8c0.12,0.15,0.39,0.28,0.79,0.4c0.41,0.12,1.25,0.19,2.52,0.21
						l0.18,0.18v1.08l-0.18,0.18c-0.8-0.11-2.09-0.16-3.87-0.16C428.25,215.6,426.25,215.65,424.53,215.76"/>
				</g>
			</g>
			<g>
				<g>
					<path class="st0" d="M427.7,272.19v-1.11l5.55-6.87l13.15-16.93c2-2.55,3.34-4.38,4.03-5.48h-0.94l-3.71-0.02
						c-3.26,0-5.88,0.05-7.87,0.15c-1.99,0.1-3.3,0.2-3.94,0.31c-0.64,0.11-1.03,0.26-1.18,0.45c-0.15,0.19-0.27,0.65-0.36,1.37
						l-0.32,3.04l-0.21,0.21h-1.08l-0.21-0.21c0.08-1.17,0.11-2.1,0.11-2.79c0-1.87-0.04-3.36-0.11-4.45l0.21-0.21
						c5.48,0.12,9.31,0.18,11.49,0.18c3.62,0,8.39-0.06,14.28-0.18l0.21,0.21v1.17c-1.69,2-2.87,3.43-3.55,4.28l-19.19,24.72
						l9.33,0.16c1.86,0,3.73-0.05,5.62-0.14c1.89-0.09,3.13-0.18,3.73-0.28c0.6-0.09,1.01-0.23,1.23-0.4
						c0.22-0.18,0.37-0.35,0.45-0.53c0.08-0.18,0.2-0.7,0.37-1.58l0.51-3.09l0.21-0.18h1.08l0.18,0.18
						c-0.11,0.98-0.22,3.65-0.32,8.02l-0.21,0.19c-6.48-0.12-11.59-0.19-15.34-0.19c-2.63,0-6.96,0.06-13.02,0.19L427.7,272.19z"/>
				</g>
			</g>
			<g>
				<g>
					<path class="st0" d="M436.02,296.28l2.88,0.09c1.89,0.06,3.12,0.09,3.71,0.09c0.52,0,2.73-0.06,6.61-0.18l0.18,0.16v1.15
						l-0.18,0.16c-1.06,0.03-1.88,0.08-2.45,0.14c-0.58,0.06-0.99,0.18-1.26,0.35c-0.26,0.17-0.43,0.56-0.52,1.19
						c-0.08,0.62-0.13,1.49-0.13,2.59l-0.05,5.3v10.67l0.02,4.49c0.02,1.74,0.06,2.86,0.14,3.36c0.08,0.51,0.19,0.84,0.33,1.01
						c0.15,0.17,0.43,0.31,0.84,0.43c0.41,0.12,1.44,0.2,3.06,0.26l0.18,0.14v1.15l-0.18,0.18c-0.08,0-1.43-0.05-4.05-0.14
						c-1.09-0.03-1.94-0.05-2.56-0.05c-0.48,0-2.67,0.06-6.59,0.18l-0.18-0.18v-1.15l0.18-0.14c1.43-0.06,2.38-0.14,2.86-0.23
						c0.48-0.09,0.79-0.21,0.96-0.36c0.16-0.15,0.29-0.46,0.39-0.93c0.1-0.47,0.16-1.53,0.17-3.18l0.02-4.86v-10.67l-0.05-4.49
						c-0.02-1.75-0.06-2.88-0.13-3.39c-0.07-0.51-0.18-0.84-0.32-1.01c-0.15-0.17-0.43-0.31-0.84-0.41
						c-0.41-0.11-1.44-0.19-3.06-0.25l-0.18-0.16v-1.15L436.02,296.28z"/>
				</g>
			</g>
			<g>
				<g>
					<path class="st0" d="M425.27,385.62l-0.21-0.18v-1.2l0.21-0.18c1.12-0.02,1.84-0.07,2.17-0.17c0.32-0.1,0.61-0.3,0.86-0.6
						c0.25-0.3,0.76-1.28,1.53-2.94l2.42-5.25l6.27-14.19c1.18-2.78,2.36-5.56,3.52-8.34h1.5l9.84,23.13l1.31,3.09
						c0.38,0.88,0.83,1.83,1.32,2.86c0.5,1.03,0.84,1.64,1.04,1.82c0.19,0.18,0.43,0.33,0.71,0.43c0.28,0.1,0.92,0.16,1.9,0.17
						l0.18,0.18v1.2l-0.18,0.18c-1.63-0.14-3.09-0.21-4.4-0.21c-2.55,0.08-5.1,0.15-7.65,0.21l-0.18-0.18v-1.2l0.18-0.18
						c1.72-0.03,2.8-0.1,3.22-0.22c0.43-0.12,0.65-0.38,0.65-0.8c0-0.34-0.11-0.78-0.32-1.34l-2.83-7.03h-13.34l-2.51,5.9
						c-0.45,1.06-0.67,1.84-0.67,2.33c0,0.38,0.21,0.67,0.62,0.85c0.42,0.18,1.46,0.28,3.13,0.3l0.21,0.18v1.2l-0.18,0.18
						c-1.98-0.12-3.72-0.18-5.21-0.18C428.7,385.44,426.99,385.5,425.27,385.62 M435.78,372.7h11.66l-5.78-13.89L435.78,372.7z"/>
				</g>
			</g>
			<g>
				<g>
					<rect x="411.59" class="st1" width="3.71" height="402.03"/>
				</g>
			</g>
			<g>
				<g>
					<rect x="470.6" y="0.53" class="st2" width="3.71" height="402.03"/>
				</g>
			</g>
			<g>
				<g>
					<g>
						<g>
							<g>
								<g>
									<path class="st0" d="M88.83,78.76l2.75-1.24l0.58,1.28v0.01l4.37,9.6l-1.7,1.48c-2.24,1.95-4.47,4.04-6.62,6.22
										c-1.02,1.05-2.04,2.12-3.07,3.26c-0.42,0.46-0.86,0.94-1.29,1.42l-2.25-1.98h-0.01V98.8v-0.01l0.7-5.17
										c0-0.01,0-0.02,0-0.04c0.54-0.57,1.09-1.13,1.64-1.69c0.69-0.71,1.39-1.4,2.1-2.1c1.05-1.01,2.11-2,3.17-2.97l-0.71-1.56
										l-1.4-3.09L88.83,78.76z"/>
								</g>
							</g>
						</g>
					</g>
					<g>
						<g>
							<g>
								<g>
									<path class="st0" d="M52.19,145.67l-2.48-1.39c-0.04,0.07-0.07,0.13-0.11,0.19c-0.53,0.93-0.99,1.74-1.36,2.44
										c-0.06,0.12-0.12,0.23-0.18,0.34l-1.29,2.29l0.08,0.05l3.33,1.86l1.29,0.72c-0.9,4.39-1.54,8.54-1.95,12.56l-9.16,1.89
										l-2.97,0.61h-0.01v0.02l-0.1,2.34c-0.02,0.76-0.05,2.15-0.06,3.82c-0.02,4.21-0.01,10.16,0.06,12.08l0.1,2.36l12.14,2.51
										c0.41,3.92,1.06,8.07,1.97,12.55l-10.84,6.17l0.71,2.3c0.37,1.23,1.34,4.29,2.34,7.4c0.19,0.59,0.39,1.19,0.58,1.78
										l0.43,1.3l0.45-0.14l2.41-0.8l1.72-4.16c0.01-0.02,0.04-0.06,0.05-0.11c-0.33-1.04-0.66-2.07-0.96-3.03
										c0-0.01,0-0.01,0-0.01c-0.19-0.61-0.37-1.17-0.54-1.7l1.92-1.09l3.7-2.11h0.01l4.06-6.41c0,0-0.01,0,0-0.01
										c-0.01-0.05-0.02-0.1-0.04-0.14c-0.19-0.96-0.37-1.91-0.54-2.82c-0.78-4.21-1.33-8.08-1.63-11.74l-0.18-2.24l-11.88-2.45
										c-0.04-3.01-0.04-7.73,0-10.76l11.88-2.45l0.18-2.25c0.41-5.11,1.23-10.41,2.51-16.19l0.48-2.18l-2.8-1.57l-2.48-1.39
										L52.19,145.67z"/>
								</g>
							</g>
						</g>
					</g>
					<g>
						<g>
							<g>
								<g>
									<path class="st0" d="M296.5,220.81l-1.88-0.61l-1.82-4.14c0.17-0.52,0.34-1.04,0.49-1.54c0.1-0.3,0.19-0.6,0.28-0.89
										c0.19-0.59,0.36-1.15,0.51-1.64l-6.67-3.82l-1.93-1.11l1.81-3.71l0.37,0.07l0.89-1.56l1.57,0.89l10.91,6.27l-0.49,2.18
										c-0.27,1.16-0.95,3.4-1.4,4.84c-0.04,0.11-0.06,0.22-0.1,0.31c-0.28,0.84-0.55,1.72-0.84,2.6L296.5,220.81z"/>
								</g>
							</g>
						</g>
					</g>
					<g>
						<g>
							<g>
								<path class="st0" d="M170.99,311.3c-3.3,0-6.61-0.02-7.96-0.07l-2.38-0.08L158.14,299c-4.02-0.41-8.23-1.07-12.56-1.95
									l-6.04,10.79l-2.3-0.66c-2.61-0.75-12.58-3.97-15.17-4.93l-2.21-0.82l1.39-12.33c-3.87-1.72-7.69-3.65-11.4-5.78l-9.07,8.34
									l-1.96-1.28c-2.06-1.34-10.76-7.59-12.93-9.37l-1.78-1.46l5.08-11.29c-3.34-3.05-6.32-5.99-9.03-8.94l-11.22,5.1l-1.46-1.83
									c-0.36-0.44-0.93-1.2-1.62-2.15l-0.58-0.8c-0.9-1.24-1.96-2.69-2.99-4.11l4.89-3.53c1.02,1.41,2.08,2.86,2.97,4.09l0.58,0.8
									c0.02,0.03,0.04,0.05,0.06,0.08L81.7,252l1.48,1.66c3.38,3.8,7.2,7.59,11.68,11.58l1.65,1.47l-4.97,11.04
									c2.39,1.79,6.19,4.54,8.66,6.27l8.87-8.16l1.93,1.15c4.74,2.82,9.67,5.32,14.68,7.43l2.08,0.88l-1.36,12.05
									c2.87,0.97,7.34,2.42,10.24,3.32l5.87-10.48l2.19,0.48c5.66,1.25,11.11,2.09,16.2,2.51l2.25,0.18l2.45,11.87
									c3.03,0.03,7.72,0.03,10.73,0l2.35-11.73l2.22-0.22c5.98-0.59,11.28-1.44,16.21-2.6l2.19-0.51l5.98,10.51
									c2.91-0.91,7.42-2.36,10.26-3.32l-1.36-11.95l2.05-0.89c5.1-2.22,10.01-4.75,14.59-7.52l1.93-1.17l8.99,8.18
									c2.42-1.7,6.2-4.47,8.63-6.29l-5.07-10.94l1.71-1.49c4.5-3.92,8.3-7.72,11.61-11.61l1.47-1.72l11.08,4.99
									c1.4-1.87,3.4-4.63,5.05-6.94c0.55-0.76,1.04-1.46,1.45-2.06l4.97,3.41c-0.43,0.63-0.95,1.36-1.52,2.15
									c-1.99,2.79-5.42,7.53-6.69,9.08l-1.46,1.78l-11.25-5.07c-2.7,3.02-5.68,6-9.05,9.03l5.2,11.23l-1.89,1.47
									c-1.94,1.51-10.54,7.87-12.92,9.36l-1.94,1.21l-9.12-8.3c-3.62,2.1-7.41,4.05-11.33,5.83l1.39,12.24l-2.18,0.84
									c-2.48,0.95-12.48,4.16-15.2,4.94l-2.28,0.65l-6.12-10.77c-3.92,0.83-8.07,1.49-12.56,2l-2.42,12.09l-2.39,0.08
									C177.59,311.28,174.29,311.3,170.99,311.3z"/>
							</g>
						</g>
					</g>
					<g>
						<g>
							<g>
								<g>
									<path class="st0" d="M163.52,43.93c-0.02,0-0.04,0-0.06,0L163.52,43.93z M267.82,99.68l-2.38,1.11l-5.23,2.44l-1.48-1.71
										c-3.61-4.14-7.42-7.95-11.65-11.64l-1.69-1.47l4.99-10.98c-1.58-1.19-3.76-2.81-5.8-4.28c-1.1-0.81-2.09-1.51-2.91-2.07
										l-8.81,8.19l-1.94-1.16c-4.74-2.82-9.67-5.33-14.67-7.44l-2.09-0.87l1.37-12.01c-2.83-0.99-7.34-2.45-10.23-3.32
										l-5.91,10.55l-2.21-0.53c-5.53-1.3-10.83-2.15-16.16-2.58l-2.25-0.18l-2.46-11.82c-2.97-0.07-7.67-0.07-10.72-0.01
										l-2.36,11.83l-2.25,0.18c-5.88,0.49-11.15,1.34-16.12,2.58l-2.21,0.54l-6.1-10.55c-2.85,0.87-7.33,2.32-10.16,3.32l1.36,12
										l-2.1,0.88c-4.92,2.05-9.82,4.55-14.55,7.42l-1.92,1.16l-8.97-8.16c-0.47,0.34-0.96,0.69-1.43,1.02
										c-1.53,1.1-3.3,2.39-4.91,3.58c0,0.01-0.01,0.01-0.01,0.01c-0.23,0.17-0.45,0.33-0.66,0.49l-1.8-2.42l2.7-5.73
										c0.4-0.29,0.8-0.57,1.17-0.84c1.7-1.22,2.89-2.05,3.56-2.48l0.78-0.51h0.01l1.16-0.75l9.15,8.32
										c3.7-2.16,7.5-4.09,11.32-5.78l-1.39-12.15l2.12-0.87c2.66-1.07,12.66-4.32,15.23-4.98l2.22-0.58l6.17,10.68
										c3.97-0.89,8.13-1.56,12.6-2l2.39-11.9l2.21-0.23c0.12-0.01,0.25-0.01,0.39-0.02l0.27-0.01l0.1-0.01
										c3.22-0.14,12.84-0.13,15.46,0.05l2.27,0.16l2.5,11.97c4.16,0.42,8.31,1.09,12.58,2.01l5.98-10.68l2.23,0.55
										c2.7,0.68,12.83,3.93,15.4,5l2.09,0.88L220.67,66c3.87,1.71,7.68,3.65,11.39,5.78l8.91-8.28l0.17,0.11c0,0,0,0,0.01,0
										l1.76,1.05c0.23,0.13,0.48,0.3,0.77,0.49c1.34,0.88,3.24,2.23,4.4,3.07c0.01,0.01,0.04,0.02,0.05,0.04
										c1.22,0.87,2.46,1.77,3.61,2.65h0.01c0.18,0.12,0.36,0.27,0.54,0.4c1.65,1.23,3.04,2.3,3.73,2.86l1.8,1.47l-1.37,3.03
										l-3.7,8.18c3.2,2.88,6.17,5.86,9.02,9.02l3.73-1.75l1.16-0.54l1.28,2.74L267.82,99.68z"/>
								</g>
							</g>
						</g>
					</g>
					<g>
						<g>
							<g>
								<g>
									<path class="st0" d="M286.76,185.72v-0.01l0.04-0.4l2.38-0.42h0.01l0.17-0.04l9.36-1.93c0.07-2.95,0.07-7.63,0-10.73
										l-11.91-2.35l-0.18-2.27c-0.49-5.88-1.34-11.15-2.58-16.12l-0.54-2.22l4.67-2.65l4.33-2.47l2.23,0.23l0.86,1.48l-0.7,3.83
										c0,0.01,0,0.01,0,0.02l-3.05,1.74l-1.41,0.8c0.89,3.97,1.56,8.13,2,12.59l6.28,1.25l3.79,0.76
										c0.8,1.29,1.53,2.48,2.21,3.57c0.01,0.23,0.02,0.48,0.02,0.76c0.04,1.24,0.07,2.98,0.07,4.82
										c0.02,3.77-0.02,8.03-0.14,9.65l-0.16,2.28l-12.07,2.48c-0.24,2.39-0.58,4.84-1,7.4l-0.36-0.06l-2.62-0.43L286.76,185.72z"
										/>
								</g>
							</g>
						</g>
					</g>
					<g>
						<g>
							<g>
								<path class="st0" d="M112.65,257.88l20.29-68.06L76.58,146.9l70.89-1.71l23.43-66.85l23.62,66.94l70.8,1.61l-56.35,43.13
									l20.3,67.87l-58.36-40.3L112.65,257.88z M170.91,210.25l47.67,32.92l-16.58-55.41l46.03-35.23l-57.81-1.31l-19.3-54.7
									l-19.14,54.6l-57.89,1.4l46.01,35.04l-16.58,55.61L170.91,210.25z"/>
							</g>
							<g>
								<path class="st0" d="M109.8,261.82l21.28-71.38L71.95,145.4l74.37-1.8l24.58-70.12l24.78,70.21l74.27,1.69l-59.1,45.24
									l21.29,71.19l-61.22-42.27L109.8,261.82z M81.21,148.4l53.59,40.82l-19.3,64.73l55.41-38.33l55.51,38.32l-19.3-64.54
									l53.59-41.01l-67.33-1.53L170.91,83.2l-22.28,63.57L81.21,148.4z M221.45,247.1l-50.53-34.89l-50.44,34.89l17.57-58.94
									l-48.78-37.15l61.36-1.48l20.28-57.88l20.46,57.97l61.28,1.39l-48.79,37.34L221.45,247.1z M170.91,208.29l44.82,30.94
									l-15.58-52.09l43.27-33.12l-54.34-1.23l-18.15-51.43l-17.99,51.33l-54.41,1.31l43.24,32.93l-15.59,52.28L170.91,208.29z"/>
							</g>
						</g>
					</g>
					<g>
						<g>
							<g>
								<path class="st0" d="M196.78,148.91l-5.06-0.12l-1.23-3.48l-1.81-63.52l2.25,0.47c27.67,5.82,51.38,23.26,65.05,47.86
									l1.12,2.01L196.78,148.91z M194.29,145.23l2.03,0.05l55.34-15.4c-12.93-21.97-34.32-37.7-59.25-43.58l1.66,58.33
									L194.29,145.23z"/>
							</g>
						</g>
					</g>
					<g>
						<g>
							<g>
								<path class="st0" d="M145.5,148.82l-60.12-17.74l1.14-1.99c14.07-24.46,37.95-41.6,65.51-47.02l2.25-0.44l-2.71,63.43
									l-1.27,3.64L145.5,148.82z M90.83,128.91l55.15,16.28l1.73-0.04l0.27-0.78l2.49-58.28
									C125.64,91.62,104.11,107.08,90.83,128.91z"/>
							</g>
						</g>
					</g>
					<g>
						<g>
							<g>
								<path class="st0" d="M100.29,244.64l-1.54-1.71c-7.62-8.46-13.65-18.1-17.94-28.64l-0.22-0.54l0.13-0.56
									c1.86-7.87,3.06-17.43,2.57-20.45c-0.16-0.87-0.32-1.42-0.44-1.76c0,0,0,0,0,0l-6.22,4.74l4.72-9.4
									c0.22-0.58,0.31-0.98,0.34-1.24c-1.12-0.04-3.22,0.28-5.21,1.27l-2.4,1.19l-0.21-2.67c-0.48-6.24-0.35-12.58,0.39-18.86
									l0.27-2.29l60.87,22.65l2.08,1.6l-1.24,4.18L100.29,244.64z M84.38,213.46c3.82,9.23,9.04,17.74,15.54,25.32l33.02-48.2
									l0.34-1.13l-55.66-20.71c-0.42,4.48-0.52,8.98-0.29,13.44c2.56-0.76,5.57-1.05,6.82-0.07v0c1.34,1.08,1.54,2.92,0.6,5.47
									c1.23,0.77,1.75,2.61,2.12,4.54C87.5,196.01,86.09,206.06,84.38,213.46z"/>
							</g>
						</g>
					</g>
					<g>
						<g>
							<g>
								<path class="st0" d="M170.83,274.94c-13.92,0-27.83-2.97-40.75-8.92l-2.09-0.96l40.45-50.92l2.48-1.72l2.42,1.67l0.17,0.23
									l39.42,51.15l-2.09,0.94C198.09,272.09,184.46,274.94,170.83,274.94z M133.7,263.68c23.42,10.08,49.96,10.2,73.54,0.33
									l-36.34-47.15L133.7,263.68z"/>
							</g>
						</g>
					</g>
					<g>
						<g>
							<g>
								<path class="st0" d="M240.86,245.46l-35.15-52.98l-1.29-4.31l1.97-1.53l0.27-0.1l60.85-21.69l0.25,2.28
									c0.95,8.83,0.69,17.77-0.77,26.55l-0.29,1.75l-1.76-0.26c-0.67-0.1-1.23,0.02-1.55,0.33c-0.35,0.34-0.48,0.99-0.38,1.84
									c0.14,1.2,0.69,2.78,1.7,4.82l0.3,0.61l-0.18,0.66c-4.1,14.97-11.85,28.92-22.4,40.34L240.86,245.46z M209.02,190.93
									l32.29,48.67c9.22-10.49,16.05-23.04,19.84-36.47c-1.01-2.15-1.57-3.87-1.74-5.36c-0.3-2.55,0.62-4.05,1.45-4.86
									c0.74-0.72,1.71-1.17,2.79-1.32c1.09-7.21,1.33-14.52,0.72-21.77l-55.73,19.87L209.02,190.93z"/>
							</g>
						</g>
					</g>
					<g>
						<g>
							<g>
								<path class="st3" d="M345.43,204.29c4.03-5.68,4.51-10.8,1.46-15.37c1.11-7.49,0.35-12.19-2.29-14.13
									c-2.76-1.94-6.16-1.31-10.18,1.87c-2.35-1.24-5.53-0.07-9.56,3.53c0.7-1.8,0.77-3.39,0.22-4.78
									c3.59-1.66,5.92-3.5,6.96-5.51c1.04-2,1.56-5.16,1.56-9.45c0.42-2.63,2.85-7.34,7.27-14.13c3.05-6.79,0.9-9.14-6.44-7.07
									c4.02-3.59,6.03-6.72,6.03-9.35c0.28-2.5-0.76-5.68-3.12-9.56c-0.96-2.21-2.42-2.63-4.35-1.24
									c0.69-1.39,1.06-3.05,1.13-4.99c0.07-1.93-1.21-6.02-3.85-12.25c-0.41-8.18-2.35-11.58-5.81-10.19
									c-0.55-4.29-1.94-8.38-4.16-12.25c-3.32-4.99-5.96-6.31-7.89-3.96c-5.41-8.03-10.47-11.36-15.17-9.97
									c-0.14-3.46-1.33-6.58-3.53-9.35c-1.25-5.27-2.77-8.94-4.57-11.02c-2.5-0.96-4.23,0.42-5.2,4.16
									c-0.42-3.05-1.39-6.23-2.91-9.56c-1.53-3.32-3.96-5.05-7.28-5.19c-1.24-0.14-2.42,0.06-3.53,0.61
									c-2.21-1.39-4.08-2.07-5.61-2.07c-4.7-4.99-9.01-5.4-12.88-1.24l-0.63-4.37c-1.39-5.12-4.16-6.23-8.31-3.33
									c-6.79-7.07-12.61-11.71-17.46-13.93c-4.02-1.37-6.64-1.04-7.89,1.05c-2.09-2.09-4.3-3.4-6.66-3.96
									c-2.35-0.55-4.57-1.17-6.64-1.87c-3.2-0.13-4.57,1.59-4.16,5.2c-4.98,0.28-8.42,1.15-10.29,2.59
									c-1.87,1.46-2.35,3.5-1.45,6.14c0.89,2.63,2.94,4.77,6.13,6.44c-0.83,0.96-1.18,2.5-1.04,4.57c0.13,2.07,2.35,3.81,6.64,5.2
									c3.18,0.83,6.31,0.89,9.36,0.21c-0.7,3.18,0.41,5.2,3.32,6.03c4.02,4.15,9.01,5.18,14.96,3.11L227,48.88l8.1,3.32
									c0.28,3.88,2.09,6.66,5.4,8.32l3.18,1.36c-0.69,0.08-3.67,2.54-3.7,2.94c-0.48,0.54-1.53,2.69-0.48,4.16
									c0.42,0.57,1.16,1.05,2.36,1.28c1.46,0.17,2.97,0.33,4.5,0.43c1.95,0.16,3.93,0.24,5.87,0.2c0.08,1.01,0.71,2.68,1.36,3.86
									c0.59,1.24,2.04,3.07,4.46,5.7c2.26,2.45,6.5,4.86,10.08,6.38c-0.24,0.25-1.22,2.95-2.11,5.44
									c-0.54,1.5-0.95,3.45-0.98,5.37c-0.02,1.97,0.36,3.88,1.43,5.22c-0.47-0.23-2.46,1.16-3.16,2.27
									c-2.59,3.99,3.01,9.73,3.91,11.71c-0.43-0.05-1.99,0.74-2.81,1.31c-1.93,1.37-1.27,8.26,4.21,9.44
									c1.37,0.66,7.66,4.32,10.8,7.51c0.61,0.63,2.38,3.94,4.9,7.25c1.34,1.76,2.75,4.73,6.04,4.81c0.14,0.46,0.29,0.9,0.43,1.36
									c2.38,7.2,5.79,14.17,9.88,20.99c0.33,0.57,0.66,1.13,1.01,1.69c0.82,1.35,1.68,2.68,2.54,4.02c0,0.3,5.41,6.07,7.37,11.29
									c-0.65,3.38-0.58,6.28-0.59,6.45c-0.71,6.68-1.92,12.82-3.61,18.4c-5.88-2.85-6.86,1.01-7.73,4.82
									c-0.08-0.19-2.75-0.48-3.12,0.78c0.06-0.53-0.1-1.05-0.4-1.52c-0.99-1.56-3.53-2.53-4.86-1.59
									c-0.05,0.04-1.89,1.33-3.04,2.19c-0.39,0.3-0.72-1.91-0.84-3.53c-0.06-1.13-0.29-4.98,0.43-6.5
									c0.05-0.08,0.25-0.36,0.55-0.76c0.49-0.69,1.27-1.72,1.82-2.7c1.34-2.41,0.9-8.8-0.35-14.73c-0.39-1.8-0.83-3.55-1.34-5.12
									c-0.65-2.05-2-3.03-3.18-3.5c-0.48-0.18-3.58-0.01-4.17,2.38c-0.17-1.35-2.35-2.16-3.97-2.54
									c-4.55-1.07-9.41,7.64-8.86,15.76c-1.01-0.8-2.12-1.28-3.16-1.41c-2.36-0.35-4.37,1.01-3.99,4.17
									c0.18,1.56,0.89,3.41,1.87,5.4c3,6.11,8.51,13.49,8.73,17.34c-2.86-2.54-9.35-2.62-9.36,3.58c0,1.88,1.53,5.08,2.17,6.44
									c-1.31,6.62,6.31,11.46,12.54,17.69c-0.11,2.6,0.66,2.94,1.51,3.77c0.11,0.12,0.23,0.24,0.34,0.37
									c-1.13,1.74-8.1,12.72-8.19,12.99c-0.34,0.13-5.15-2.57-6.73-1.17c-1.69,1.5-3.06,3.52-3.85,4.74l0.83,7.68
									c0.55,3.2-1.15,6.75-5.09,10.71c-3.94,3.94-6.55,7.58-7.79,10.91c-0.7,2.48-3.4,5.19-8.1,8.1
									c-0.28-0.83-1.39-2.15-3.33-3.96c-0.28-0.55-0.83-0.76-1.66-0.63c-4.7,1.25-14.19,5.41-28.46,12.47
									c-2.5,1.25-6.03,4.92-10.6,11.02h-8.1c-2.22-1.25-4.57-2.98-7.07-5.2c-1.81-1.39-4.99-0.9-9.56,1.46
									c-4.29-0.98-8.59-0.07-12.88,2.7c-2.64,0.96-4.57,1.17-5.82,0.61l-10.18-11.01c-21.05-8.86-32.56-12.82-34.5-11.84
									c-2.07,1.24-3.59,3.04-4.57,5.4c-2.07-0.98-5.2-3.61-9.35-7.9l-6.44-7.27c-4.71-5.27-6.66-10.25-5.82-14.96l1.04-6.44
									c0.14-0.96,0-1.74-0.41-2.29c-1.53-1.65-4.22-2.66-5.61-2.94c-0.3-0.12-1.21-0.43-2.22,3.32c0.27,0.9-6.66-9.12-6.75-9.44
									c0.16-0.17,0.31-0.35,0.48-0.57c1.92-2.41,4.85-7.91,6.57-14.23c2.15-7.79,3.14-16.37,3.04-19.65
									c0.33-0.61,0.41-0.78,0.8-1.16c1.25-0.96,2.63-5.04,3.8-10c1.84-7.8,3.15-17.76,2.59-21.16c-0.42-2.22-0.94-3.36-1.56-3.44
									c-0.63-0.06-1.22,0.11-1.77,0.53l1.25-2.5c0.69-1.81,0.69-2.98,0-3.53c-0.42-0.43-4.1-0.39-7.33,1.22
									c-0.04,0.01-0.06,0.04-0.1,0.05c-0.39-3.61-2.1-8.9-2.98-10.82c-0.3-0.64-1.19,0.05-1.23,0.06
									c-5.81,3.52-8.39,11.24-10.47,20.8l-1.66,1.53c-1.65,2.06-3.23,4.21-4.71,6.43c-0.65,0.98-1.29,1.97-1.9,2.97
									c-2.35,3.83-4.4,7.87-6.08,12.11c-1.39,3.51-2.5,7.16-3.28,10.95c-1.24-1.93-1.95-4.74-3.06-8.42
									c-1.11-3.67-1.46-6.13-1.04-7.37c1.11-1.94,0.76-3.74-1.05-5.4c-1.37-1.39-3.18-7.62-5.4-18.7
									c0.14-2.91,1.33-7.27,3.53-13.1c2.22-5.81,5.92-13.18,10.78-21.5c0.25-0.36,2.41-2.69,3.07-2.86
									c0.76-0.19,1.8-0.82,3.04-1.82c9.56-7.72,31.38-37.4,32.92-55.65c0.14-1.74,0.11-3.36-0.13-4.86
									c0.29-0.08,2.12-3.06,4.4-7.08c2.15-3.74,4.67-8.38,6.7-12.42c1.92-3.79,3.4-7.04,3.74-8.56l1.76-0.57l2.09-0.83
									c6.92-2.77,12.81-5.74,18.21-8.22l8.38-4.46c5.82-2.48,11.36-5.88,16.63-10.18c5.53-4.85,8.51-9.9,8.93-15.17
									c-0.98-1.24-3.81-1.94-8.53-2.07c2.5-2.77,3.81-5.68,3.96-8.73c-1.81-2.5-7.21-2.91-16.21-1.24
									c-9.42,2.35-17.66,6.02-24.73,11.01c-7.2,4.57-13.67,10.15-19.43,16.72c-5.75,6.58-10.36,13.41-13.82,20.47l4.16-9.56
									c2.07-4.57,4.29-9.9,6.64-16c0.69-2.91,0.72-4.99,0.11-6.23c-0.63-1.24-1.98-1.59-4.05-1.04
									c-2.22,0.55-6.23,3.46-12.06,8.73c-6.37,6.51-12.01,14.54-16.93,24.1c-4.92,9.55-8.28,17.1-10.08,22.64
									c0.96-6.23,0.83-11.56-0.41-16c-0.7-1.8-2.22-2.29-4.58-1.46c-2.21,1.53-4.43,3.81-6.64,6.86
									c-2.22,3.05-4.37,5.99-6.44,8.83c-2.07,2.85-4.53,6.9-7.38,12.15c-2.83,5.27-5.33,11.5-7.48,18.7
									c-2.15,7.21-3.77,16.76-4.88,28.67c-0.7,7.62-0.14,15.8,1.66,24.53c2.22,8.72,4.43,15.17,6.64,19.32
									c2.22,4.16,4.29,6.58,6.23,7.27c1.24,3.05,2.91,8.1,4.99,15.17c1.11,3.33,1.59,5.86,1.45,7.58
									c-0.13,1.74,0.31,2.94,1.35,3.64c1.04,0.69,1.91,2.07,2.6,4.15c1.8,6.66,4.22,12.82,7.27,18.5
									c-0.55,3.05-0.83,6.09-0.83,9.14c-6.66-19.26-12.06-33.8-16.21-43.63c-8.04-17.87-14.34-26.05-18.91-24.53
									c-2.22,0.83-3.61,2.85-4.16,6.03c-0.13,1.24-0.13,4.44,0,9.56c0.14,5.12,0.63,10.53,1.46,16.21
									c4.15,18.42,11.29,33.8,21.4,46.12l15.16,17.87c3.05,3.05,5.96,5.29,8.73,6.75c2.77,1.46,5.33,1.83,7.69,1.15
									c3.46,5.53,7.83,11.36,13.08,17.45c3.33,5.12,6.79,7.55,10.39,7.27c1.52,3.33,3.81,4.99,6.86,4.99l3.11-0.41
									c4.29,4.15,8.18,7.48,11.64,9.97l-3.94,11.21c-6.93,0.98-13.3,1.53-19.12,1.66c-5.4-3.88-13.01-9.14-22.85-15.8l-0.63-12.46
									c-0.28-4.3,0.48-7.9,2.29-10.82c0.41-2.35-0.9-4.5-3.95-6.44c-4.57-2.22-7.83-3.11-9.77-2.7c-0.83,0.28-1.31,1.04-1.45,2.29
									v6.85l-19.74,0.42c-1.81,0-3.29,0.69-4.47,2.07c-1.17,1.39-1.21,4.16-0.1,8.32c0.13,1.52,0.06,2.83-0.22,3.94
									c-0.96,4.44-3.53,9.84-7.68,16.21c-0.55,0.96-0.31,2.42,0.72,4.37c1.04,1.94,3.64,4.98,7.79,9.14
									c1.81,1.8,4.55,4.02,8.21,6.66c3.67,2.63,10.14,6.64,19.43,12.05c10.95,6.51,21.4,11.91,31.38,16.21
									c2.09,0.14,15.93-1.74,41.56-5.61l0.2,2.28c-7.34,5.55-12.06,7.83-14.13,6.86c-2.91,0.28-3.81,2.42-2.7,6.44
									c0.83,1.81,2.35,3.05,4.57,3.74l2.7,3.12l7.69,4.57c2.91,0.83,5.68,0.83,8.31,0c2.5-0.96,4.16-3.12,4.99-6.44l9.14-9.14
									l6.03-4.58c4.7-0.82,7.75-2.48,9.14-4.98c0.28-2.22,0.89-3.61,1.87-4.16l7.27-4.98c0.28-0.7,3.26,0.48,8.93,3.53
									c2.77,0.69,5.2,0.55,7.27-0.42l5.4-3.11c4.85,1.11,13.37,7.13,25.56,18.08c-0.14,1.24,0.61,2.7,2.28,4.37
									c0.96,1.24,3.61,2.28,7.9,3.11l2.91,5.4l2.91,1.04c4.3,0.14,8.32-1.37,12.06-4.57l4.57-1.45c2.35-1.81,3.39-3.61,3.11-5.4
									l-1.87-1.87l-3.94-1.05c-4.99-2.35-10.04-5.53-15.17-9.55l-3.33-2.5c15.1,2.63,33.87,4.71,56.31,6.23
									c2.77,0.55,6.48-0.87,11.12-4.26c4.64-3.4,18.67-13.41,42.07-30.02c3.47-3.75,6.23-8.04,8.32-12.89
									c-2.09-1.94-3.92-4.7-5.51-8.31c-1.59-3.61-2.59-6.64-3.01-9.14c-0.55-2.36-0.61-4.47-0.2-6.34
									c0.41-1.87-0.2-3.63-1.87-5.29c-0.7-0.98-2.29-1.59-4.77-1.87c-4.44-0.42-9.43-0.35-14.96,0.21
									c-2.63-0.28-4.16-0.9-4.57-1.87l0.2-4.99c0.41-2.22-0.2-3.18-1.87-2.91c-6.1,1.52-9.77,3.05-11.01,4.57
									c-1.81,1.94-1.74,4.02,0.2,6.23c1.52,1.39,2.28,2.98,2.28,4.77c-0.82,9.15-1.59,15.31-2.28,18.5
									c-10.12,8.03-16.97,12.95-20.57,14.76c-2.91,0.96-9.42,0.54-19.53-1.25c-2.22-1.94-3.81-5.26-4.77-9.97
									c3.46-2.07,7.13-4.57,11.01-7.48c2.63-0.42,4.85-0.94,6.66-1.57c1.8-0.61,2.7-2.32,2.7-5.09c1.8-0.69,3.11-2.22,3.94-4.57
									l12.05-14.54c3.88-3.33,8.1-5.27,12.68-5.82c5.53-0.41,12.73-3.53,21.61-9.35c1.39-1.52,1.39-3.67,0-6.44
									c2.63-1.53,6.92-5.82,12.88-12.89c2.35-3.32,2.91-6.99,1.66-11.01c5.53-6.64,8.66-11.91,9.35-15.78
									c0.55-3.47,0.48-7.21-0.21-11.23c2.63-1.66,4.47-3.09,5.51-4.26c1.04-1.18,1.56-2.81,1.56-4.88
									C347.72,207.41,346.96,205.68,345.43,204.29z M236.56,48.25l-7.07-2.29l0.41-4.78l-3.94,0.83
									c-3.74,1.24-7.48,0.13-11.21-3.33c-2.5,0.42-3.53-0.55-3.12-2.91c0.96-2.07,0.7-3.18-0.83-3.33l-6.03,0.63
									c-3.87-0.55-6.44-1.66-7.68-3.33c-0.83-1.39-0.28-3.11,1.66-5.2c-3.74-1.52-6.07-3.18-6.97-4.98
									c-0.89-1.8-0.34-3.26,1.66-4.36c2.01-1.11,5.72-1.31,11.12-0.63c-1.24-1.52-1.59-3.11-1.04-4.77
									c0.14-1.66,3.74-0.76,10.8,2.7l4.16,2.5c1.11-2.09,2.98-2.7,5.61-1.87c3.18,1.52,6.16,3.35,8.93,5.5
									c2.77,2.15,5.88,5.23,9.35,9.25c2.92-1.94,4.99-1.52,6.23,1.25l0.63,4.98c-3.05-2.91-6.79-3.11-11.21-0.63l-2.92-1.24
									c-4.02-4.85-6.44-8.51-7.27-11.01c-0.83-3.18-1.24-3.46-1.24-0.83c0.13,2.77,1.8,6.31,4.98,10.6
									c-6.09-1.94-10.56-4.44-13.4-7.49c-2.85-3.04-5.03-5.61-6.55-7.68c-1.52-2.5-2.15-2.5-1.87,0c1.66,3.04,3.94,5.88,6.86,8.51
									c-2.22-0.96-4.29-1.94-6.23-2.91c-4.85-2.07-8.87-3.18-12.06-3.33c-1.52,0-1.59,0.28-0.2,0.83
									c5.4,1.39,9.32,2.66,11.74,3.85c2.42,1.18,4.05,2.25,4.88,3.22c-3.88,1.66-7.9,2.42-12.06,2.29
									c-2.63-0.14-3.81-0.07-3.53,0.21c0.28,0.28,1.11,0.55,2.5,0.83c4.98,0.55,10.04,0,15.17-1.66c3.74,1.94,8.1,3.81,13.08,5.61
									c-3.04,0.7-6.02,2.07-8.92,4.16c-1.11,1.39-0.55,1.45,1.65,0.2c2.22-1.66,5.55-2.7,9.98-3.11l3.52,1.45
									c-0.28,3.74,0.63,7.55,2.7,11.43L236.56,48.25z M253.19,68.19c-7.77,0.13-9.32-0.05-9.77-1.25
									c-0.29-0.92-0.45-1.76,2.28-3.32l1.41-2.36c-4.51-2.05-8.67-4.5-8.89-10.1l3.74-1.46c1.66-1.93,1.7-3.39,0.11-4.35
									c-1.6-0.98-2.46-3.53-2.6-7.69c1.53-3.33,5.27-3.33,11.23,0c2.63-5.12,5.81-6.64,9.55-4.57c-4.02,0-6.37,1.74-7.07,5.2
									c-0.41,2.22-0.41,4.92,0,8.1c-1.37-1.94-3.04-3.61-4.98-4.99c-3.74-1.94-4.44-1.72-2.07,0.63c2.35,2.35,4.43,4.77,6.23,7.27
									c-3.05,2.5-6.38,3.61-9.98,3.33c-1.24,0.55-1.04,0.89,0.63,1.04c1.66,0.41,3.61,0.28,5.82-0.42
									c-0.28,2.22,0.45,5.9,1.41,8.12c1.31,1.89,3.07,3.56,5.12,5.08C254.39,66.7,253.6,67.22,253.19,68.19z M257.54,72.15
									c-0.13-1.66,1.31-2.6,4.36-2.81c3.05-0.2,3.53-1.07,1.46-2.6c-4.02-1.37-7.34-3.74-9.97-7.05c-1.81-2.36-1.81-4.03,0-4.99
									l3.11-0.83l1.46-1.87l-1.87-7.27c-0.55-3.74,0.48-6.37,3.11-7.9c3.74-0.55,7.42,0.55,11.01,3.33
									c0.14-1.94,1.42-2.53,3.85-1.77c2.42,0.77,4.68,5.92,6.75,15.48l3.33,1.25c1.11-2.64,2.01-3.95,2.7-3.95
									c1.11,0,2.22,2.29,3.33,6.86c2.76,2.5,4.09,6.57,3.94,12.25c-1.8,2.36-2.77,5.27-2.91,8.73l-1.66-3.74
									c-0.96-4.16-1.39-8.52-1.24-13.1c-0.14-1.93-0.35-1.93-0.63,0c-0.42,4.03-0.48,7.42-0.21,10.19
									c-3.74-4.85-7.77-9.21-12.06-13.1c-0.83-3.05-1.11-6.51-0.83-10.38c-0.41-3.33-0.76-4.09-1.04-2.29
									c-0.28,4.16-0.13,8.03,0.42,11.64c-3.2-3.18-6.93-7.83-11.23-13.93c-1.11-1.93-1.59-2.35-1.46-1.24
									c2.64,4.99,5.41,9.14,8.32,12.47c2.91,3.33,5.26,5.96,7.07,7.9c-3.61-1.11-6.73-1.83-9.36-2.18
									c-2.63-0.35-5.05-1.07-7.27-2.18c-2.07-0.42-2,0.07,0.21,1.46c1.25,0.82,3.77,1.59,7.58,2.28c3.81,0.7,7.38,1.87,10.71,3.53
									c1.8,1.11,4.22,3.94,7.27,8.53l2.5,5.61c-3.88-2.09-8.18-3.53-12.89-4.36c-4.7-0.83-7.48-1.59-8.31-2.29
									c-3.61-1.52-4.02-1.37-1.24,0.42c0.83,0.83,3.77,1.76,8.83,2.8c5.05,1.05,9.94,3.01,14.65,5.93l0.41,1.24
									c-0.96,1.11-1.31,2.63-1.04,4.57l1.46,4.16c-1.25-1.53-2.98-0.83-5.2,2.07c0.83-1.8,0.63-3.46-0.63-4.99
									c-1.94-2.91-6.64-6.02-14.13-9.35l-1.24,2.29C262.88,81.01,259.07,77.41,257.54,72.15z M308.14,175.73
									c-1.45-2.15-3.53-5.44-6.23-9.88s-4.67-8.03-5.92-10.8c-1.24-2.77-1.45-5.61-0.61-8.51c0.07-0.24,0.13-0.48,0.21-0.71
									c0.45-1.56,0.84-2.91,1.21-4.03c0.24-0.74,0.46-1.37,0.66-1.92c0.55-1.52,0.48-1.8-0.2-0.83c-0.29,0.52-0.57,1.02-0.83,1.53
									c-1.09,2.1-1.92,4.16-2.48,6.19c-0.08,0.28-0.16,0.54-0.22,0.81l-0.21-0.58l-3.95-11.27c0.16-1.74,0.59-3.67,1.31-5.76
									c1.23-3.58,3.28-7.68,6.16-12.31c1.39-2.48,1.25-2.7-0.41-0.61c-3.24,4.32-5.59,8.68-7.07,13.08
									c-0.42,1.24-0.77,2.5-1.04,3.74l-1.54-3.42l-4.9-10.91c-0.14-2.63,1.52-7.61,4.98-14.95c1.81-3.88,1.39-3.74-1.24,0.41
									c-2.22,4.16-3.81,8.03-4.77,11.64c-0.63-2.52-1.23-4.92-1.83-7.2c-0.84-3.17-1.68-6.1-2.5-8.8
									c-0.43-1.45-0.86-2.83-1.29-4.15l-1.45-0.42l0.59,1.64l0.24,0.65c0.74,4.67,1.68,8.93,2.82,12.79
									c0.53,1.86,1.12,3.62,1.75,5.28c-1.22-1.09-2.5-2.07-3.86-2.98c-1.59-1.07-3.29-2.01-5.08-2.85c-1.81-0.96-1.81-0.76,0,0.63
									c1.64,0.96,3.12,1.93,4.45,2.91c1.91,1.37,3.46,2.77,4.69,4.16c1.66,3.88,3.18,7.42,4.57,10.6
									c-1.45-1.04-3.46-2.17-6.07-3.41c-1.89-0.89-4.1-1.83-6.61-2.82c-2.22-0.42-2.22-0.14,0,0.83c2.85,1.16,5.27,2.32,7.3,3.45
									c2.3,1.3,4.09,2.58,5.33,3.85c0.53,0.55,0.95,1.1,1.29,1.64l4.16,11.01c-1.52,0-3.53-2.28-6.03-6.86
									c-2.07-3.87-7.27-7.61-15.58-11.21c-1.66-0.7-2.42-2.15-2.29-4.37c0.28-1.52,1.87-2.15,4.79-1.87
									c-0.83-2.35-1.81-4.22-2.92-5.61l-1.65-2.5c-2.22-4.57-0.9-6.86,3.94-6.86c-1.8-2.77-2.42-4.92-1.87-6.44
									c-0.02-0.47-0.02-0.93-0.01-1.4c0.11-2.15,0.75-4.23,1.88-6.29c0.83-1.65,1.46-3.32,1.87-4.98
									c2.63,1.52,5.03,2.81,7.17,3.85c2.15,1.04,3.28,2.94,3.42,5.72l-1.04,6.44c0.41,1.24,1.52,0.83,3.32-1.25
									c1.81-2.48,3.26-3.94,4.37-4.36c1.53,0.7,2.98,1.94,4.36,3.75c1.39,2.63,0.9,7.48-1.45,14.54l-2.29,5.81
									c4.71-6.23,8.52-9.21,11.43-8.94c0.96,0.7,1.28,2.12,0.93,4.27c-0.34,2.15-0.34,4.39,0,6.75c0.35,2.35-0.45,4.36-2.39,6.02
									c-1.94,1.66-3.26,4.36-3.94,8.1c4.43-3.32,6.23-2.7,5.4,1.88l-2.5,8.93c-0.69,4.29,0,6.29,2.07,6.02
									c2.09-0.28,3.36,0,3.85,0.83c0.48,0.83,0.59,2.29,0.31,4.37c-1.24,2.91-1.8,4.81-1.66,5.72c0.14,0.9,0.52,1.66,1.15,2.28
									c0.63,0.63,1.98,0.49,4.05-0.41c2.07-0.9,3.11-0.28,3.11,1.87c0,2.15,0.04,4.23,0.11,6.23c0.07,2.01,0.72,3.98,1.98,5.92
									c0.93,1.34,2.11,2.22,3.57,2.64c0.06,0.02,0.11,0.05,0.17,0.06l1.87-2.28c-2.77,0.13-4.05-1.66-3.85-5.4
									c0.21-3.75,0.18-6.66-0.1-8.73c-1.11-2.63-2.22-4.09-3.33-4.37s-3.68-7.2-7.69-20.78l4.36,0.21
									c3.18,11.64,5.75,17.91,7.69,18.81c1.94,0.89,2.83,1.93,2.7,3.11c-0.14,1.18,0.21,3.7,1.04,7.58
									c2.5-0.69,3.94-2.98,4.36-6.86c0.69-3.59-0.35-6.37-3.12-8.31c-2.91-1.66-4.57-3.18-4.98-4.57
									c-0.83-2.35,0.06-3.81,2.7-4.37c1.52-0.83-2.15-4.16-11.02-9.97c-4.57-3.18-5.96-6.03-4.15-8.52
									c0.69-1.24,1.98-1.21,3.85,0.11c1.87,1.31,3.07,1.63,3.63,0.94c0.98-1.94,0.2-3.29-2.28-4.05c-2.5-0.77-3.68-1.63-3.53-2.6
									c-0.14-4.29-0.07-7.2,0.21-8.73c0.28-1.52,0.13-3.32-0.42-5.4c-1.52-2.21-4.43-2.07-8.72,0.42
									c0.96-2.35,1.21-4.64,0.72-6.86c-0.48-2.22-1.56-4.37-3.22-6.44l-2.07-6.44c-0.55-2.22,0.69-3.74,3.74-4.57
									c-0.98-4.29-0.98-7.34,0-9.14c0.96-1.94,1.66-3.53,2.07-4.79c0.42-1.24,1.66-1.39,3.74-0.41c2.09,0.96,5.4,4.64,9.97,11.01
									c2.22-2.5,4.37-1.59,6.45,2.7c2.48,3.88,3.46,8.52,2.91,13.93c5.12-2.77,6.92-0.9,5.4,5.61c2.22,4.57,3.57,8.14,4.05,10.7
									c0.48,2.57,0.07,4.96-1.25,7.17c-1.31,2.22-1.93,3.91-1.87,5.09c0.07,1.18,0.55,1.15,1.46-0.11
									c0.9-1.24,2.74-2.28,5.51-3.11c1.8,3.88,2.56,6.44,2.28,7.68c0,1.53-0.93,3.2-2.8,4.99c-1.88,1.8-2.95,3.94-3.23,6.44
									c0,1.25,0.63,1.87,1.88,1.87l3.74-1.04c1.94-0.28,2,1.25,0.2,4.57c-1.94,3.61-3.36,6.66-4.26,9.14
									c-0.9,2.5-1.35,4.51-1.35,6.03c-0.14,3.18-0.7,5.05-1.66,5.61c0.28-4.02,0.17-8.2-0.31-12.56
									c-0.48-4.37-1.35-9.25-2.59-14.65c1.1-0.96,2.63-4.22,4.57-9.77c0.96-2.77,0.76-3.11-0.63-1.04
									c-1.52,4.16-3.05,6.72-4.57,7.69c-1.52-5.12-3.18-11.36-4.99-18.7c2.09-3.46,3.4-7.83,3.95-13.1
									c0.13-4.44-0.14-4.77-0.83-1.04c-0.83,5.26-2.35,9.35-4.57,12.26c-1.81-5.82-3.74-11.3-5.82-16.42
									c0.7-2.91,0.98-6.29,0.83-10.18c-0.13-3.88-0.48-4.02-1.04-0.42c0,2.92-0.35,5.41-1.04,7.49l-4.57-11.64l-2.91-6.66
									c-0.98-2.21-1.33-2.21-1.05,0l2.7,8.73c-2.07-2.35-4.02-4.09-5.81-5.2c-1.8-1.11-2.15-1.04-1.04,0.22
									c3.04,2.63,5.68,5.46,7.9,8.51c1.8,4.44,3.59,9.01,5.4,13.71c-5.27-4.43-8.94-6.92-11.02-7.48c-2.63-0.96-2.63-0.48,0,1.46
									c3.74,2.35,8.18,6.51,13.3,12.47c1.66,4.85,3.26,9.55,4.78,14.12c-2.63-1.52-5.81-4.57-9.55-9.14
									c-1.66-1.66-1.74-1.39-0.2,0.83c3.04,4.57,6.57,8.59,10.59,12.06l3.12,12.67c-3.18-3.2-7.34-6.45-12.47-9.77
									c-2.22-1.39-2.35-1.11-0.42,0.83c4.44,3.18,9.08,7.9,13.93,14.12c1.39,3.88,2.01,11.02,1.87,21.4
									c-0.13,2.64-2.07,4.57-5.81,5.82l-0.04,0.42l-0.8,9.55l-5.2,0.2C311.7,180.89,309.59,177.88,308.14,175.73z M314.91,185.47
									c0.83-0.28,2.7-0.05,4.5-0.05c-1.93,10.53-4.17,22.05-5.97,29.26l-2.92-1.66C313.02,203.05,314.36,191.84,314.91,185.47z
									 M278.01,244.71c-0.77-0.63-3.09-2.53-6.97-5.72c-3.46-3.05-4.57-5.82-3.32-8.32c-0.98-1.24-1.84-2.7-2.6-4.35
									c-0.76-1.66-0.59-3.29,0.52-4.88s3.68-0.87,7.69,2.18c0.69-2.36,0.69-4.58,0-6.66c-0.69-2.07-1.52-4.16-2.5-6.23
									c-1.8-3.33-3.53-6.16-5.2-8.51c-0.81-1.7-1.28-3-1.41-3.91c0.11-0.48,0.22-0.96,0.3-1.45c0.02-0.02,0.05-0.04,0.07-0.05
									c0.83-0.42,2.15,0.13,3.96,1.66c3.46-3.75,5.74-4.82,6.85-3.23c1.11,1.6,2.01,4.27,2.7,8.01c0.7,3.74,0.76,7.62,0.22,11.64
									l-0.83,0.83l0.83,0.83c0.27,0.83-0.07,3.94-1.05,9.35c0,1.1,0.34,2.19,1.03,3.29c0.01,0.01,0.01,0.02,0.02,0.04
									c0-0.02-0.01-0.04-0.01-0.06c-0.27-1.64-0.34-2.86-0.2-3.68c0.14-0.7,0.59-2.33,1.35-4.88c0.76-2.57,1.15-4.02,1.15-4.36
									s0.04-0.59-1.07-0.72c1.25-0.42,1.46-1.01,1.8-1.77c0.35-0.76,0.42-1.52,0.22-2.28c-0.22-0.77-0.35-2.95-0.42-6.55
									c-0.07-3.61-0.41-6.34-1.04-8.21c-0.63-1.87-1-3.33-1.15-4.37c-0.13-1.04-0.96-1.63-2.5-1.76
									c-1.52-0.14-3.67,1.39-6.44,4.57c1.25-5.96,2.53-9.94,3.85-11.95c1.31-2.01,2.66-2.59,4.05-1.77
									c1.39,0.83,2.29,1.74,2.7,2.7c0.42,0.98,1.04,0.81,1.87-0.52c0.83-1.31,1.52-1.76,2.07-1.35c0.55,0.42,1.15,1.25,1.77,2.5
									c0.63,1.25,1.07,2.57,1.35,3.96c0.28,1.37,0.52,3.91,0.72,7.58c0.02,0.34,0.04,0.68,0.04,0.99c0.07,2.85-0.3,4.86-1.15,6.05
									c-0.06,0.12-0.16,0.23-0.24,0.33c-1.11,1.25-1.66,2.77-1.66,4.57c0.28,7.21,0.83,10.78,1.66,10.71
									c0.83-0.07,1.83-0.63,3.01-1.66c1.18-1.04,2.22-1.42,3.12-1.15c0.72,0.23,1.19,1.58,1.43,4.06c0.05,0.59,0.1,1.24,0.12,1.97
									c0.13,3.74,0.48,4.12,1.04,1.15c0.55-2.98,1.59-4.47,3.11-4.47c1.53,0,1.81,4.02,0.83,12.06
									c-5.4,4.85-9.27,8.86-11.64,12.05c-0.83-3.46-0.86-5.88-0.1-7.27c0.76-1.39,1.45-2.94,2.07-4.68
									c0.63-1.72,1.15-3.29,1.56-4.67c0.13-0.39,0.24-0.74,0.34-1.04c0.68-2.22,0.41-2.24-0.8-0.08c-0.05,0.08-0.1,0.18-0.16,0.29
									c-0.83,1.66-1.57,3.11-2.18,4.37c-0.63,1.24-1.35,2.48-2.18,3.74c-0.23-1.83-0.89-4.86-1.98-9.07
									c-0.22-0.87-0.46-1.81-0.72-2.79c-1.25-3.87-1.59-3.8-1.04,0.22c0.13,0.81,0.27,1.62,0.4,2.42
									c0.88,5.66,1.52,11.14,1.88,16.48c-2.35-2.5-4.74-4.64-7.16-6.44c-0.58-0.43-1.13-0.87-1.68-1.33
									c-1.74-1.41-3.29-2.92-4.67-4.5c-1.52-0.96-1.8-0.83-0.83,0.42c1.19,1.58,2.8,3.38,4.81,5.35c0.8,0.78,1.65,1.59,2.57,2.44
									c3.26,2.98,5.23,4.94,5.92,5.92c0.69,0.96,1.11,1.8,1.24,2.5c-1.24,1.66-2.7,3.39-4.35,5.18c-0.35-0.19-0.65-0.45-0.88-0.74
									c-0.45-0.53-0.7-1.22-0.78-2.06C279.22,246.3,278.77,245.33,278.01,244.71z M266.61,265.5c1.76,0,4.24,0.89,3.62,2.39
									c-0.61,1.48-1.31,4-2.71,4.16c-1.39,0.16-4.1-1.8-4.1-3.56C263.41,266.74,264.83,265.5,266.61,265.5z M203.52,320.65
									c1.66-1.94,3.81-3.68,6.44-5.2c11.78-5.81,19.61-9.21,23.48-10.18c0.7-0.28,1.33-0.07,1.88,0.61l1.65,2.09l-2.28,1.45
									c-1.39,1.11-3.12,1.59-5.2,1.46c-1.8-0.14-4.22,0.45-7.27,1.76c-3.05,1.33-4.71,3.16-4.99,5.51
									c-0.55,1.66-1.31,2.7-2.28,3.12c-3.05,1.65-5.82,3.11-8.31,4.35l-6.45-0.41L203.52,320.65z M220.15,322.1
									c-0.7-2.35,0.13-4.22,2.48-5.61c2.22-1.66,4.64-2.35,7.27-2.07c1.11,0.13,1.18,2.15,0.22,6.03
									c-0.83,1.93-4.92,4.29-12.26,7.05l-6.86-0.82l7.28-4.16l1.87,2.91h1.04L220.15,322.1z M180.25,323.15l2.1,1.99l-4.59-2.21
									L180.25,323.15z M109.29,304.65c1.18-0.55,2.68-0.41,4.47,0.41l9.97,4.79l17.04,6.44c4.16,4.44,6.72,7.48,7.69,9.14
									c-3.47,0.42-7.21,0.7-11.23,0.83l-8.94-6.23c-3.61-4.29-6.23-7.4-7.9-9.35c-1.66-1.94-3.26-3.33-4.77-4.16
									c-2.22-1.24-4.02-1.66-5.4-1.24c-0.96,0.28-2.01,1.66-3.12,4.15l-0.41-0.41C107.25,306.67,108.12,305.21,109.29,304.65z
									 M118.96,313.59c-1.94,0.96-3.88,0.96-5.82,0l-3.33-2.5c1.11-2.77,2.57-3.67,4.37-2.7l3.33,2.91L118.96,313.59z
									 M82.79,196.4c-0.25,3.81-0.87,8.19-1.84,13.13c-0.63,3.15-1.4,6.52-2.3,10.14c-0.14-7.62-0.49-12.75-1.04-15.37l0.93-2.58
									l0.94-2.62c0.13-1.8-0.22-1.87-1.05-0.21l-0.41,0.75l-0.83,1.53l-0.2-4.15l0.36-0.46l2.75-3.5
									C82.18,190.99,83.07,192.1,82.79,196.4z M79.68,185.18c1.8-0.42,2.15,0.41,1.04,2.48l-3.94,5.82
									c-0.18-1.51-0.39-2.88-0.63-4.11c-0.08-0.68-0.17-1.36-0.23-2.05C77.24,186.42,78.49,185.71,79.68,185.18z M63.27,194.95
									c2.91-11.5,5.68-17.59,8.31-18.29c1.52,4.02,2.77,11.47,3.74,22.34c0.96,10.86,0.96,20.67,0,29.4
									c-1.24,11.08-3.12,18.56-5.61,22.44l-2.7,5.81c0-6.04,0.05-11.3,0.16-15.76c0.04-1.68,0.08-3.24,0.13-4.69
									c0.01-0.18,0.01-0.35,0.02-0.53c0.2-5.4,0.41-12.58,0.61-21.51c0.2-8.92,0.8-19.08,1.77-30.43
									c0.55-2.77,0.41-3.39-0.42-1.87c-2.22,11.49-3.53,26.25-3.94,44.25l-0.11,6.32l-0.1,5.53l-0.13,5.31l-0.28,10.49l-0.01,0.41
									l-2.7-3.12c-0.1-0.49-0.19-0.98-0.28-1.47c-0.14-0.75-0.29-1.51-0.41-2.27c-1.25-7.43-1.88-15.12-1.86-23.1
									c0-1.22,0.01-2.46,0.05-3.7C59.94,212.6,61.19,204.09,63.27,194.95z M44.88,229.75c0.65-2.89,1.54-5.82,2.68-8.79
									c2.82-7.43,7.16-15.07,13.01-22.9c-1.39,5.68-2.16,9.9-2.29,12.67c-2.8,4.84-5.31,9.66-7.52,14.46
									c-2.6,5.67-4.81,11.3-6.61,16.92c-0.83,3.18-1.52,6.99-2.07,11.43C41.65,247.86,42.59,239.93,44.88,229.75z M58.48,247.1
									l-4.57-5.82l3.33-8.31C57.1,237.54,57.52,242.25,58.48,247.1z M153.03,23.11c0,2.63-1.59,5.53-4.79,8.73
									c-4.85,4.43-10.9,8.51-18.17,12.25c-7.28,3.74-16.74,8.18-28.37,13.3v-1.24c14.13-10.53,27.23-19.12,39.27-25.77
									c3.18-1.94,2.91-2.5-0.83-1.66c-4.15,2.07-8.72,4.64-13.71,7.69c-8.31,5.4-16.41,10.73-24.31,15.99l0.21-2.48
									c15.8-13.85,28.75-22.79,38.85-26.81C146.17,22,150.11,22,153.03,23.11z M106.17,28.09c7.55-6.23,16.59-11.08,27.12-14.54
									c5.12-1.39,9.55-2,13.3-1.87c1.8,0.42,2.28,1.46,1.45,3.12l-4.57,6.02c-4.02,0.55-9.53,2.85-16.52,6.86
									c-6.99,4.02-14.51,9.35-22.55,16l-2.91,1.87c-1.52-1.11-4.29-0.63-8.31,1.45c12.75-10.66,23.83-18.76,33.24-24.31
									c6.09-3.04,9.62-5.19,10.6-6.44c-3.05,0.83-7.34,2.74-12.89,5.72c-5.53,2.98-14.67,9.18-27.42,18.59L84.46,51.58
									C91.39,42.15,98.63,34.32,106.17,28.09z M93.39,51.16c2.22-1.24,3.74-1.72,4.57-1.46c0.55,1.39,0.7,3.29,0.42,5.72
									c-0.28,2.42-2.09,7.52-5.4,15.28l-1.58,3.07l-2.57,4.99l-3.55,6.9c-5.4,0.69-10.53,3.18-15.37,7.48
									c2.5-4.29,5.51-9.21,9.04-14.76c3.52-5.53,9.03-13.84,16.51-24.92c1.25-2.09,1.29-2.6,0.11-1.57
									c-1.18,1.05-4.33,5.03-9.45,11.95C81,70.76,74.14,81.49,65.55,96.04c-0.37,0.57-0.82,1.25-1.35,2.07
									c-0.2,0.33-0.43,0.66-0.66,1.02c-0.3,0.46-0.63,0.96-0.98,1.5c-0.17,0.27-0.35,0.53-0.53,0.82
									c-0.19,0.29-0.39,0.58-0.59,0.89c-0.16,0.23-0.31,0.47-0.47,0.72c-0.33,0.49-0.66,1.01-1.01,1.56
									c-0.18,0.27-0.35,0.54-0.53,0.82c-0.18,0.28-0.36,0.57-0.55,0.86c-0.19,0.29-0.39,0.58-0.58,0.88
									c-0.19,0.3-0.4,0.6-0.59,0.92c-0.37,0.57-0.76,1.15-1.15,1.75c-0.25,0.39-0.52,0.78-0.77,1.19
									c-0.41,0.61-0.82,1.24-1.24,1.89c-0.05,0.07-0.1,0.14-0.13,0.22c-0.47,0.72-0.95,1.47-1.46,2.23
									c-0.25,0.39-0.51,0.77-0.76,1.17c-0.31,0.47-0.63,0.95-0.94,1.45c-0.64,0.98-1.3,1.99-1.98,3.03
									c-0.11,0.17-0.22,0.33-0.31,0.49c-0.28,0.43-0.57,0.88-0.86,1.33c-0.7,0.7-2.77,1.11-6.23,1.24l-6.86,20.16
									c0.55,0.83,2.29,0.55,5.2-0.83c-1.39,2.63-3.46,4.09-6.23,4.37l-1.66-1.24l-0.83-3.12l0.2-1.87l1.66,0.2l7.27-18.49
									l-4.37-5.4l1.05-3.12c1.37,2.91,2.7,4.5,3.94,4.78c1.94-3.74,4.74-8.83,8.42-15.27c3.67-6.44,7.99-12.99,12.99-19.64
									l-0.2-1.65c0-0.98,0.48-1.05,1.45-0.22l10.39-14.95l-8.53,14.75c1.39,1.52,0.76,2.57-1.87,3.12
									c-8.86,11.77-15.65,23.48-20.35,35.11l2.07,0.61c1.24,0.55,2.42,0.01,3.53-1.65l12.67-22.44l12.05-22.44
									C79.54,64.73,86.05,56.84,93.39,51.16z M48.1,125.75c-2.92,5.4-5.12,10.25-6.66,14.55l-1.66-0.22l4.37-13.51L48.1,125.75z
									 M38.75,148.41l-4.15,11.21l-2.92,9.77l1.04-8.31l1.46-6.03l1.24-6.03L38.75,148.41z M31.9,138.42
									c0.96-6.22,2.28-11.9,3.94-17.04l1.66,2.09L31.9,138.42z M62.44,63.83c2.35-4.85,5.81-10.32,10.38-16.41
									c1.39-3.18,0.63-3.12-2.28,0.2c-6.79,8.45-14.69,21.83-23.69,40.11l3.96-9.97c0.69-2.22,2.91-7.23,6.64-15.07
									c3.74-7.83,7.42-14.02,11.01-18.59c3.61-4.57,6.1-7.55,7.49-8.94c4.98-4.29,7.89-6.29,8.72-6.02c0.7,0.54,0.9,1.45,0.63,2.7
									L75.11,58.02C68.46,70.9,59.74,84.33,48.93,98.33c-4.58,4.98-7.42,8.18-8.53,9.55c-1.11,1.39-2.01,2.7-2.7,3.96l0.83-3.53
									l3.94-6.23C48.03,93.06,54.67,80.31,62.44,63.83z M34.38,215.52c0-2.77-0.31-4.51-0.93-5.2c-0.63-0.7-1.25-1.98-1.87-3.85
									c-0.63-1.87-1.57-4.64-2.81-8.31c-1.24-3.68-2.15-6.97-2.7-9.88h-0.01c-3.71-1.66-6.44-4.49-8.09-8.42
									c-1.66-3.94-3.22-9.1-4.68-15.48c-1.45-6.37-2.04-13.99-1.76-22.85c0.69-10.53,2.22-20.78,4.57-30.75
									c3.46-13.85,10.53-27.01,21.2-39.48c2.35-2.64,3.8-3.26,4.35-1.88c0.55,5.55,0.52,10.91-0.1,16.11
									c-0.63,5.2-1.98,10.97-4.05,17.35c-5.4,18-8.66,30.12-9.77,36.35c-2.07,7.34-4.36,16.91-6.86,28.67
									c-1.11-5.68-0.45-17.62,1.98-35.84s5.51-31.21,9.25-38.96c1.8-4.02,1.72-4.64-0.21-1.87
									c-8.45,14.41-13.37,35.67-14.76,63.79c-0.28,9.84,0.28,16.93,1.66,21.29c1.39,4.37,2.98,6.9,4.77,7.58
									c0.98,0.55,2.01,0.48,3.12-0.2c0.83-5.26,1.39-9.53,1.66-12.78c0.28-3.26,0.65-7.07,1.13-11.42
									c0.49-4.37,1.35-8.01,2.6-10.91l0.83,0.83c-1.39,6.37-2.12,10.8-2.18,13.3c-0.07,2.48-0.24,4.98-0.52,7.48
									c-0.28,2.5-0.55,7.27-0.83,14.34c1.66-5.68,3.46-11.08,5.4-16.21l6.44-18.7l5.68-13.49l2.63-6.25
									c0.02-0.05,0.05-0.08,0.07-0.13c0.83-1.63,1.74-3.29,2.69-4.99c0.45-0.8,0.9-1.59,1.39-2.41c0.49-0.84,1-1.71,1.53-2.58
									c0.07-0.13,0.16-0.25,0.23-0.39c0.46-0.75,0.92-1.5,1.39-2.25c0.69-1.11,1.4-2.24,2.13-3.39c0.82-1.28,1.68-2.58,2.56-3.91
									c0.22-0.34,0.45-0.68,0.68-1.01c2.01-2.99,4.17-6.08,6.46-9.27c1.28-1.51,2.52-2.82,3.73-3.94
									c0.42-0.41,0.83-0.78,1.24-1.12L74.26,94c0.3-0.24,0.6-0.48,0.9-0.7c0.29-0.22,0.59-0.43,0.88-0.63
									c0.19-0.13,0.39-0.25,0.58-0.37c0.45-0.28,0.89-0.52,1.31-0.74c0.23-0.12,0.47-0.23,0.71-0.33
									c0.23-0.11,0.46-0.19,0.69-0.28c0.04-0.01,0.07-0.02,0.1-0.04c0.23-0.08,0.46-0.16,0.7-0.22c0.21-0.06,0.41-0.11,0.61-0.14
									c0.06-0.01,0.12-0.02,0.18-0.04c0.01,0,0.01,0,0.02,0c0.04-0.01,0.06-0.01,0.1-0.02c0.17-0.04,0.34-0.05,0.51-0.07
									c0.61,0.89,0.83,2.38,0.66,4.47v0.05C82.2,95,82.2,95.06,82.2,95.11c-0.02,0.13-0.04,0.25-0.05,0.39
									c-0.02,0.22-0.05,0.42-0.08,0.64c-0.04,0.28-0.08,0.58-0.13,0.88c-0.06,0.34-0.12,0.68-0.19,1.03
									c-0.01,0.04-0.02,0.08-0.02,0.12c-0.05,0.22-0.1,0.42-0.14,0.64v0.01c0,0.04-0.01,0.08-0.02,0.13
									c-0.96,4.3-2.63,8.8-4.99,13.5c-0.16,0.06-0.34,0.14-0.14,0.25c-0.23,0.43-0.46,0.87-0.7,1.29
									c-0.04,0.08-0.08,0.17-0.13,0.25c-0.52,0.94-1.04,1.86-1.54,2.76c-0.28,0.49-0.57,0.98-0.84,1.47
									c-0.55,0.96-1.11,1.92-1.66,2.85c-1.15,1.92-2.29,3.75-3.42,5.52c-0.27,0.43-0.54,0.86-0.82,1.27
									c-0.34,0.52-0.69,1.04-1.03,1.54c-0.1,0.16-0.2,0.3-0.31,0.46c-0.1,0.16-0.19,0.3-0.3,0.45c-0.28,0.41-0.54,0.8-0.82,1.19
									c-0.34,0.48-0.66,0.95-1,1.42c-0.34,0.47-0.68,0.94-1,1.39c-0.34,0.46-0.68,0.9-1,1.35c-0.34,0.45-0.68,0.88-1,1.31
									c-0.02,0.02-0.04,0.05-0.06,0.07c-0.52,0.68-1.05,1.34-1.57,1.98c-0.82,1.01-1.64,1.98-2.46,2.91
									c-0.52,0.59-1.05,1.17-1.57,1.74c-0.01,0.01-0.02,0.01-0.02,0.02c-0.53,0.57-1.06,1.12-1.58,1.65
									c-0.47,0.47-0.95,0.94-1.42,1.39c-0.06,0.06-0.11,0.11-0.17,0.17c-0.41,0.39-0.83,0.77-1.24,1.15h-0.01
									c-0.11,0.11-0.23,0.22-0.34,0.31l0.23-0.37l10.57-17.16l-3.1-0.35c-0.06,0.1-0.13,0.21-0.19,0.3
									c-0.27,0.42-0.53,0.83-0.8,1.24c-0.27,0.41-0.51,0.81-0.76,1.21c-1.7,2.66-3.16,5.02-4.4,7.04
									c-0.33,0.53-0.63,1.05-0.92,1.53c-0.25,0.42-0.49,0.83-0.72,1.23c-0.25,0.41-0.48,0.81-0.7,1.19
									c-0.53,0.93-0.99,1.74-1.36,2.44c-0.12,0.23-0.24,0.46-0.35,0.66c-2.76,5.4-5.46,10.45-8.1,15.17
									c-2.63,4.7-4.36,8.38-5.19,11.01c-0.83,2.63-2.57,7.34-5.2,14.13c0,1.24,0.83,4.85,2.5,10.8c1.65,5.96,3.07,9.45,4.26,10.49
									c1.17,1.04,1.28,2.18,0.31,3.42c-0.42,1.11-0.14,3.2,0.83,6.23c0.69,3.33,2.28,7.9,4.77,13.72l-0.63,2.07
									C38.82,228.81,36.47,222.44,34.38,215.52z M27.53,153.81c-1.39,11.08-2.57,19.74-3.53,25.97l-0.83-1.66
									C22.33,176.86,23.78,168.76,27.53,153.81z M93.39,309.85l-2.7-3.53c-0.83-0.98-1.98-1.18-3.42-0.63
									c-1.46,0.55-2.6-0.28-3.44-2.5c-3.74,2.22-7.55,1.39-11.42-2.48l-6.86-8.32l-6.44-11.01l-2.29-1.66
									c-0.01,0.01-0.02,0.01-0.04,0.01c-0.12,0.08-0.25,0.16-0.37,0.23c-0.25,0.13-0.52,0.25-0.78,0.36c0,0,0,0-0.01,0
									c-0.82,0.29-1.71,0.42-2.65,0.36c-0.19-0.01-0.37-0.04-0.57-0.06c-0.19-0.04-0.37-0.06-0.55-0.11l-8.31-5.37
									c-1.94-1.8-6.1-8.94-12.47-21.4c-8.45-16.06-14.2-28.19-17.26-36.36c-2.21-6.79-3.67-11.08-4.36-12.89
									c-0.69-1.8-0.96-1.83-0.82-0.1c0.13,1.72,1.17,5.61,3.11,11.64c1.94,6.02,5.55,14.86,10.8,26.49
									c4.57,9.42,9.08,18,13.51,25.76c-10.25-11.08-17.67-21.46-22.24-31.16c-4.57-9.56-7.61-18.42-9.14-26.6
									c-0.69-2.91-1.11-7.38-1.24-13.41c-0.14-6.02-0.07-9.38,0.2-10.07c0.69-2.09,1.66-2.98,2.91-2.7c0.83,0,2.74,1.97,5.72,5.92
									c2.98,3.94,7.03,12.81,12.15,26.6c5.12,13.78,8.28,22.81,9.45,27.11c1.18,4.29,2.36,8.04,3.53,11.23
									c1.18,3.18,2.6,6.44,4.26,9.77c2.5,4.98,4.99,8.38,7.49,10.18c0.51,0.35,0.98,0.66,1.43,0.93c0.27,0.14,0.52,0.29,0.76,0.41
									c0.18,0.08,0.36,0.17,0.54,0.25c0.22,0.08,0.43,0.17,0.64,0.24c0.19,0.07,0.39,0.12,0.58,0.17c0.18,0.04,0.36,0.07,0.53,0.1
									c0.12,0.02,0.25,0.02,0.37,0.02c0.04,0.01,0.08,0.01,0.12,0.01c0.14,0,0.29-0.01,0.42-0.02c0.14-0.01,0.28-0.04,0.41-0.07
									c0.13-0.02,0.25-0.06,0.39-0.11c0.12-0.05,0.24-0.1,0.36-0.16c0.12-0.07,0.25-0.14,0.37-0.24c0.11-0.08,0.23-0.18,0.34-0.29
									l-5.61-11.42c-0.98-2.09-0.84-4.12-2.79-3.57l0.75,1.34c-0.68-0.29-1.45-0.31-2.33-0.06c-0.14,0.01-0.28,0.01-0.41,0.01
									h-0.07c-0.04,0-0.07,0-0.11-0.01c-0.1,0-0.18,0-0.27-0.01c-0.57-0.05-1.06-0.18-1.48-0.4c-0.3-0.16-0.57-0.36-0.8-0.59
									c-0.07-0.1-0.16-0.19-0.23-0.29c-0.06-0.1-0.13-0.2-0.19-0.31c-0.08-0.16-0.16-0.33-0.23-0.51
									c-0.06-0.18-0.12-0.37-0.16-0.58c-0.04-0.21-0.07-0.42-0.1-0.64c-0.02-0.22-0.04-0.45-0.04-0.69v-0.07
									c0-0.05,0-0.08,0.01-0.13v-0.16c0-0.14,0.01-0.3,0.02-0.45c0.01-0.25,0.05-0.52,0.08-0.78c0.28-2.5,1.18-6.79,2.7-12.88
									c0.24-0.81,0.48-1.6,0.75-2.41c0.12-0.37,0.24-0.75,0.36-1.12c0.12-0.37,0.24-0.75,0.37-1.12c0.29-0.86,0.58-1.71,0.89-2.57
									c0.28-0.78,0.57-1.58,0.87-2.38c0.01-0.01,0.01-0.01,0.01-0.02c0.14-0.4,0.3-0.8,0.46-1.19c0.14-0.4,0.31-0.8,0.47-1.19
									c0-0.01,0-0.01,0.01-0.02c0.31-0.8,0.64-1.58,0.98-2.38c0.33-0.78,0.68-1.58,1.03-2.38c0.34-0.78,0.7-1.57,1.06-2.36
									c0.01-0.01,0.01-0.04,0.02-0.05c0.43-0.95,0.89-1.89,1.35-2.85c0.46-0.94,0.93-1.88,1.4-2.81c0.02-0.04,0.04-0.07,0.05-0.1
									c0.04-0.06,0.06-0.13,0.1-0.19c0.08-0.16,0.16-0.3,0.24-0.46c0.02-0.06,0.06-0.11,0.08-0.17c0.06-0.11,0.12-0.22,0.18-0.33
									c0.24-0.46,0.49-0.93,0.74-1.39c0.54-1.02,1.1-2.05,1.68-3.07c-0.48,3.18-0.81,6-0.95,8.46c-0.01,0.33-0.04,0.65-0.05,0.96
									c-0.02,0.48-0.04,0.94-0.04,1.39v0.41c-5.12,11.49-8.86,20.78-11.23,27.84c-1.24,5.12-1.17,7.62,0.22,7.48l1.65-0.83
									l-1.24-2.91l0.83-2.28l2.5,4.35l1.45-1.04l1.25,1.87l-1.25,1.88l9.36,13.51l2.28-1.87l1.66,1.87
									c-2.77,2.76-3.88,4.57-3.33,5.4c2.5,4.57,4.79,8.24,6.86,11.01c4.16,6.09,7.55,7.83,10.18,5.2c0.83-0.7,1.88-0.55,3.12,0.41
									c1.24,0.98,2.63,3.05,4.16,6.23l-0.22-4.77l-7.68-7.27l-4.36-8.73c-3.61-5.12-6.16-9.07-7.69-11.84
									c-1.52-2.77-3.42-6.1-5.72-9.97c-2.28-3.88-5.09-8.25-8.4-13.09l0.61-2.29l6.66,8.1c5.96,7.62,10.14,13.41,12.56,17.35
									c2.42,3.96,3.85,4.88,4.26,2.81l1.25-3.94l1.87,1.04l-1.24,8.1l-0.42,2.5c-0.13,1.93,0.24,3.07,1.15,3.42
									c0.89,0.35,1.7,1.63,2.39,3.85c0.41,1.39,2.59,4.26,6.55,8.62c3.94,4.37,8.1,8.03,12.47,11.01c4.37,2.98,7.96,5.4,10.8,7.27
									c2.83,1.87,4.18,3.7,4.05,5.51l3.94,0.83l-1.04-4.99l2.5-0.61c1.24,0.82,2.28,2.35,3.11,4.57c3.61,2.76,6.72,4.98,9.36,6.64
									l-9.14,1.66l-15.59-9.36L93.39,309.85z M55.16,261.23l1.25-1.25l5.81,9.77l-0.61,1.24L55.16,261.23z M64.92,280.75
									l2.29-2.91l5.4,7.69l3.11,5.61l1.05,3.11c-1.94-0.96-3.61-2.42-4.99-4.35l-3.33-4.37L64.92,280.75z M112.93,330.83
									l-12.47,2.09l2.91-8.32L112.93,330.83z M142.64,369.69c-5.81,5.68-12.4,11.08-19.74,16.21l-2.5-0.83
									c4.29-2.64,10.39-6.93,18.29-12.89l3.53-3.94l-1.87-0.21c-2.64,2.35-5.66,4.74-9.04,7.16c-3.39,2.42-7.31,4.75-11.74,6.96
									l-6.02,2.92l1.04,1.24l4.57,0.63c2.63,1.66,3.74,3.33,3.33,4.98c-1.39,2.09-3.61,2.36-6.66,0.83l-4.98-2.7
									c-1.81-1.8-3.61-3.04-5.4-3.74l-2.09-1.66l0.83-2.07l6.23,2.5h1.87l-1.04-3.74l7.48-4.58c1.94-0.69,2.77-1.87,2.5-3.52
									l0.63-3.75c3.18,0.7,6.64,0.18,10.39-1.56c3.74-1.74,7.27-2.74,10.59-3.01C144.93,366.29,144.86,367.89,142.64,369.69z
									 M137.66,361.06c-7.21,1.6-13.72,3.01-19.53,4.27c-14.54,2.63-28.88,4.78-43.01,6.44c-3.61-0.98-14-6.31-31.17-16
									c-12.19-7.34-20.7-13.3-25.56-17.87c-5.53-5.96-7.75-9.56-6.64-10.8c3.61-5.96,6.03-11.21,7.27-15.8
									c0.55-1.93,0.7-3.46,0.42-4.57c-1.53-4.7-0.42-7.13,3.32-7.27c9.28-0.55,15.52-0.69,18.7-0.41c1.39,0.13,2.29-0.28,2.7-1.25
									l3.12-6.23l-1.87-0.83l-2.7,4.16l-0.22-4.77c0-0.7,0.42-0.9,1.25-0.63c5.81,1.52,8.51,3.46,8.1,5.82
									c-1.81,3.04-2.64,6.5-2.5,10.38l0.21,10.8c-7.34-4.85-15.23-9.14-23.68-12.88c0.96-0.14,2.07-0.24,3.32-0.31
									c1.25-0.07,2.09-0.52,2.5-1.35c0.42-0.83-0.34-1.31-2.28-1.46c-4.29,0-7.07,0.35-8.32,1.04c-0.96,1.11-0.76,2.29,0.63,3.53
									c9.97,4.99,18.77,9.98,26.4,14.96c12.05,7.62,21.39,13.85,28.05,18.7c6.51-0.13,15.65-1.04,27.43-2.7l17.86-3.33
									c7.34-1.39,14.96-2.56,22.86-3.53c2.91-0.41,6.58-0.69,11.01-0.83c4.44-0.13,8.53-0.48,12.26-1.04
									c3.61,6.79,5.81,12.75,6.64,17.87c0.42,2.63,0.07,4.09-1.04,4.37C156.7,355.64,144.86,359.47,137.66,361.06z M190.85,354.31
									l-1.04-3.32l-5.62,7.07l-4.57,2.91c-2.07,1.8-4.22,2.5-6.44,2.07l-7.27-3.53l3.74-1.87l1.04,0.83
									c-0.69,2.07,0.14,1.8,2.5-0.83l6.44-6.23c0.42-3.74-0.48-8.55-2.7-14.43c-2.21-5.9-3.87-9.6-4.98-11.12
									c-0.28-1.25-3.46-1.53-9.56-0.83c3.61-1.81,7.83-1.94,12.67-0.42l4.99,2.09l2.7-1.17l1.45,1.37
									c7.07,7.62,11.06,12.81,11.95,15.58c0.9,2.77,1.01,5.47,0.31,8.1C193.82,354.03,191.96,355.29,190.85,354.31z
									 M213.49,383.81c-1.24-0.96-1.59-1.93-1.04-2.91l4.16,3.53C215.78,385,214.75,384.79,213.49,383.81z M240.5,384.24
									l2.29,0.41l-0.83,1.04l-5.4,1.66c-2.35,2.09-5.12,3.46-8.31,4.16l-3.53-0.63l-0.83-2.5c0.83-1.24,1.91-2.15,3.22-2.7
									c1.31-0.55,3.01-1.04,5.09-1.45l4.99,0.83L240.5,384.24z M232.82,381.95c-3.74,0-6.1,0.42-7.07,1.25h-2.91
									c-4.03-2.77-7.21-5.34-9.56-7.69l-9.77-7.69c1.8-0.96,5.68-0.61,11.64,1.05L232.82,381.95z M262.53,339.67
									c4.02,0.34,7.07,0.17,9.14-0.53c3.74-1.52,11.43-7.2,23.07-17.04c11.21-8.44,20.7-14.34,28.47-17.65
									c2.35-1.39,2.46-2.39,0.3-3.01c-2.15-0.63-5.37-0.94-9.66-0.94c-1.39,1.11-1.24,2.01,0.42,2.7c1.93-0.13,3.32,0,4.15,0.42
									c-9.27,4.85-17.04,9.69-23.27,14.54c0.55-3.18,1.04-8.66,1.46-16.41c-0.14-2.5-0.98-4.71-2.5-6.66
									c-0.96-1.39,0.35-2.63,3.95-3.74l2.91-0.83v4.57l-3.96-1.04l0.42,2.07c0.83,1.53,2.35,2.57,4.57,3.12l11.21,0.63l4.99-0.22
									c5.82,0.14,8.66,1.57,8.53,4.27c-0.14,2.7,0.06,5.22,0.61,7.58c0.98,5.96,3.33,11.64,7.07,17.04
									c-0.83,2.48-2.63,5.4-5.4,8.72l-10.8,7.07c-9.28,6.66-21.89,15.31-37.81,25.97c-11.36,0.28-25.01-0.61-40.94-2.7
									c-11.49-1.52-24.72-4.43-39.68-8.73l-3.33-0.82l1.46-1.46c2.35-3.05,3.63-5.09,3.85-6.13c0.2-1.05-0.14-3.4-1.05-7.07
									c-0.89-3.68-3.5-8.01-7.79-12.99v-1.25l3.12-0.41c8.59,0.55,16.24,1.66,22.96,3.33c6.72,1.65,14.71,3.18,24,4.57
									C252,338.32,258.52,339.32,262.53,339.67z M246.95,334.16c-3.61-0.55-9.43-1.59-17.46-3.12l7.27-2.48
									c3.88,0.83,6.1,0,6.66-2.5C243.96,328.96,245.14,331.66,246.95,334.16z M290.37,272.87c-2.77,3.04-3.67,6.22-2.7,9.55
									c-3.88,2.09-7.62,5.12-11.23,9.14c-3.59,4.03-6.33,7.42-8.2,10.19c-1.87,2.77-3.85,4.43-5.92,4.98
									c-2.36,1.11-5.06,0.55-8.1-1.66l-0.83,5.2l-13.93,8.53l-6.85,2.91c0.54-1.39,0.89-3.74,1.04-7.07l2.48-2.07
									c9.56-4.99,15.11-9.56,16.63-13.71c1.94-3.47,4.02-6.34,6.23-8.63c2.22-2.28,3.81-5.09,4.77-8.42l0.22-4.98l-0.63-5.2
									c2.22,2.5,4.22,3.05,6.03,1.66c2.91-5.4,6.02-10.43,9.35-15.06c3.33-4.64,6.86-8.97,10.6-12.99
									c3.74-4.02,6.92-7.42,9.55-10.19l-0.21,5.2c-8.31,10.25-13.51,17.24-15.58,20.99c-7.07,10.66-11.84,19.11-14.34,25.35
									c-1.53,3.46-3.74,6.23-6.66,8.31c-2.21,1.11-3.87,2.29-4.98,3.53c-0.98,1.8-0.42,2.29,1.66,1.46
									c1.39-1.39,2.91-2.42,4.57-3.12c3.05-1.52,9.55-8.73,19.53-21.61l-0.22-7.27l2.29-3.94c-0.14,4.02,0.2,6.22,1.04,6.64
									c0.83,0.41,1.98-0.72,3.42-3.42c1.46-2.7,5.03-10.15,10.71-22.34c-1.25,3.74-1.31,6.99-0.21,9.77
									c-3.33,2.35-4.23,6.38-2.7,12.06L290.37,272.87z M337.03,226.73c-0.49,3.46-1.63,6.44-3.44,8.94
									c-5.68,6.51-8.03,10.39-7.07,11.64c1.53,2.63,1.25,5.61-0.83,8.93c-3.04,3.74-7.07,7.9-12.05,12.47
									c1.39,2.77,0.35,5.12-3.12,7.07c-4.02,2.22-8.44,4.15-13.29,5.81c9-6.79,14.54-14.06,16.62-21.81
									c2.91-2.63,5.47-4.37,7.69-5.2c1.94-1.24,2.28-1.8,1.04-1.66c-2.5,0.98-5.12,2.5-7.9,4.57c2.63-5.26,4.5-10.94,5.61-17.04
									c5.4-5.26,8.8-9.42,10.19-12.47c1.94-2.91,2-3.53,0.2-1.87c-2.07,3.47-5.27,7.14-9.56,11.02c1.94-5.96,3.68-12.61,5.2-19.96
									c0.69-4.29,0.48-5.05-0.63-2.28l-2.07,7.27c-0.96-2.91-2.07-5.12-3.33-6.64l2.7,8.72c-0.55,3.46-1.87,8.38-3.94,14.76
									c-1.94-5.55-4.5-10.53-7.69-14.96c-2.91-3.61-3.39-3.67-1.45-0.2c3.18,4.57,5.81,10.6,7.9,18.08
									c-1.66,6.64-3.61,12.19-5.82,16.62c-1.66-2.48-3.39-4.22-5.2-5.18c-1.39-0.7-1.39-0.28,0,1.24c1.81,1.8,3.26,3.61,4.37,5.4
									c-1.66,4.02-3.85,7.55-6.55,10.6c-2.7,3.05-5.37,5.61-7.99,7.69c3.33-5.12,4.44-10.8,3.33-17.04c0-1.11,0.86-2.01,2.59-2.71
									c1.74-0.69,2.32-1.45,1.77-2.28c-1.53-3.05-2.29-5.47-2.29-7.27c1.11-0.55,2.77-0.55,4.99,0c1.8-1.25,1.62-3.01-0.53-5.31
									c-2.15-2.28-3.5-5.57-4.05-9.86c0-2.5,1.66-3.4,4.99-2.7c1.52-0.14,1.66-1.94,0.41-5.4l-3.52-4.78
									c-2.5-5.55-1.46-7.56,3.11-6.03l5.4,3.33c3.61,1.37,5.33-1.05,5.2-7.28c0-1.37,1.07-1.69,3.22-0.93
									c2.15,0.76,4.12-0.87,5.92-4.88c1.8-1.94,3.18-0.14,4.16,5.4c-0.42,7.34,1.37,10.8,5.4,10.39
									C337.4,221.33,337.51,223.27,337.03,226.73z M343.25,208.86c0.22,1.39-0.1,2.53-0.93,3.42c-0.83,0.9-2.42,1.7-4.77,2.4
									l-2.29-4.16c0.14-3.33-0.96-6.51-3.33-9.56c0.98-0.83,2.5-1.66,4.57-2.48c1.53-0.7,1.25-0.9-0.82-0.63
									c-2.22,0.41-3.96,0.96-5.2,1.66h-0.42c1.25-4.44,3.26-8.66,6.03-12.67c0.69-1.81,0.28-1.74-1.24,0.21
									c-2.36,3.32-4.44,6.85-6.23,10.6c-0.83-0.83-1.46-2.36-1.87-4.58c-0.55-2.63-0.98-2.7-1.25-0.21
									c0.42,3.18,1.04,5.47,1.87,6.86c-3.05,4.7-5.47,6.58-7.27,5.61c1.11-6.64,2.57-13.64,4.37-20.98
									c3.18-3.18,5.96-4.23,8.31-3.12c3.33-2.63,6.16-3.11,8.53-1.45c1.24,2.07,1.8,4.11,1.66,6.13
									c-0.14,2.01-0.83,4.26-2.09,6.75c2.64,0,4.02,1.04,4.16,3.11c-1.11,4.71-3.33,8.12-6.64,10.19
									C341.42,206.51,343.04,207.48,343.25,208.86z"/>
							</g>
						</g>
					</g>
				</g>
				<g>
					<g>
						<g>
							<path class="st0" d="M147.57,355.22c1.86-0.49,3.71-0.97,5.09-2.84l0.94,1.38l-1.02-6.96l-0.46,0.48
								c0.05,3.72-0.85,6.51-4.1,7.48c-4.65,0.52-6.55-4.1-7.56-8.74c-0.52-4.64-0.13-10.21,4.52-10.74
								c2.78-0.49,5.13,1.79,6.11,5.04l0.49-0.01l-1.03-6.03l-0.47,0.01l0.02,1.39c-1.87-0.89-3.26-1.35-5.62-0.85
								c-5.08,0.52-7.82,5.67-7.27,11.7C138.23,352.56,142.47,356.23,147.57,355.22"/>
						</g>
					</g>
					<g>
						<g>
							<path class="st0" d="M202.88,334.91l0.01,0.92c0.91-0.01,1.84,0.45,1.85,1.37c0.47,0.93,0.04,2.78,0.05,3.72l-1.28,8.85
								c0.01,0.92-0.4,3.25-0.89,3.71c-0.47,0.94-1.38,0.95-2.29,0.96l0.01,0.46c1.4,0.45,2.3,0.44,3.71,0.42
								c1.38,0.43,2.32,0.42,3.72,0.9l-0.01-0.95c-0.91,0.01-1.84,0.02-1.86-1.35c-0.01-0.48-0.04-2.79,0.4-3.74l0.83-8.81
								c0.43-0.97,0.41-2.8,0.89-3.74c0.43-0.95,1.8-0.96,2.3-0.97l0.46-0.45c-1.41,0.02-2.79-0.44-4.19-0.42
								C205.67,335.79,204.24,335.35,202.88,334.91"/>
						</g>
					</g>
					<g>
						<g>
							<path class="st0" d="M130.46,339.18c0.01,0.93,0.49,2.76,0.5,3.7l1.51,8.84c0.01,0.91,0.5,2.76,0.05,3.69
								c0.02,1.41-0.9,1.42-1.83,1.43l0.01,0.45c1.39-0.02,2.78-0.04,3.7-0.5l3.71-0.05l-0.01-0.95c-0.91,0.01-1.85,0.02-2.35-0.89
								c-0.45-0.46-0.94-2.78-0.95-3.69l-1.05-8.82c-0.47-0.94-0.5-2.77-0.51-3.74c0.45-0.9,1.38-1.39,1.85-1.4l-0.01-0.47
								c-0.93,0.01-2.32,0.5-3.7,0.52c-0.93,0.01-2.34,0.03-3.73,0.53l0.47,0.44C128.58,338.28,129.5,338.26,130.46,339.18"/>
						</g>
					</g>
					<g>
						<g>
							<path class="st0" d="M29.55,325.12c2.32,1.39,4.65,1.36,6.93-1.48c2.3-3.27,0.41-5.56-1.94-7.4
								c-0.48-0.45-1.41-1.38-2.35-1.82c-1.41-0.91-2.36-1.83-3.77-2.75l0.01,0.94c0.47,0.45,1.42,0.91,0.98,1.85
								c-0.48,0.93-1.85,2.8-2.31,3.27l-5.01,7.06c-0.45,0.91-1.83,2.79-2.76,3.27c-0.91,0.46-1.38,0.02-2.33-0.44l-0.44,0.48
								c1.39,0.43,2.33,1.36,3.29,2.25c0.92,0.47,1.86,1.39,2.8,1.84l0.46-0.47c-0.93-0.47-1.4-0.91-1.42-1.85
								c0.45-0.94,1.81-2.8,2.28-3.73l2.27-2.83c0.94,0.93,0.94,0.93,0.96,2.31l-0.37,7.44l-0.43,2.34c0.47,0.46,1.41,0.45,1.9,0.89
								c0.45,0.47,0.92,0.93,1.42,1.39l0.44-0.47c-0.95-0.93-0.96-1.39-0.98-2.79L29.55,325.12z M27.16,322.38l4.11-5.61
								c0.47-0.01,0.47-0.48,0.94-0.48c0,0,0.94,0.46,1.4,0.9c1.4,0.93,1.43,3.25,0.07,5.11C30.93,325.58,29.53,324.22,27.16,322.38
								"/>
						</g>
					</g>
					<g>
						<g>
							<path class="st0" d="M110.15,351.86c-0.95-0.91-2.35-0.9-3.76-0.88c1.84-0.98,3.71-2.38,3.2-5.16
								c-0.51-3.72-3.77-4.16-6.55-3.64c-0.96,0.01-1.89,0.49-2.79,0.51c-1.41,0.02-2.34,0.03-3.75,0.52l0.01,0.46
								c0.95-0.01,1.87-0.02,2.35,0.88c0.48,0.48,0.97,2.77,0.98,3.72l1.03,8.82c0.01,0.91,0.49,2.78,0.51,3.72
								c0.02,1.4-1.36,1.41-1.82,1.42l0.01,0.91c1.37-0.48,2.75-0.94,4.18-0.96c0.91-0.01,2.32-0.03,2.76-0.51
								c1.41-0.02,3.27-0.04,4.65-1.46c0.9-0.95,1.82-2.35,1.79-4.68C112.5,354.13,111.54,352.75,110.15,351.86 M102.11,343.59
								c0,0,0.96-0.01,1.42-0.48c1.83-0.02,2.78,0.88,3.27,3.2c0.02,1.38,0.04,2.77-0.87,3.71c-0.48,0.46-1.4,0.48-2.3,0.99
								l-0.47,0.01l-1.04-6.04L102.11,343.59z M106.99,360.72c-0.91,0.01-1.84,0.02-2.33-0.9c-0.48-0.92-0.5-2.33-0.95-3.25
								l-0.52-4.17l0.91-0.01c0.95-0.01,1.87-0.47,3.25-0.04c0.94,0.89,1.9,1.84,1.93,3.7
								C109.76,358.35,108.85,360.22,106.99,360.72"/>
						</g>
					</g>
					<g>
						<g>
							<path class="st0" d="M114.45,359.69l0.01,0.48c4.18-0.53,8.83-1.51,13.02-2.03l1.37-0.02l-0.51-5.58l-0.93,0.48
								c0.02,1.41,0.04,2.8-0.9,3.73c-0.9,0.96-2.32,0.98-3.23,1.44c-3.25,0.51-4.19-0.4-4.71-4.12l-1.04-8.79
								c-0.01-0.97-0.5-3.26-0.52-4.19c0.45-0.92,1.38-0.93,2.3-0.95l-0.46-0.93c-0.91,0.5-2.33,0.51-3.72,0.53
								c-0.93,0.46-2.33,0.48-3.72,0.5l0.48,0.91c0.48-0.46,1.85-0.48,2.33,0.43c0.01,0.95,0.51,3.26,0.52,4.19l1.5,8.33
								c0.01,0.92,0.51,3.26,0.05,4.18C116.3,359.22,115.38,359.23,114.45,359.69"/>
						</g>
					</g>
					<g>
						<g>
							<path class="st0" d="M95.36,353.9c-0.92-0.49-2.31-0.47-3.72-0.45c1.84-0.93,3.22-2.32,2.73-5.12
								c-0.53-4.17-4.27-4.58-6.58-4.09c-0.92,0.46-1.84,0.47-3.26,0.49c-0.92,0.5-2.32,0.51-3.23,0.53l0.01,0.93
								c0.91-0.49,1.86-0.5,2.32,0.43c0.01,0.91,0.51,3.24,0.52,4.15l1.51,8.38c0.01,0.93,0.52,3.25,0.53,4.15
								c-0.47,0.93-1.41,0.94-2.33,1.42l0.01,0.48c1.87-0.02,2.78-0.52,4.66-0.54c0.91-0.48,1.84-0.49,3.25-0.51
								c1.4-0.02,3.25-0.5,4.17-1.44c1.4-1.42,2.28-2.81,1.8-4.68C97.72,356.19,96.78,354.78,95.36,353.9 M86.42,347.04l-0.01-0.92
								c0.47-0.48,1.4-0.49,1.4-0.49c2.31-0.49,3.28,0.89,3.77,3.22c0.02,1.37,0.03,2.33-0.88,3.27c-0.47,0.92-1.4,0.94-2.31,0.95
								l-0.92,0.45L86.42,347.04z M91.76,362.76c-0.92,0.47-1.84,0.48-2.34-0.42c-0.45-0.95-0.95-2.81-0.96-3.72l-0.52-3.73
								l0.48-0.01c1.4-0.47,2.78-0.48,3.71-0.05c1.4,0.46,1.89,1.85,2.38,3.23C94.99,360.88,94.08,362.73,91.76,362.76"/>
						</g>
					</g>
					<g>
						<g>
							<path class="st0" d="M160.54,352.76l-0.01-0.94c-0.94,0.01-2.34,0.51-2.36-0.9c-0.46-0.91,0.43-3.25,0.41-4.64l-0.01-0.93
								l6.03-1.04l1.92,3.25c0.01,0.46,0.46,1.39,0.47,1.85c0.5,1.38-0.9,1.4-1.35,1.88l0.01,0.46c0.93-0.01,2.31-0.49,3.7-0.5
								c0.93-0.49,2.32-0.51,3.24-0.52l-0.01-0.92c-0.92,0.01-1.84,0.02-2.32-0.44c-0.49-0.9-1.43-2.31-1.9-3.22l-7.17-14.31
								l-0.92,0.01l-2.19,12.54c-0.42,1.9-0.4,3.75-0.83,6.07c-0.46,1.41-0.92,1.9-2.29,2.38l0.01,0.46
								c0.94-0.01,1.84-0.02,2.78-0.49L160.54,352.76z M160.78,336.13l3.81,7.39l-5.13,0.52L160.78,336.13z"/>
						</g>
					</g>
					<g>
						<g>
							<path class="st0" d="M281.29,357.24c0.5,1.84,0.03,2.32-0.91,3.25l0.48,0.45c0.47-0.46,1.39-0.93,2.32-1.4
								c0.92-0.49,1.34-0.95,2.28-1.44l-0.48-0.45c-0.47,0.46-1.82,0.96-2.31,0.03c-0.48-1.36-0.96-3.7-0.97-4.62l-0.49-0.92
								l5.54-2.86l2.35,1.85c0.93,0.42,1.41,1.35,1.87,1.82c0.5,0.92-0.44,1.86-1.37,1.87l0.48,0.93c0.91-0.94,2.32-1.43,3.24-1.9
								c0.91-0.94,2.3-1.43,3.24-1.9l-0.48-0.47c-0.47,0.01-1.41,0.5-2.32,0.03c-0.93-0.42-2.34-1.82-2.84-2.28l-12.21-10.51
								l-0.95,0.01l2.49,12.52C280.77,353.07,281.27,355.37,281.29,357.24 M285.83,348.36l-4.63,2.39l-1.51-7.89L285.83,348.36z"/>
						</g>
					</g>
					<g>
						<g>
							<path class="st0" d="M290.03,334.36l6.63,9.2c0.94,0.93,1.89,2.3,2.39,3.24c0.48,1.38,0.02,1.85-0.9,2.79l0.44,0.46
								c0.94-0.95,1.39-1.42,2.32-1.89c0.93-0.47,1.84-0.94,2.29-1.9l-0.01-0.48c-0.92,0.49-1.84,0.98-2.78,0.51
								c-0.92-0.91-2.33-2.28-2.84-3.21l-6.16-8.26l16.84,5.33c0.95,0.47,1.87,0.91,2.8,0.9l0.46-0.46l-7.56-10.15
								c-0.98-1.36-2.86-3.65-3.33-4.59c-0.5-1.37,0.45-1.38,0.9-2.32l-0.48-0.49c-0.93,0.51-1.39,0.96-1.83,1.9
								c-0.95,0.48-1.87,0.96-2.79,1.43l0.48,0.47c1.38-0.5,1.87-0.97,3.25-0.04c0.95,0.9,1.9,2.77,2.84,3.65l5.22,6.93l-18.24-5.81
								c-0.45,0.48-1.37,0.95-1.85,0.95c-0.47,0.93-0.93,0.93-1.85,1.39l0.49,0.96C287.69,333.9,288.64,333.89,290.03,334.36"/>
						</g>
					</g>
					<g>
						<g>
							<path class="st0" d="M62.32,342.46c2.3-3.3,0.38-6.05-1.94-7.4c-0.93-0.47-1.89-1.39-2.81-1.83
								c-0.95-0.92-2.36-1.36-3.3-2.29l-0.46,0.48c0.94,0.45,1.87,0.9,1.43,2.28c-0.45,0.51-1.84,2.37-2.27,3.3l-4.55,7.02
								c-0.45,0.95-1.85,2.8-2.75,3.3c-0.48,0.94-1.41,0.02-2.34-0.46l0.01,0.96c0.94,0.45,1.87,1.35,2.81,1.78
								c1.42,0.95,2.37,1.4,3.3,2.3l0.46-0.46c-0.95-0.92-1.86-1.38-1.41-2.32c-0.01-0.91,1.34-2.81,1.79-3.75l2.29-2.81
								c0,0,0.94,0.92,1.41,0.91C56.3,345.32,60.03,346.2,62.32,342.46 M59.53,341.11c-1.39,2.34-3.25,2.82-5.11,1.45
								c-0.48-0.45-0.95-0.44-0.95-0.91l3.65-5.62c0.91-1.42,0.91-1.42,1.87-0.48C60.85,336.91,61.35,338.77,59.53,341.11"/>
						</g>
					</g>
					<g>
						<g>
							<path class="st0" d="M313.77,335.34c0.02,1.41,0.02,1.87-0.89,2.79l0.47,0.93c0.46-0.94,1.41-1.44,1.86-1.88
								c0.92-0.47,1.83-0.97,2.29-1.44l-0.48-0.92c-0.44,0.48-1.36,1.41-2.3,0.5c-0.49-0.92-1.47-3.24-1.48-4.63l-0.46-0.46
								l5.09-3.78l2.79,1.83c0.49,0.46,1.43,0.91,1.88,1.36c0.48,0.92-0.42,1.88-0.88,2.33l0.48,0.48c0.9-0.95,1.84-1.44,2.74-2.38
								c0.9-0.94,1.84-1.41,2.77-1.89l-0.01-0.93c-0.93,0.48-1.87,0.96-2.79,0.51c-0.48,0.01-2.35-1.37-2.8-1.82l-13.64-9.13
								l-0.44,0.49l3.89,12.02C312.32,331.17,312.81,333.03,313.77,335.34 M316.9,325.54l-4.14,3.31l-2.88-7.87L316.9,325.54z"/>
						</g>
					</g>
					<g>
						<g>
							<path class="st0" d="M75.02,343.94l0.01,0.91c0.47,0.48,1.42,0.92,0.5,2.33c-0.45,0.92-4.13,4.25-5.03,5.18l-6,4.71l1.72-7.9
								c0.48-1.43,1.81-6.07,2.27-7.03c0.46-0.91,1.87-0.48,2.32-0.03l0.46-0.47c-1.41-0.43-2.34-1.35-3.28-1.79
								c-0.92-0.46-1.91-1.37-2.82-1.84l-0.44,0.48c1.37,1.38,0.94,2.77,0.51,4.64l-3.96,16.75l0.93,0.48l11.96-10.39
								c1.85-1.41,3.69-3.75,5.56-2.41l-0.01-0.44c-0.48-0.46-1.4-0.91-2.35-1.37C76.89,345.31,75.97,344.84,75.02,343.94"/>
						</g>
					</g>
					<g>
						<g>
							<path class="st0" d="M259.27,364.32l1.32-5.59l-0.95,0.01c-0.42,1.85-0.41,2.79-2.29,3.75c-0.92,0.47-2.31,0.03-3.72,0.05
								c-2.79-0.44-3.26-1.36-2.85-5.07l1.28-8.87c0.47-0.91,0.44-3.25,0.89-4.18c0.44-0.91,1.86-0.48,2.33-0.48l0.44-0.94
								c-1.39,0.02-2.78,0.04-4.19-0.44c-0.93,0.01-2.34-0.39-3.25-0.38l-0.47,0.43c0.93-0.01,1.85,0.47,2.35,1.39
								c0.01,0.91-0.45,3.23-0.44,4.18l-1.26,8.38c-0.47,0.94-0.91,3.28-0.9,3.73c-0.92,0.94-1.85,0.95-2.75,0.96l0.01,0.46
								c4.64,0.88,8.83,1.28,13.51,2.16C258.31,363.88,259.26,363.87,259.27,364.32"/>
						</g>
					</g>
					<g>
						<g>
							<path class="st0" d="M44.04,342.39c-2.29,2.31-3.68,1.87-6.03,0.5c-0.95-0.41-1.88-1.37-1.9-2.77
								c-0.01-0.91,0.9-1.87,1.36-2.79l2.75-4.22c2.34,1.38,3.28,2.29,1.46,5.08l0.47,0.48c0.91-0.96,1.37-1.87,2.27-3.28
								c0.47-0.93,1.4-1.86,2.29-3.3l-0.46,0.01c-1.37,1.44-2.75,2.84-5.56,0.54l4.11-6.1c0.93-0.94,0.93-0.94,1.38-0.47l1.41,0.91
								c2.33,1.83,3.3,2.75,1.46,5.55l0.47,0.46l2.75-3.75l-9.87-6.87l-0.92,0.51c0.93,0.45,1.87,0.91,1.42,2.3
								c-0.46,0.47-1.82,2.36-2.27,3.3l-4.58,6.56c-0.92,0.92-2.31,2.79-2.75,3.26c-0.93,0.5-1.85,0.02-2.34-0.43l-0.44,0.47
								l11.26,8.22l2.73-4.16L44.04,342.39z"/>
						</g>
					</g>
					<g>
						<g>
							<path class="st0" d="M241.11,359.58c-0.46-0.93-0.48-2.78-0.99-3.7l-2.99-15.76l-0.93-0.43l-5.44,11.2
								c-0.92,1.88-1.82,3.74-2.73,5.61c-0.94,1.4-1.39,1.89-2.78,1.91l-0.45,0.45c0.91-0.01,1.85,0.46,2.8,0.45
								c0.92-0.01,1.84,0.43,2.78,0.42l-0.01-0.46c-0.47-0.48-1.86-0.46-1.88-1.83c0.45-0.95,1.35-3.28,1.8-4.21l0.47-0.95
								l6.51,0.86l0.5,3.24l0.04,2.8c0.01,0.92-1.38,0.47-1.85,0.48l-0.45,0.96c1.39-0.02,2.77-0.04,3.72,0.39
								c1.42-0.02,2.79,0.44,3.72,0.42l-0.01-0.47C242.05,360.52,241.58,360.52,241.11,359.58 M231.69,351.35l3.64-7.49l1.5,8.34
								L231.69,351.35z"/>
						</g>
					</g>
					<g>
						<g>
							<path class="st0" d="M227.91,343.29l0.49,0.44l0.86-4.68l-15.85-2.58l-0.87,4.67l0.94,0.45c0.4-3.69,1.32-3.71,4.14-3.31
								c0.91-0.01,2.33,0.45,1.87,0.89l-1.67,14.43c-0.41,2.34-0.9,2.81-3.69,2.85l0.01,0.46c1.41,0.45,2.8,0.43,4.21,0.41
								c1.39,0.44,2.79,0.88,4.17,0.86l-0.01-0.46c-2.32-0.9-2.33-1.36-2.36-3.7l2.12-14.42c-0.01-0.91,1.41-0.49,2.8-0.51
								C227.41,339.55,228.36,340.49,227.91,343.29"/>
						</g>
					</g>
					<g>
						<g>
							<path class="st0" d="M267.53,346.02c0.01,0.49,0.5,2.79,0.51,3.71l0.6,8.82c0.01,0.93,0.48,2.78,0.05,3.72
								c0.02,1.38-1.37,1.4-1.86,1.41l0.01,0.46c1.39-0.02,2.32-0.03,3.71-0.5l3.72-0.05l-0.01-0.46c-0.91,0.01-1.84,0.02-2.32-0.9
								c-0.49-0.93-0.52-3.24-0.53-4.17l-1.04-8.37l-0.05-4.16c0.43-0.95,1.39-0.96,2.31-0.98l-0.01-0.93
								c-1.4,0.02-2.8,0.51-3.72,0.52l-3.72,0.05l0.01,0.95C266.11,345.12,267.07,344.63,267.53,346.02"/>
						</g>
					</g>
				</g>
			</g>
		</g>
	</g>
	<g>
		<path class="st0" d="M3.86,482.62h31.95v5H9.43v20.66h21.55v5H9.43v21.06h27.84v5H3.86V482.62z"/>
		<path class="st0" d="M60.58,509.73l-16.46-27.11h6.54l9.93,16.78c1.69,2.9,3.71,6.54,3.71,6.54h0.16c0,0,1.61-3.63,3.39-6.54
			l10.01-16.78h6.62l-16.62,27.11L86,539.34h-6.46l-11.78-19.61c-1.78-2.9-3.55-6.29-3.55-6.29h-0.16c0,0-1.69,3.39-3.47,6.38
			l-11.62,19.53h-6.45L60.58,509.73z"/>
		<path class="st0" d="M118.75,481.65c13.56,0,20.42,7.34,20.42,7.34l-2.99,4.12c0,0-6.62-6.29-17.27-6.29
			c-13.31,0-22.84,10.33-22.84,23.72c0,13.56,9.52,24.61,23,24.61c11.46,0,18.4-7.58,18.4-7.58l3.23,3.96c0,0-7.75,8.79-21.71,8.79
			c-16.78,0-28.73-13.15-28.73-29.69C90.26,494.16,102.53,481.65,118.75,481.65z"/>
		<path class="st0" d="M151.5,482.62h5.57v56.73h-5.57V482.62z"/>
		<path class="st0" d="M171.34,528.77c0,0,5.89,6.21,14.85,6.21c6.21,0,11.3-3.71,11.3-9.85c0-14.28-28.32-10.65-28.32-28.24
			c0-8.15,7.18-15.25,17.67-15.25c9.85,0,15.17,5.49,15.17,5.49l-2.74,4.68c0,0-5-4.84-12.43-4.84c-7.26,0-11.94,4.76-11.94,9.76
			c0,13.47,28.32,9.6,28.32,28.24c0,8.47-6.53,15.33-17.19,15.33c-11.62,0-18-7.26-18-7.26L171.34,528.77z"/>
		<path class="st0" d="M214.34,482.62h31.95v5h-26.39v20.66h21.55v5h-21.55v21.06h27.84v5h-33.41V482.62z"/>
		<path class="st0" d="M258.39,532.73h6.05l-5.97,14.44h-4.68L258.39,532.73z"/>
		<path class="st0" d="M322.61,481.65c13.56,0,20.42,7.34,20.42,7.34l-2.99,4.12c0,0-6.62-6.29-17.27-6.29
			c-13.31,0-22.84,10.33-22.84,23.72c0,13.56,9.52,24.61,23,24.61c11.46,0,18.4-7.58,18.4-7.58l3.23,3.96c0,0-7.75,8.79-21.71,8.79
			c-16.78,0-28.73-13.15-28.73-29.69C294.13,494.16,306.39,481.65,322.61,481.65z"/>
		<path class="st0" d="M354.63,482.62h5.65v36.88c0,9.76,6.29,15.65,16.06,15.65c9.76,0,16.14-5.89,16.14-15.81v-36.72h5.57v36.96
			c0,12.59-8.8,20.74-21.63,20.74c-12.91,0-21.79-8.15-21.79-20.74V482.62z"/>
		<path class="st0" d="M411.59,528.77c0,0,5.89,6.21,14.85,6.21c6.21,0,11.3-3.71,11.3-9.85c0-14.28-28.32-10.65-28.32-28.24
			c0-8.15,7.18-15.25,17.67-15.25c9.85,0,15.17,5.49,15.17,5.49l-2.74,4.68c0,0-5-4.84-12.43-4.84c-7.26,0-11.94,4.76-11.94,9.76
			c0,13.47,28.32,9.6,28.32,28.24c0,8.47-6.53,15.33-17.19,15.33c-11.62,0-18-7.26-18-7.26L411.59,528.77z"/>
		<path class="st0" d="M467.34,487.62h-20.42v-5h46.32v5h-20.33v51.73h-5.57V487.62z"/>
		<path class="st0" d="M524.62,481.65c16.06,0,28.89,12.67,28.89,28.97c0,16.62-12.83,29.69-28.89,29.69
			c-16.06,0-28.89-13.07-28.89-29.69C495.73,494.32,508.56,481.65,524.62,481.65z M524.62,535.15c12.75,0,23.08-10.65,23.08-24.53
			c0-13.56-10.33-23.81-23.08-23.81c-12.83,0-23.08,10.25-23.08,23.81C501.54,524.5,511.79,535.15,524.62,535.15z"/>
		<path class="st0" d="M567.53,482.62h5.81l14.85,33.33c1.29,2.9,2.74,6.94,2.74,6.94h0.16c0,0,1.53-4.04,2.82-6.94l14.85-33.33
			h5.73l4.52,56.73h-5.57l-3.15-39.7c-0.24-3.07-0.16-7.91-0.16-7.91h-0.16c0,0-1.7,5-2.99,7.91l-13.31,29.13h-5.25l-13.31-29.13
			c-1.29-2.83-3.07-8.07-3.07-8.07h-0.16c0,0,0.08,5-0.16,8.07l-3.15,39.7h-5.57L567.53,482.62z"/>
		<path class="st0" d="M631.5,528.77c0,0,5.89,6.21,14.85,6.21c6.21,0,11.3-3.71,11.3-9.85c0-14.28-28.32-10.65-28.32-28.24
			c0-8.15,7.18-15.25,17.67-15.25c9.85,0,15.17,5.49,15.17,5.49l-2.74,4.68c0,0-5-4.84-12.43-4.84c-7.26,0-11.94,4.76-11.94,9.76
			c0,13.47,28.32,9.6,28.32,28.24c0,8.47-6.53,15.33-17.19,15.33c-11.62,0-18-7.26-18-7.26L631.5,528.77z"/>
		<path class="st0" d="M722.91,521.27h-22.84l-6.45,18.08h-5.89l20.82-56.73h5.97l20.82,56.73h-5.89L722.91,521.27z M711.45,488.51
			c0,0-1.21,4.68-2.18,7.34l-7.58,20.58h19.53l-7.42-20.58c-0.97-2.66-2.18-7.34-2.18-7.34H711.45z"/>
		<path class="st0" d="M743.31,482.62h5.41l28.97,40.83c1.94,2.83,4.68,7.67,4.68,7.67h0.16c0,0-0.48-4.68-0.48-7.67v-40.83h5.57
			v56.73h-5.41l-28.97-40.83c-1.94-2.82-4.68-7.67-4.68-7.67h-0.16c0,0,0.48,4.68,0.48,7.67v40.83h-5.57V482.62z"/>
		<path class="st0" d="M802.77,482.62h18.32c17.03,0,28.48,10.41,28.48,28.32c0,18.08-11.46,28.41-28.48,28.41h-18.32V482.62z
			 M820.52,534.34c13.96,0,23.24-8.23,23.24-23.4c0-15.09-9.36-23.32-23.24-23.32h-12.19v46.72H820.52z"/>
		<path class="st0" d="M884.33,482.62h5.81l14.85,33.33c1.29,2.9,2.74,6.94,2.74,6.94h0.16c0,0,1.53-4.04,2.82-6.94l14.85-33.33
			h5.73l4.52,56.73h-5.57l-3.15-39.7c-0.24-3.07-0.16-7.91-0.16-7.91h-0.16c0,0-1.7,5-2.99,7.91l-13.31,29.13h-5.25l-13.31-29.13
			c-1.29-2.83-3.07-8.07-3.07-8.07h-0.16c0,0,0.08,5-0.16,8.07l-3.15,39.7h-5.57L884.33,482.62z"/>
		<path class="st0" d="M974.21,481.65c16.06,0,28.89,12.67,28.89,28.97c0,16.62-12.83,29.69-28.89,29.69
			c-16.06,0-28.89-13.07-28.89-29.69C945.32,494.32,958.15,481.65,974.21,481.65z M974.21,535.15c12.75,0,23.08-10.65,23.08-24.53
			c0-13.56-10.33-23.81-23.08-23.81c-12.83,0-23.08,10.25-23.08,23.81C951.13,524.5,961.38,535.15,974.21,535.15z"/>
		<path class="st0" d="M1014.37,482.62h5.41l28.97,40.83c1.94,2.83,4.68,7.67,4.68,7.67h0.16c0,0-0.48-4.68-0.48-7.67v-40.83h5.57
			v56.73h-5.41l-28.97-40.83c-1.94-2.82-4.68-7.67-4.68-7.67h-0.16c0,0,0.48,4.68,0.48,7.67v40.83h-5.57V482.62z"/>
		<path class="st0" d="M1098.85,481.65c16.06,0,28.89,12.67,28.89,28.97c0,16.62-12.83,29.69-28.89,29.69
			c-16.06,0-28.89-13.07-28.89-29.69C1069.96,494.32,1082.79,481.65,1098.85,481.65z M1098.85,535.15
			c12.75,0,23.08-10.65,23.08-24.53c0-13.56-10.33-23.81-23.08-23.81c-12.83,0-23.08,10.25-23.08,23.81
			C1075.77,524.5,1086.02,535.15,1098.85,535.15z"/>
		<path class="st0" d="M1139.01,482.62h19.61c10.17,0,17.51,6.62,17.51,17.11c0,10.57-7.34,17.35-17.51,17.35h-14.04v22.27h-5.57
			V482.62z M1157.9,512.07c7.58,0,12.51-4.6,12.51-12.34c0-7.67-4.92-12.11-12.43-12.11h-13.4v24.45H1157.9z"/>
		<path class="st0" d="M1210.98,481.65c16.06,0,28.89,12.67,28.89,28.97c0,16.62-12.83,29.69-28.89,29.69
			c-16.06,0-28.89-13.07-28.89-29.69C1182.09,494.32,1194.92,481.65,1210.98,481.65z M1210.98,535.15
			c12.75,0,23.08-10.65,23.08-24.53c0-13.56-10.33-23.81-23.08-23.81c-12.83,0-23.08,10.25-23.08,23.81
			C1187.9,524.5,1198.15,535.15,1210.98,535.15z"/>
		<path class="st0" d="M1251.15,482.62h5.57v51.72h26.31v5h-31.87V482.62z"/>
		<path class="st0" d="M1291.65,482.62h5.57v56.73h-5.57V482.62z"/>
		<path class="st0" d="M1312.38,482.62h31.95v5h-26.39v20.66h21.55v5h-21.55v21.06h27.84v5h-33.41V482.62z"/>
		<path class="st0" d="M1356.26,528.77c0,0,5.89,6.21,14.85,6.21c6.21,0,11.3-3.71,11.3-9.85c0-14.28-28.32-10.65-28.32-28.24
			c0-8.15,7.18-15.25,17.67-15.25c9.85,0,15.17,5.49,15.17,5.49l-2.74,4.68c0,0-5-4.84-12.43-4.84c-7.26,0-11.94,4.76-11.94,9.76
			c0,13.47,28.32,9.6,28.32,28.24c0,8.47-6.53,15.33-17.19,15.33c-11.62,0-18-7.26-18-7.26L1356.26,528.77z"/>
		<path class="st0" d="M1447.67,521.27h-22.84l-6.45,18.08h-5.89l20.82-56.73h5.97l20.82,56.73h-5.89L1447.67,521.27z
			 M1436.22,488.51c0,0-1.21,4.68-2.18,7.34l-7.58,20.58h19.53l-7.42-20.58c-0.97-2.66-2.18-7.34-2.18-7.34H1436.22z"/>
		<path class="st0" d="M1492.45,481.65c13.15,0,20.17,6.62,20.17,6.62l-2.99,4.19c0,0-6.62-5.65-16.95-5.65
			c-13.72,0-23,10.57-23,24.05c0,13.96,9.6,24.29,22.51,24.29c11.06,0,17.83-8.31,17.83-8.31v-9.6h-9.68v-5h15.01v27.11h-5.16v-4.28
			c0-1.21,0.08-2.42,0.08-2.42h-0.16c0,0-6.54,7.66-18.48,7.66c-15.49,0-27.76-12.51-27.76-29.37
			C1463.88,494.56,1476.15,481.65,1492.45,481.65z"/>
		<path class="st0" d="M1527.53,482.62h31.95v5h-26.39v20.66h21.55v5h-21.55v21.06h27.84v5h-33.41V482.62z"/>
		<path class="st0" d="M1572.31,482.62h5.41l28.97,40.83c1.94,2.83,4.68,7.67,4.68,7.67h0.16c0,0-0.48-4.68-0.48-7.67v-40.83h5.57
			v56.73h-5.41l-28.97-40.83c-1.94-2.82-4.68-7.67-4.68-7.67h-0.16c0,0,0.48,4.68,0.48,7.67v40.83h-5.57V482.62z"/>
		<path class="st0" d="M1656.46,481.65c13.56,0,20.42,7.34,20.42,7.34l-2.99,4.12c0,0-6.62-6.29-17.27-6.29
			c-13.31,0-22.84,10.33-22.84,23.72c0,13.56,9.52,24.61,23,24.61c11.46,0,18.4-7.58,18.4-7.58l3.23,3.96c0,0-7.75,8.79-21.71,8.79
			c-16.78,0-28.73-13.15-28.73-29.69C1627.97,494.16,1640.24,481.65,1656.46,481.65z"/>
		<path class="st0" d="M1701.31,514.98l-19.12-32.36h6.37l12.02,20.58c1.69,2.9,3.47,6.78,3.47,6.78h0.16c0,0,1.7-3.79,3.47-6.78
			l12.02-20.58h6.29l-19.04,32.36v24.37h-5.65V514.98z"/>
	</g>
</g>
</svg>
